G04 EAGLE Gerber RS-274X export*
G75*
%MOMM*%
%FSLAX34Y34*%
%LPD*%
%INBottom Copper*%
%IPPOS*%
%AMOC8*
5,1,8,0,0,1.08239X$1,22.5*%
G01*
%ADD10C,0.254000*%
%ADD11C,0.654000*%
%ADD12C,0.635000*%
%ADD13C,6.000000*%
%ADD14C,0.099059*%
%ADD15C,0.101600*%
%ADD16C,1.879600*%
%ADD17C,0.558800*%
%ADD18C,0.203200*%
%ADD19C,0.406400*%

G36*
X58541Y3057D02*
X58541Y3057D01*
X58600Y3055D01*
X58682Y3077D01*
X58765Y3089D01*
X58818Y3112D01*
X58875Y3127D01*
X58947Y3170D01*
X59024Y3205D01*
X59069Y3243D01*
X59119Y3272D01*
X59177Y3334D01*
X59241Y3388D01*
X59274Y3437D01*
X59314Y3480D01*
X59352Y3555D01*
X59399Y3625D01*
X59417Y3681D01*
X59443Y3733D01*
X59455Y3801D01*
X59485Y3896D01*
X59487Y3996D01*
X59499Y4064D01*
X59499Y6448D01*
X61447Y8396D01*
X61504Y8411D01*
X61587Y8423D01*
X61641Y8446D01*
X61697Y8461D01*
X61770Y8504D01*
X61847Y8539D01*
X61891Y8577D01*
X61942Y8606D01*
X61999Y8668D01*
X62064Y8722D01*
X62096Y8771D01*
X62136Y8814D01*
X62175Y8889D01*
X62221Y8959D01*
X62239Y9015D01*
X62266Y9067D01*
X62277Y9135D01*
X62307Y9230D01*
X62310Y9330D01*
X62321Y9398D01*
X62321Y15001D01*
X62312Y15064D01*
X62315Y15113D01*
X62186Y16269D01*
X62187Y16269D01*
X62243Y16365D01*
X62251Y16396D01*
X62266Y16424D01*
X62278Y16501D01*
X62301Y16588D01*
X63119Y17406D01*
X63158Y17457D01*
X63194Y17490D01*
X63921Y18398D01*
X64029Y18426D01*
X64056Y18442D01*
X64086Y18452D01*
X64150Y18497D01*
X64227Y18543D01*
X65385Y18543D01*
X65448Y18552D01*
X65497Y18549D01*
X66653Y18677D01*
X66749Y18620D01*
X66779Y18613D01*
X66807Y18598D01*
X66885Y18585D01*
X66972Y18563D01*
X67790Y17744D01*
X67841Y17706D01*
X67874Y17670D01*
X70694Y15413D01*
X70772Y15367D01*
X70845Y15313D01*
X70894Y15295D01*
X70939Y15268D01*
X71027Y15246D01*
X71111Y15214D01*
X71164Y15210D01*
X71214Y15197D01*
X71305Y15200D01*
X71395Y15193D01*
X71446Y15204D01*
X71498Y15205D01*
X71584Y15232D01*
X71673Y15251D01*
X71720Y15275D01*
X71769Y15291D01*
X71844Y15342D01*
X71924Y15384D01*
X71962Y15420D01*
X72005Y15449D01*
X72064Y15519D01*
X72129Y15581D01*
X72151Y15622D01*
X72189Y15667D01*
X72239Y15779D01*
X72258Y15808D01*
X72267Y15836D01*
X72289Y15877D01*
X72514Y16534D01*
X75326Y18543D01*
X78781Y18543D01*
X81593Y16534D01*
X81994Y15366D01*
X82018Y15318D01*
X82034Y15266D01*
X82082Y15192D01*
X82123Y15113D01*
X82160Y15073D01*
X82189Y15028D01*
X82256Y14970D01*
X82317Y14905D01*
X82363Y14877D01*
X82404Y14842D01*
X82485Y14805D01*
X82561Y14759D01*
X82613Y14745D01*
X82662Y14723D01*
X82750Y14709D01*
X82836Y14687D01*
X82890Y14688D01*
X82944Y14680D01*
X83014Y14691D01*
X83120Y14694D01*
X83210Y14722D01*
X83275Y14732D01*
X85336Y15419D01*
X86887Y14644D01*
X86903Y14639D01*
X86917Y14629D01*
X87038Y14593D01*
X87156Y14554D01*
X87173Y14553D01*
X87190Y14548D01*
X87316Y14547D01*
X87440Y14542D01*
X87457Y14546D01*
X87474Y14546D01*
X87542Y14566D01*
X87717Y14609D01*
X87758Y14633D01*
X87795Y14644D01*
X89345Y15419D01*
X91941Y14554D01*
X93164Y12107D01*
X90929Y5401D01*
X90926Y5386D01*
X90920Y5372D01*
X90910Y5306D01*
X90891Y5247D01*
X90890Y5186D01*
X90878Y5121D01*
X90879Y5106D01*
X90877Y5091D01*
X90886Y5035D01*
X90884Y4963D01*
X90900Y4902D01*
X90906Y4839D01*
X90909Y4831D01*
X90752Y4518D01*
X90750Y4510D01*
X90745Y4503D01*
X90704Y4375D01*
X90662Y4248D01*
X90662Y4240D01*
X90659Y4232D01*
X90656Y4097D01*
X90650Y3964D01*
X90652Y3956D01*
X90652Y3948D01*
X90686Y3818D01*
X90717Y3688D01*
X90721Y3681D01*
X90724Y3673D01*
X90791Y3559D01*
X90858Y3441D01*
X90865Y3435D01*
X90869Y3428D01*
X90966Y3337D01*
X91062Y3243D01*
X91070Y3239D01*
X91076Y3234D01*
X91196Y3173D01*
X91313Y3110D01*
X91322Y3108D01*
X91329Y3104D01*
X91381Y3095D01*
X91591Y3051D01*
X91630Y3054D01*
X91660Y3049D01*
X818025Y3049D01*
X818132Y3064D01*
X818239Y3072D01*
X818272Y3084D01*
X818306Y3089D01*
X818405Y3133D01*
X818506Y3170D01*
X818534Y3191D01*
X818566Y3205D01*
X818648Y3275D01*
X818735Y3338D01*
X818756Y3366D01*
X818783Y3388D01*
X818842Y3478D01*
X818908Y3564D01*
X818921Y3596D01*
X818940Y3625D01*
X818973Y3728D01*
X819012Y3828D01*
X819016Y3863D01*
X819026Y3896D01*
X819029Y4004D01*
X819039Y4111D01*
X819033Y4146D01*
X819033Y4180D01*
X819006Y4285D01*
X818986Y4391D01*
X818970Y4422D01*
X818962Y4455D01*
X818907Y4548D01*
X818858Y4644D01*
X818834Y4670D01*
X818816Y4700D01*
X818738Y4774D01*
X818664Y4853D01*
X818637Y4868D01*
X818609Y4894D01*
X818418Y4992D01*
X818372Y5018D01*
X814538Y6413D01*
X808705Y11308D01*
X804898Y17902D01*
X803576Y25400D01*
X804898Y32898D01*
X808705Y39492D01*
X814538Y44387D01*
X821693Y46991D01*
X829307Y46991D01*
X836462Y44387D01*
X842295Y39492D01*
X845957Y33149D01*
X845969Y33134D01*
X845977Y33116D01*
X846056Y33022D01*
X846132Y32925D01*
X846148Y32914D01*
X846161Y32899D01*
X846263Y32831D01*
X846362Y32759D01*
X846381Y32752D01*
X846397Y32741D01*
X846514Y32704D01*
X846630Y32663D01*
X846650Y32661D01*
X846668Y32656D01*
X846791Y32652D01*
X846914Y32645D01*
X846933Y32649D01*
X846952Y32648D01*
X847071Y32679D01*
X847191Y32706D01*
X847209Y32715D01*
X847227Y32720D01*
X847333Y32783D01*
X847441Y32842D01*
X847455Y32855D01*
X847472Y32865D01*
X847556Y32955D01*
X847643Y33041D01*
X847653Y33058D01*
X847666Y33073D01*
X847722Y33182D01*
X847782Y33289D01*
X847787Y33308D01*
X847796Y33326D01*
X847808Y33398D01*
X847847Y33566D01*
X847845Y33617D01*
X847851Y33657D01*
X847851Y321943D01*
X847849Y321963D01*
X847851Y321982D01*
X847829Y322103D01*
X847811Y322225D01*
X847803Y322242D01*
X847800Y322262D01*
X847745Y322372D01*
X847695Y322484D01*
X847683Y322499D01*
X847674Y322517D01*
X847591Y322607D01*
X847512Y322701D01*
X847495Y322712D01*
X847482Y322726D01*
X847377Y322791D01*
X847275Y322859D01*
X847256Y322865D01*
X847240Y322875D01*
X847121Y322907D01*
X847004Y322944D01*
X846984Y322945D01*
X846965Y322950D01*
X846843Y322949D01*
X846720Y322952D01*
X846701Y322947D01*
X846681Y322946D01*
X846563Y322911D01*
X846445Y322880D01*
X846428Y322870D01*
X846409Y322864D01*
X846306Y322797D01*
X846200Y322735D01*
X846187Y322720D01*
X846170Y322710D01*
X846124Y322653D01*
X846006Y322527D01*
X845982Y322482D01*
X845957Y322451D01*
X842295Y316108D01*
X836462Y311213D01*
X829307Y308609D01*
X821693Y308609D01*
X814538Y311213D01*
X808705Y316108D01*
X804898Y322702D01*
X803576Y330200D01*
X804898Y337698D01*
X808705Y344292D01*
X814538Y349187D01*
X818372Y350582D01*
X818467Y350633D01*
X818566Y350677D01*
X818592Y350699D01*
X818623Y350716D01*
X818700Y350791D01*
X818783Y350861D01*
X818802Y350889D01*
X818827Y350914D01*
X818881Y351007D01*
X818940Y351097D01*
X818951Y351130D01*
X818968Y351160D01*
X818994Y351265D01*
X819026Y351368D01*
X819027Y351403D01*
X819035Y351437D01*
X819031Y351544D01*
X819033Y351652D01*
X819025Y351686D01*
X819023Y351721D01*
X818989Y351823D01*
X818962Y351927D01*
X818944Y351957D01*
X818933Y351990D01*
X818871Y352079D01*
X818816Y352172D01*
X818791Y352196D01*
X818771Y352224D01*
X818688Y352292D01*
X818609Y352366D01*
X818578Y352382D01*
X818551Y352404D01*
X818452Y352447D01*
X818356Y352496D01*
X818325Y352501D01*
X818290Y352516D01*
X818077Y352542D01*
X818025Y352551D01*
X440765Y352551D01*
X440736Y352547D01*
X440707Y352550D01*
X440596Y352527D01*
X440484Y352511D01*
X440457Y352499D01*
X440428Y352494D01*
X440328Y352441D01*
X440224Y352395D01*
X440202Y352376D01*
X440176Y352363D01*
X440094Y352285D01*
X440007Y352212D01*
X439991Y352187D01*
X439970Y352167D01*
X439913Y352069D01*
X439850Y351975D01*
X439841Y351947D01*
X439826Y351922D01*
X439798Y351812D01*
X439764Y351704D01*
X439763Y351674D01*
X439756Y351646D01*
X439760Y351533D01*
X439757Y351420D01*
X439764Y351391D01*
X439765Y351362D01*
X439800Y351254D01*
X439828Y351145D01*
X439843Y351119D01*
X439852Y351091D01*
X439898Y351027D01*
X439974Y350900D01*
X440019Y350857D01*
X440047Y350818D01*
X441491Y349375D01*
X443231Y345174D01*
X443231Y340626D01*
X441490Y336425D01*
X438275Y333210D01*
X434074Y331469D01*
X429526Y331469D01*
X425325Y333210D01*
X422110Y336425D01*
X420369Y340626D01*
X420369Y345174D01*
X422109Y349375D01*
X423553Y350818D01*
X423570Y350842D01*
X423593Y350861D01*
X423655Y350955D01*
X423724Y351045D01*
X423734Y351073D01*
X423750Y351097D01*
X423784Y351205D01*
X423825Y351311D01*
X423827Y351340D01*
X423836Y351368D01*
X423839Y351482D01*
X423848Y351594D01*
X423843Y351623D01*
X423843Y351652D01*
X423815Y351762D01*
X423792Y351873D01*
X423779Y351899D01*
X423772Y351927D01*
X423714Y352025D01*
X423661Y352125D01*
X423641Y352147D01*
X423626Y352172D01*
X423544Y352249D01*
X423466Y352331D01*
X423440Y352346D01*
X423419Y352366D01*
X423318Y352418D01*
X423220Y352475D01*
X423192Y352482D01*
X423166Y352496D01*
X423088Y352509D01*
X422945Y352545D01*
X422882Y352543D01*
X422835Y352551D01*
X415365Y352551D01*
X415336Y352547D01*
X415307Y352550D01*
X415196Y352527D01*
X415084Y352511D01*
X415057Y352499D01*
X415028Y352494D01*
X414928Y352441D01*
X414824Y352395D01*
X414802Y352376D01*
X414776Y352363D01*
X414694Y352285D01*
X414607Y352212D01*
X414591Y352187D01*
X414570Y352167D01*
X414513Y352069D01*
X414450Y351975D01*
X414441Y351947D01*
X414426Y351922D01*
X414398Y351812D01*
X414364Y351704D01*
X414363Y351674D01*
X414356Y351646D01*
X414360Y351533D01*
X414357Y351420D01*
X414364Y351391D01*
X414365Y351362D01*
X414400Y351254D01*
X414428Y351145D01*
X414443Y351119D01*
X414452Y351091D01*
X414498Y351027D01*
X414574Y350900D01*
X414619Y350857D01*
X414647Y350818D01*
X416091Y349375D01*
X417831Y345174D01*
X417831Y340626D01*
X416090Y336425D01*
X412875Y333210D01*
X408674Y331469D01*
X404126Y331469D01*
X399925Y333210D01*
X396710Y336425D01*
X394969Y340626D01*
X394969Y345174D01*
X396709Y349375D01*
X398153Y350818D01*
X398170Y350842D01*
X398193Y350861D01*
X398255Y350955D01*
X398324Y351045D01*
X398334Y351073D01*
X398350Y351097D01*
X398384Y351205D01*
X398425Y351311D01*
X398427Y351340D01*
X398436Y351368D01*
X398439Y351482D01*
X398448Y351594D01*
X398443Y351623D01*
X398443Y351652D01*
X398415Y351762D01*
X398392Y351873D01*
X398379Y351899D01*
X398372Y351927D01*
X398314Y352025D01*
X398261Y352125D01*
X398241Y352147D01*
X398226Y352172D01*
X398144Y352249D01*
X398066Y352331D01*
X398040Y352346D01*
X398019Y352366D01*
X397918Y352418D01*
X397820Y352475D01*
X397792Y352482D01*
X397766Y352496D01*
X397688Y352509D01*
X397545Y352545D01*
X397482Y352543D01*
X397435Y352551D01*
X389965Y352551D01*
X389936Y352547D01*
X389907Y352550D01*
X389796Y352527D01*
X389684Y352511D01*
X389657Y352499D01*
X389628Y352494D01*
X389528Y352441D01*
X389424Y352395D01*
X389402Y352376D01*
X389376Y352363D01*
X389294Y352285D01*
X389207Y352212D01*
X389191Y352187D01*
X389170Y352167D01*
X389113Y352069D01*
X389050Y351975D01*
X389041Y351947D01*
X389026Y351922D01*
X388998Y351812D01*
X388964Y351704D01*
X388963Y351674D01*
X388956Y351646D01*
X388960Y351533D01*
X388957Y351420D01*
X388964Y351391D01*
X388965Y351362D01*
X389000Y351254D01*
X389028Y351145D01*
X389043Y351119D01*
X389052Y351091D01*
X389098Y351027D01*
X389174Y350900D01*
X389219Y350857D01*
X389247Y350818D01*
X390691Y349375D01*
X392431Y345174D01*
X392431Y340626D01*
X390690Y336425D01*
X387475Y333210D01*
X383274Y331469D01*
X378726Y331469D01*
X374525Y333210D01*
X371310Y336425D01*
X369569Y340626D01*
X369569Y345174D01*
X371309Y349375D01*
X372753Y350818D01*
X372770Y350842D01*
X372793Y350861D01*
X372855Y350955D01*
X372924Y351045D01*
X372934Y351073D01*
X372950Y351097D01*
X372984Y351205D01*
X373025Y351311D01*
X373027Y351340D01*
X373036Y351368D01*
X373039Y351482D01*
X373048Y351594D01*
X373043Y351623D01*
X373043Y351652D01*
X373015Y351762D01*
X372992Y351873D01*
X372979Y351899D01*
X372972Y351927D01*
X372914Y352025D01*
X372861Y352125D01*
X372841Y352147D01*
X372826Y352172D01*
X372744Y352249D01*
X372666Y352331D01*
X372640Y352346D01*
X372619Y352366D01*
X372518Y352418D01*
X372420Y352475D01*
X372392Y352482D01*
X372366Y352496D01*
X372288Y352509D01*
X372145Y352545D01*
X372082Y352543D01*
X372035Y352551D01*
X364565Y352551D01*
X364536Y352547D01*
X364507Y352550D01*
X364396Y352527D01*
X364284Y352511D01*
X364257Y352499D01*
X364228Y352494D01*
X364128Y352441D01*
X364024Y352395D01*
X364002Y352376D01*
X363976Y352363D01*
X363894Y352285D01*
X363807Y352212D01*
X363791Y352187D01*
X363770Y352167D01*
X363713Y352069D01*
X363650Y351975D01*
X363641Y351947D01*
X363626Y351922D01*
X363598Y351812D01*
X363564Y351704D01*
X363563Y351674D01*
X363556Y351646D01*
X363560Y351533D01*
X363557Y351420D01*
X363564Y351391D01*
X363565Y351362D01*
X363600Y351254D01*
X363628Y351145D01*
X363643Y351119D01*
X363652Y351091D01*
X363698Y351027D01*
X363774Y350900D01*
X363819Y350857D01*
X363847Y350818D01*
X365291Y349375D01*
X367031Y345174D01*
X367031Y340626D01*
X365290Y336425D01*
X362075Y333210D01*
X357874Y331469D01*
X353326Y331469D01*
X349125Y333210D01*
X345910Y336425D01*
X344169Y340626D01*
X344169Y345174D01*
X345909Y349375D01*
X347353Y350818D01*
X347370Y350842D01*
X347393Y350861D01*
X347455Y350955D01*
X347524Y351045D01*
X347534Y351073D01*
X347550Y351097D01*
X347584Y351205D01*
X347625Y351311D01*
X347627Y351340D01*
X347636Y351368D01*
X347639Y351482D01*
X347648Y351594D01*
X347643Y351623D01*
X347643Y351652D01*
X347615Y351762D01*
X347592Y351873D01*
X347579Y351899D01*
X347572Y351927D01*
X347514Y352025D01*
X347461Y352125D01*
X347441Y352147D01*
X347426Y352172D01*
X347344Y352249D01*
X347266Y352331D01*
X347240Y352346D01*
X347219Y352366D01*
X347118Y352418D01*
X347020Y352475D01*
X346992Y352482D01*
X346966Y352496D01*
X346888Y352509D01*
X346745Y352545D01*
X346682Y352543D01*
X346635Y352551D01*
X339165Y352551D01*
X339136Y352547D01*
X339107Y352550D01*
X338996Y352527D01*
X338884Y352511D01*
X338857Y352499D01*
X338828Y352494D01*
X338728Y352441D01*
X338624Y352395D01*
X338602Y352376D01*
X338576Y352363D01*
X338494Y352285D01*
X338407Y352212D01*
X338391Y352187D01*
X338370Y352167D01*
X338313Y352069D01*
X338250Y351975D01*
X338241Y351947D01*
X338226Y351922D01*
X338198Y351812D01*
X338164Y351704D01*
X338163Y351674D01*
X338156Y351646D01*
X338160Y351533D01*
X338157Y351420D01*
X338164Y351391D01*
X338165Y351362D01*
X338200Y351254D01*
X338228Y351145D01*
X338243Y351119D01*
X338252Y351091D01*
X338298Y351027D01*
X338374Y350900D01*
X338419Y350857D01*
X338447Y350818D01*
X339891Y349375D01*
X341631Y345174D01*
X341631Y340626D01*
X339890Y336425D01*
X336675Y333210D01*
X332474Y331469D01*
X327926Y331469D01*
X323725Y333210D01*
X320510Y336425D01*
X318769Y340626D01*
X318769Y345174D01*
X320509Y349375D01*
X321953Y350818D01*
X321970Y350842D01*
X321993Y350861D01*
X322055Y350955D01*
X322124Y351045D01*
X322134Y351073D01*
X322150Y351097D01*
X322184Y351205D01*
X322225Y351311D01*
X322227Y351340D01*
X322236Y351368D01*
X322239Y351482D01*
X322248Y351594D01*
X322243Y351623D01*
X322243Y351652D01*
X322215Y351762D01*
X322192Y351873D01*
X322179Y351899D01*
X322172Y351927D01*
X322114Y352025D01*
X322061Y352125D01*
X322041Y352147D01*
X322026Y352172D01*
X321944Y352249D01*
X321866Y352331D01*
X321840Y352346D01*
X321819Y352366D01*
X321718Y352418D01*
X321620Y352475D01*
X321592Y352482D01*
X321566Y352496D01*
X321488Y352509D01*
X321345Y352545D01*
X321282Y352543D01*
X321235Y352551D01*
X313765Y352551D01*
X313736Y352547D01*
X313707Y352550D01*
X313596Y352527D01*
X313484Y352511D01*
X313457Y352499D01*
X313428Y352494D01*
X313328Y352441D01*
X313224Y352395D01*
X313202Y352376D01*
X313176Y352363D01*
X313094Y352285D01*
X313007Y352212D01*
X312991Y352187D01*
X312970Y352167D01*
X312913Y352069D01*
X312850Y351975D01*
X312841Y351947D01*
X312826Y351922D01*
X312798Y351812D01*
X312764Y351704D01*
X312763Y351674D01*
X312756Y351646D01*
X312760Y351533D01*
X312757Y351420D01*
X312764Y351391D01*
X312765Y351362D01*
X312800Y351254D01*
X312828Y351145D01*
X312843Y351119D01*
X312852Y351091D01*
X312898Y351027D01*
X312974Y350900D01*
X313019Y350857D01*
X313047Y350818D01*
X314491Y349375D01*
X316231Y345174D01*
X316231Y340626D01*
X314490Y336425D01*
X311275Y333210D01*
X307074Y331469D01*
X302526Y331469D01*
X298325Y333210D01*
X295110Y336425D01*
X293369Y340626D01*
X293369Y345174D01*
X295109Y349375D01*
X296553Y350818D01*
X296570Y350842D01*
X296593Y350861D01*
X296655Y350955D01*
X296724Y351045D01*
X296734Y351073D01*
X296750Y351097D01*
X296784Y351205D01*
X296825Y351311D01*
X296827Y351340D01*
X296836Y351368D01*
X296839Y351482D01*
X296848Y351594D01*
X296843Y351623D01*
X296843Y351652D01*
X296815Y351762D01*
X296792Y351873D01*
X296779Y351899D01*
X296772Y351927D01*
X296714Y352025D01*
X296661Y352125D01*
X296641Y352147D01*
X296626Y352172D01*
X296544Y352249D01*
X296466Y352331D01*
X296440Y352346D01*
X296419Y352366D01*
X296318Y352418D01*
X296220Y352475D01*
X296192Y352482D01*
X296166Y352496D01*
X296088Y352509D01*
X295945Y352545D01*
X295882Y352543D01*
X295835Y352551D01*
X288365Y352551D01*
X288336Y352547D01*
X288307Y352550D01*
X288196Y352527D01*
X288084Y352511D01*
X288057Y352499D01*
X288028Y352494D01*
X287928Y352441D01*
X287824Y352395D01*
X287802Y352376D01*
X287776Y352363D01*
X287694Y352285D01*
X287607Y352212D01*
X287591Y352187D01*
X287570Y352167D01*
X287513Y352069D01*
X287450Y351975D01*
X287441Y351947D01*
X287426Y351922D01*
X287398Y351812D01*
X287364Y351704D01*
X287363Y351674D01*
X287356Y351646D01*
X287360Y351533D01*
X287357Y351420D01*
X287364Y351391D01*
X287365Y351362D01*
X287400Y351254D01*
X287428Y351145D01*
X287443Y351119D01*
X287452Y351091D01*
X287498Y351027D01*
X287574Y350900D01*
X287619Y350857D01*
X287647Y350818D01*
X289091Y349375D01*
X290831Y345174D01*
X290831Y340626D01*
X289090Y336425D01*
X285875Y333210D01*
X281674Y331469D01*
X277126Y331469D01*
X272925Y333210D01*
X269710Y336425D01*
X267969Y340626D01*
X267969Y345174D01*
X269709Y349375D01*
X271153Y350818D01*
X271170Y350842D01*
X271193Y350861D01*
X271255Y350955D01*
X271324Y351045D01*
X271334Y351073D01*
X271350Y351097D01*
X271384Y351205D01*
X271425Y351311D01*
X271427Y351340D01*
X271436Y351368D01*
X271439Y351482D01*
X271448Y351594D01*
X271443Y351623D01*
X271443Y351652D01*
X271415Y351762D01*
X271392Y351873D01*
X271379Y351899D01*
X271372Y351927D01*
X271314Y352025D01*
X271261Y352125D01*
X271241Y352147D01*
X271226Y352172D01*
X271144Y352249D01*
X271066Y352331D01*
X271040Y352346D01*
X271019Y352366D01*
X270918Y352418D01*
X270820Y352475D01*
X270792Y352482D01*
X270766Y352496D01*
X270688Y352509D01*
X270545Y352545D01*
X270482Y352543D01*
X270435Y352551D01*
X263684Y352551D01*
X263655Y352547D01*
X263625Y352550D01*
X263514Y352527D01*
X263402Y352511D01*
X263375Y352499D01*
X263347Y352494D01*
X263246Y352441D01*
X263143Y352395D01*
X263120Y352376D01*
X263094Y352363D01*
X263012Y352285D01*
X262926Y352212D01*
X262909Y352187D01*
X262888Y352167D01*
X262831Y352069D01*
X262768Y351975D01*
X262759Y351947D01*
X262744Y351922D01*
X262717Y351812D01*
X262682Y351704D01*
X262682Y351675D01*
X262674Y351646D01*
X262678Y351533D01*
X262675Y351420D01*
X262682Y351391D01*
X262683Y351362D01*
X262718Y351254D01*
X262747Y351145D01*
X262762Y351119D01*
X262771Y351091D01*
X262817Y351027D01*
X262892Y350900D01*
X262938Y350857D01*
X262966Y350818D01*
X263106Y350677D01*
X264211Y349157D01*
X265064Y347483D01*
X265645Y345696D01*
X265766Y344931D01*
X255016Y344931D01*
X254958Y344923D01*
X254900Y344925D01*
X254818Y344903D01*
X254735Y344891D01*
X254681Y344867D01*
X254625Y344853D01*
X254552Y344810D01*
X254475Y344775D01*
X254431Y344737D01*
X254380Y344707D01*
X254323Y344646D01*
X254258Y344591D01*
X254226Y344543D01*
X254186Y344500D01*
X254147Y344425D01*
X254101Y344355D01*
X254083Y344299D01*
X254056Y344247D01*
X254045Y344179D01*
X254015Y344084D01*
X254012Y343984D01*
X254001Y343916D01*
X254001Y342899D01*
X253999Y342899D01*
X253999Y343916D01*
X253991Y343974D01*
X253992Y344032D01*
X253971Y344114D01*
X253959Y344197D01*
X253935Y344251D01*
X253921Y344307D01*
X253878Y344380D01*
X253843Y344457D01*
X253805Y344502D01*
X253775Y344552D01*
X253714Y344610D01*
X253659Y344674D01*
X253611Y344706D01*
X253568Y344746D01*
X253493Y344785D01*
X253423Y344831D01*
X253367Y344849D01*
X253315Y344876D01*
X253247Y344887D01*
X253152Y344917D01*
X253052Y344920D01*
X252984Y344931D01*
X242234Y344931D01*
X242355Y345696D01*
X242936Y347483D01*
X243789Y349157D01*
X244894Y350677D01*
X245034Y350818D01*
X245052Y350842D01*
X245074Y350861D01*
X245137Y350955D01*
X245205Y351045D01*
X245216Y351073D01*
X245232Y351097D01*
X245266Y351205D01*
X245306Y351311D01*
X245309Y351340D01*
X245318Y351368D01*
X245321Y351481D01*
X245330Y351594D01*
X245324Y351623D01*
X245325Y351652D01*
X245296Y351762D01*
X245274Y351873D01*
X245261Y351899D01*
X245253Y351927D01*
X245195Y352025D01*
X245143Y352125D01*
X245123Y352147D01*
X245108Y352172D01*
X245025Y352249D01*
X244947Y352331D01*
X244922Y352346D01*
X244901Y352366D01*
X244800Y352418D01*
X244702Y352475D01*
X244674Y352482D01*
X244647Y352496D01*
X244570Y352509D01*
X244427Y352545D01*
X244364Y352543D01*
X244316Y352551D01*
X237565Y352551D01*
X237536Y352547D01*
X237507Y352550D01*
X237396Y352527D01*
X237284Y352511D01*
X237257Y352499D01*
X237228Y352494D01*
X237128Y352441D01*
X237024Y352395D01*
X237002Y352376D01*
X236976Y352363D01*
X236894Y352285D01*
X236807Y352212D01*
X236791Y352187D01*
X236770Y352167D01*
X236713Y352069D01*
X236650Y351975D01*
X236641Y351947D01*
X236626Y351922D01*
X236598Y351812D01*
X236564Y351704D01*
X236563Y351674D01*
X236556Y351646D01*
X236560Y351533D01*
X236557Y351420D01*
X236564Y351391D01*
X236565Y351362D01*
X236600Y351254D01*
X236628Y351145D01*
X236643Y351119D01*
X236652Y351091D01*
X236698Y351027D01*
X236774Y350900D01*
X236819Y350857D01*
X236847Y350818D01*
X238291Y349375D01*
X240031Y345174D01*
X240031Y340626D01*
X238290Y336425D01*
X235075Y333210D01*
X233291Y332471D01*
X233290Y332470D01*
X233289Y332470D01*
X233170Y332399D01*
X233047Y332326D01*
X233046Y332325D01*
X233044Y332324D01*
X232947Y332220D01*
X232851Y332120D01*
X232851Y332118D01*
X232850Y332117D01*
X232785Y331990D01*
X232721Y331867D01*
X232721Y331865D01*
X232720Y331864D01*
X232718Y331849D01*
X232666Y331588D01*
X232669Y331557D01*
X232665Y331533D01*
X232665Y285804D01*
X232669Y285775D01*
X232666Y285746D01*
X232689Y285635D01*
X232705Y285523D01*
X232717Y285496D01*
X232722Y285467D01*
X232775Y285366D01*
X232821Y285263D01*
X232840Y285241D01*
X232853Y285215D01*
X232931Y285133D01*
X233004Y285046D01*
X233029Y285030D01*
X233049Y285009D01*
X233147Y284952D01*
X233241Y284889D01*
X233269Y284880D01*
X233294Y284865D01*
X233404Y284837D01*
X233512Y284803D01*
X233542Y284802D01*
X233570Y284795D01*
X233683Y284799D01*
X233796Y284796D01*
X233825Y284803D01*
X233854Y284804D01*
X233962Y284839D01*
X234071Y284867D01*
X234097Y284882D01*
X234125Y284891D01*
X234189Y284937D01*
X234316Y285013D01*
X234359Y285058D01*
X234398Y285086D01*
X235617Y286305D01*
X239304Y287833D01*
X243296Y287833D01*
X246983Y286305D01*
X249805Y283483D01*
X251333Y279796D01*
X251333Y275804D01*
X249805Y272117D01*
X246983Y269295D01*
X243296Y267767D01*
X239304Y267767D01*
X235617Y269295D01*
X234398Y270514D01*
X234374Y270531D01*
X234355Y270554D01*
X234261Y270617D01*
X234171Y270685D01*
X234143Y270695D01*
X234119Y270711D01*
X234011Y270746D01*
X233905Y270786D01*
X233876Y270788D01*
X233848Y270797D01*
X233734Y270800D01*
X233622Y270809D01*
X233593Y270804D01*
X233564Y270804D01*
X233454Y270776D01*
X233343Y270754D01*
X233317Y270740D01*
X233289Y270733D01*
X233191Y270675D01*
X233091Y270623D01*
X233069Y270602D01*
X233044Y270587D01*
X232967Y270505D01*
X232885Y270427D01*
X232870Y270401D01*
X232850Y270380D01*
X232798Y270279D01*
X232741Y270181D01*
X232734Y270153D01*
X232720Y270127D01*
X232707Y270050D01*
X232671Y269906D01*
X232673Y269843D01*
X232665Y269796D01*
X232665Y269058D01*
X232677Y268972D01*
X232680Y268884D01*
X232697Y268832D01*
X232705Y268777D01*
X232740Y268697D01*
X232767Y268614D01*
X232795Y268574D01*
X232821Y268517D01*
X232878Y268450D01*
X232902Y268408D01*
X232936Y268377D01*
X232962Y268340D01*
X235701Y265601D01*
X235771Y265549D01*
X235835Y265489D01*
X235884Y265463D01*
X235929Y265430D01*
X236010Y265399D01*
X236088Y265359D01*
X236136Y265351D01*
X236194Y265329D01*
X236342Y265317D01*
X236419Y265304D01*
X237076Y265304D01*
X239904Y262476D01*
X239904Y258478D01*
X237076Y255650D01*
X233078Y255650D01*
X230250Y258478D01*
X230250Y259135D01*
X230238Y259221D01*
X230235Y259309D01*
X230218Y259361D01*
X230210Y259416D01*
X230175Y259496D01*
X230148Y259579D01*
X230120Y259619D01*
X230094Y259676D01*
X229998Y259789D01*
X229953Y259853D01*
X224535Y265270D01*
X224535Y307340D01*
X224527Y307398D01*
X224529Y307456D01*
X224507Y307538D01*
X224495Y307622D01*
X224472Y307675D01*
X224457Y307731D01*
X224414Y307804D01*
X224379Y307881D01*
X224341Y307926D01*
X224312Y307976D01*
X224250Y308034D01*
X224196Y308098D01*
X224147Y308130D01*
X224104Y308170D01*
X224029Y308209D01*
X223959Y308256D01*
X223903Y308273D01*
X223851Y308300D01*
X223783Y308311D01*
X223688Y308341D01*
X223588Y308344D01*
X223520Y308355D01*
X157066Y308355D01*
X154388Y311034D01*
X143128Y322293D01*
X143128Y327958D01*
X143121Y328011D01*
X143122Y328045D01*
X143115Y328069D01*
X143113Y328132D01*
X143096Y328184D01*
X143088Y328239D01*
X143053Y328319D01*
X143026Y328402D01*
X142998Y328441D01*
X142972Y328499D01*
X142876Y328612D01*
X142831Y328675D01*
X141858Y329648D01*
X141858Y343452D01*
X143339Y344933D01*
X151047Y344933D01*
X151682Y344297D01*
X151729Y344262D01*
X151769Y344220D01*
X151842Y344177D01*
X151909Y344127D01*
X151964Y344106D01*
X152014Y344076D01*
X152096Y344055D01*
X152175Y344025D01*
X152233Y344021D01*
X152290Y344006D01*
X152374Y344009D01*
X152458Y344002D01*
X152516Y344013D01*
X152574Y344015D01*
X152654Y344041D01*
X152737Y344058D01*
X152789Y344085D01*
X152845Y344103D01*
X152901Y344143D01*
X152989Y344189D01*
X153062Y344257D01*
X153118Y344297D01*
X153753Y344933D01*
X161461Y344933D01*
X162942Y343452D01*
X162942Y340614D01*
X162950Y340556D01*
X162948Y340498D01*
X162970Y340416D01*
X162982Y340332D01*
X163005Y340279D01*
X163020Y340223D01*
X163063Y340150D01*
X163098Y340073D01*
X163136Y340028D01*
X163165Y339978D01*
X163227Y339920D01*
X163281Y339856D01*
X163330Y339824D01*
X163373Y339784D01*
X163448Y339745D01*
X163518Y339698D01*
X163574Y339681D01*
X163626Y339654D01*
X163694Y339643D01*
X163789Y339613D01*
X163889Y339610D01*
X163957Y339599D01*
X171570Y339599D01*
X179579Y331590D01*
X179579Y328048D01*
X179591Y327961D01*
X179594Y327874D01*
X179611Y327821D01*
X179619Y327766D01*
X179654Y327687D01*
X179681Y327603D01*
X179709Y327564D01*
X179735Y327507D01*
X179831Y327394D01*
X179876Y327330D01*
X181357Y325849D01*
X181357Y321851D01*
X178529Y319023D01*
X174531Y319023D01*
X171703Y321851D01*
X171703Y325849D01*
X173184Y327330D01*
X173236Y327400D01*
X173296Y327464D01*
X173322Y327513D01*
X173355Y327557D01*
X173386Y327639D01*
X173426Y327717D01*
X173434Y327764D01*
X173456Y327823D01*
X173468Y327970D01*
X173481Y328048D01*
X173481Y328644D01*
X173469Y328730D01*
X173466Y328818D01*
X173449Y328870D01*
X173441Y328925D01*
X173406Y329005D01*
X173379Y329088D01*
X173351Y329127D01*
X173325Y329185D01*
X173229Y329298D01*
X173184Y329362D01*
X169342Y333204D01*
X169272Y333256D01*
X169208Y333316D01*
X169158Y333342D01*
X169114Y333375D01*
X169033Y333406D01*
X168955Y333446D01*
X168907Y333454D01*
X168849Y333476D01*
X168701Y333488D01*
X168624Y333501D01*
X163957Y333501D01*
X163899Y333493D01*
X163841Y333495D01*
X163759Y333473D01*
X163675Y333461D01*
X163622Y333438D01*
X163566Y333423D01*
X163493Y333380D01*
X163416Y333345D01*
X163371Y333307D01*
X163321Y333278D01*
X163263Y333216D01*
X163199Y333162D01*
X163167Y333113D01*
X163127Y333070D01*
X163088Y332995D01*
X163041Y332925D01*
X163024Y332869D01*
X162997Y332817D01*
X162986Y332749D01*
X162956Y332654D01*
X162953Y332554D01*
X162942Y332486D01*
X162942Y329648D01*
X161461Y328167D01*
X153753Y328167D01*
X153118Y328803D01*
X153071Y328838D01*
X153031Y328880D01*
X152958Y328923D01*
X152891Y328973D01*
X152836Y328994D01*
X152786Y329024D01*
X152704Y329045D01*
X152625Y329075D01*
X152567Y329079D01*
X152510Y329094D01*
X152426Y329091D01*
X152342Y329098D01*
X152284Y329087D01*
X152226Y329085D01*
X152146Y329059D01*
X152063Y329042D01*
X152011Y329015D01*
X151955Y328997D01*
X151899Y328957D01*
X151811Y328911D01*
X151738Y328843D01*
X151682Y328803D01*
X151555Y328675D01*
X151503Y328606D01*
X151443Y328542D01*
X151417Y328492D01*
X151384Y328448D01*
X151353Y328367D01*
X151313Y328289D01*
X151305Y328241D01*
X151283Y328183D01*
X151277Y328114D01*
X151272Y328097D01*
X151270Y328031D01*
X151258Y327958D01*
X151258Y326081D01*
X151270Y325995D01*
X151273Y325907D01*
X151290Y325855D01*
X151298Y325800D01*
X151333Y325720D01*
X151360Y325637D01*
X151388Y325597D01*
X151414Y325540D01*
X151510Y325427D01*
X151555Y325363D01*
X160136Y316782D01*
X160206Y316730D01*
X160270Y316670D01*
X160319Y316644D01*
X160363Y316611D01*
X160445Y316580D01*
X160523Y316540D01*
X160571Y316532D01*
X160629Y316510D01*
X160777Y316498D01*
X160854Y316485D01*
X223520Y316485D01*
X223578Y316493D01*
X223636Y316491D01*
X223718Y316513D01*
X223802Y316525D01*
X223855Y316548D01*
X223911Y316563D01*
X223984Y316606D01*
X224061Y316641D01*
X224106Y316679D01*
X224156Y316708D01*
X224214Y316770D01*
X224278Y316824D01*
X224310Y316873D01*
X224350Y316916D01*
X224389Y316991D01*
X224436Y317061D01*
X224453Y317117D01*
X224480Y317169D01*
X224491Y317237D01*
X224521Y317332D01*
X224524Y317432D01*
X224535Y317500D01*
X224535Y331533D01*
X224535Y331534D01*
X224535Y331536D01*
X224515Y331676D01*
X224495Y331814D01*
X224495Y331816D01*
X224495Y331817D01*
X224438Y331943D01*
X224379Y332074D01*
X224378Y332075D01*
X224377Y332076D01*
X224286Y332183D01*
X224196Y332291D01*
X224194Y332292D01*
X224193Y332293D01*
X224180Y332301D01*
X223959Y332448D01*
X223930Y332458D01*
X223909Y332471D01*
X222125Y333210D01*
X218910Y336425D01*
X217169Y340626D01*
X217169Y345174D01*
X218909Y349375D01*
X220353Y350818D01*
X220370Y350842D01*
X220393Y350861D01*
X220455Y350955D01*
X220524Y351045D01*
X220534Y351073D01*
X220550Y351097D01*
X220584Y351205D01*
X220625Y351311D01*
X220627Y351340D01*
X220636Y351368D01*
X220639Y351482D01*
X220648Y351594D01*
X220643Y351623D01*
X220643Y351652D01*
X220615Y351762D01*
X220592Y351873D01*
X220579Y351899D01*
X220572Y351927D01*
X220514Y352025D01*
X220461Y352125D01*
X220441Y352147D01*
X220426Y352172D01*
X220344Y352249D01*
X220266Y352331D01*
X220240Y352346D01*
X220219Y352366D01*
X220118Y352418D01*
X220020Y352475D01*
X219992Y352482D01*
X219966Y352496D01*
X219888Y352509D01*
X219745Y352545D01*
X219682Y352543D01*
X219635Y352551D01*
X32875Y352551D01*
X32768Y352536D01*
X32661Y352528D01*
X32628Y352516D01*
X32594Y352511D01*
X32495Y352467D01*
X32394Y352430D01*
X32366Y352409D01*
X32334Y352395D01*
X32252Y352325D01*
X32165Y352262D01*
X32144Y352234D01*
X32117Y352212D01*
X32058Y352122D01*
X31992Y352036D01*
X31979Y352004D01*
X31960Y351975D01*
X31927Y351872D01*
X31888Y351772D01*
X31884Y351737D01*
X31874Y351704D01*
X31871Y351596D01*
X31861Y351489D01*
X31867Y351454D01*
X31867Y351420D01*
X31894Y351315D01*
X31914Y351209D01*
X31930Y351178D01*
X31938Y351145D01*
X31993Y351052D01*
X32042Y350956D01*
X32066Y350930D01*
X32084Y350900D01*
X32162Y350826D01*
X32236Y350747D01*
X32263Y350732D01*
X32291Y350706D01*
X32482Y350608D01*
X32528Y350582D01*
X36362Y349187D01*
X42195Y344292D01*
X46002Y337698D01*
X47324Y330200D01*
X46002Y322702D01*
X42195Y316108D01*
X36362Y311213D01*
X29207Y308609D01*
X21593Y308609D01*
X14438Y311213D01*
X8605Y316108D01*
X4943Y322451D01*
X4931Y322466D01*
X4923Y322484D01*
X4844Y322578D01*
X4768Y322675D01*
X4752Y322686D01*
X4739Y322701D01*
X4637Y322769D01*
X4538Y322841D01*
X4519Y322848D01*
X4503Y322859D01*
X4386Y322896D01*
X4270Y322937D01*
X4250Y322939D01*
X4232Y322944D01*
X4109Y322948D01*
X3986Y322955D01*
X3967Y322951D01*
X3948Y322952D01*
X3829Y322921D01*
X3709Y322894D01*
X3691Y322885D01*
X3673Y322880D01*
X3567Y322817D01*
X3459Y322758D01*
X3445Y322745D01*
X3428Y322735D01*
X3344Y322645D01*
X3257Y322559D01*
X3247Y322542D01*
X3234Y322527D01*
X3178Y322418D01*
X3118Y322311D01*
X3113Y322292D01*
X3104Y322274D01*
X3092Y322202D01*
X3053Y322034D01*
X3055Y321983D01*
X3049Y321943D01*
X3049Y205815D01*
X3053Y205786D01*
X3050Y205757D01*
X3073Y205646D01*
X3089Y205534D01*
X3101Y205507D01*
X3106Y205478D01*
X3159Y205378D01*
X3205Y205274D01*
X3224Y205252D01*
X3237Y205226D01*
X3315Y205144D01*
X3388Y205057D01*
X3413Y205041D01*
X3433Y205020D01*
X3531Y204963D01*
X3625Y204900D01*
X3653Y204891D01*
X3678Y204876D01*
X3788Y204848D01*
X3896Y204814D01*
X3926Y204813D01*
X3954Y204806D01*
X4067Y204810D01*
X4180Y204807D01*
X4209Y204814D01*
X4238Y204815D01*
X4346Y204850D01*
X4455Y204878D01*
X4481Y204893D01*
X4509Y204902D01*
X4573Y204948D01*
X4700Y205024D01*
X4743Y205069D01*
X4782Y205097D01*
X6225Y206541D01*
X8009Y207279D01*
X8010Y207280D01*
X8011Y207280D01*
X8129Y207350D01*
X8253Y207424D01*
X8254Y207425D01*
X8256Y207426D01*
X8353Y207530D01*
X8449Y207630D01*
X8449Y207632D01*
X8450Y207633D01*
X8515Y207759D01*
X8579Y207883D01*
X8579Y207885D01*
X8580Y207886D01*
X8582Y207901D01*
X8634Y208162D01*
X8631Y208193D01*
X8635Y208217D01*
X8635Y260978D01*
X8628Y261027D01*
X8629Y261039D01*
X8625Y261054D01*
X8623Y261065D01*
X8620Y261152D01*
X8603Y261205D01*
X8595Y261260D01*
X8560Y261339D01*
X8533Y261423D01*
X8505Y261462D01*
X8479Y261519D01*
X8383Y261632D01*
X8338Y261696D01*
X7873Y262161D01*
X7873Y266159D01*
X10701Y268987D01*
X14699Y268987D01*
X17527Y266159D01*
X17527Y262161D01*
X17062Y261696D01*
X17010Y261626D01*
X16950Y261562D01*
X16924Y261513D01*
X16891Y261469D01*
X16860Y261387D01*
X16820Y261309D01*
X16812Y261262D01*
X16790Y261203D01*
X16781Y261098D01*
X16779Y261090D01*
X16778Y261058D01*
X16778Y261056D01*
X16765Y260978D01*
X16765Y208217D01*
X16765Y208216D01*
X16765Y208214D01*
X16785Y208074D01*
X16805Y207936D01*
X16805Y207934D01*
X16805Y207933D01*
X16863Y207805D01*
X16921Y207676D01*
X16922Y207675D01*
X16923Y207674D01*
X17014Y207567D01*
X17104Y207459D01*
X17106Y207458D01*
X17107Y207457D01*
X17120Y207449D01*
X17341Y207302D01*
X17370Y207292D01*
X17391Y207279D01*
X19175Y206540D01*
X22390Y203325D01*
X24131Y199124D01*
X24131Y194576D01*
X22390Y190375D01*
X19175Y187160D01*
X14974Y185419D01*
X10426Y185419D01*
X6225Y187159D01*
X4782Y188603D01*
X4758Y188620D01*
X4739Y188643D01*
X4645Y188705D01*
X4555Y188774D01*
X4527Y188784D01*
X4503Y188800D01*
X4395Y188834D01*
X4289Y188875D01*
X4260Y188877D01*
X4232Y188886D01*
X4118Y188889D01*
X4006Y188898D01*
X3977Y188893D01*
X3948Y188893D01*
X3838Y188865D01*
X3727Y188842D01*
X3701Y188829D01*
X3673Y188822D01*
X3575Y188764D01*
X3475Y188711D01*
X3453Y188691D01*
X3428Y188676D01*
X3351Y188594D01*
X3269Y188516D01*
X3254Y188490D01*
X3234Y188469D01*
X3182Y188368D01*
X3125Y188270D01*
X3118Y188242D01*
X3104Y188216D01*
X3091Y188138D01*
X3055Y187995D01*
X3057Y187932D01*
X3049Y187885D01*
X3049Y181134D01*
X3053Y181105D01*
X3050Y181075D01*
X3073Y180964D01*
X3089Y180852D01*
X3101Y180825D01*
X3106Y180797D01*
X3159Y180696D01*
X3205Y180593D01*
X3224Y180570D01*
X3237Y180544D01*
X3315Y180462D01*
X3388Y180376D01*
X3413Y180359D01*
X3433Y180338D01*
X3531Y180281D01*
X3625Y180218D01*
X3653Y180209D01*
X3678Y180194D01*
X3788Y180167D01*
X3896Y180132D01*
X3925Y180132D01*
X3954Y180124D01*
X4067Y180128D01*
X4180Y180125D01*
X4209Y180132D01*
X4238Y180133D01*
X4346Y180168D01*
X4455Y180197D01*
X4481Y180212D01*
X4509Y180221D01*
X4573Y180267D01*
X4700Y180342D01*
X4743Y180388D01*
X4782Y180416D01*
X4923Y180556D01*
X6443Y181661D01*
X8117Y182514D01*
X9904Y183095D01*
X10669Y183216D01*
X10669Y172466D01*
X10677Y172408D01*
X10675Y172350D01*
X10697Y172268D01*
X10709Y172185D01*
X10733Y172131D01*
X10747Y172075D01*
X10790Y172002D01*
X10825Y171925D01*
X10863Y171881D01*
X10893Y171830D01*
X10954Y171773D01*
X11009Y171708D01*
X11057Y171676D01*
X11100Y171636D01*
X11175Y171597D01*
X11245Y171551D01*
X11301Y171533D01*
X11353Y171506D01*
X11421Y171495D01*
X11516Y171465D01*
X11616Y171462D01*
X11684Y171451D01*
X12701Y171451D01*
X12701Y171449D01*
X11684Y171449D01*
X11626Y171441D01*
X11568Y171442D01*
X11486Y171421D01*
X11403Y171409D01*
X11349Y171385D01*
X11293Y171371D01*
X11220Y171328D01*
X11143Y171293D01*
X11098Y171255D01*
X11048Y171225D01*
X10990Y171164D01*
X10926Y171109D01*
X10894Y171061D01*
X10854Y171018D01*
X10815Y170943D01*
X10769Y170873D01*
X10751Y170817D01*
X10724Y170765D01*
X10713Y170697D01*
X10683Y170602D01*
X10680Y170502D01*
X10669Y170434D01*
X10669Y159684D01*
X9904Y159805D01*
X8117Y160386D01*
X6443Y161239D01*
X4923Y162344D01*
X4782Y162484D01*
X4758Y162502D01*
X4739Y162524D01*
X4645Y162587D01*
X4555Y162655D01*
X4527Y162666D01*
X4503Y162682D01*
X4395Y162716D01*
X4289Y162756D01*
X4260Y162759D01*
X4232Y162768D01*
X4119Y162771D01*
X4006Y162780D01*
X3977Y162774D01*
X3948Y162775D01*
X3838Y162746D01*
X3727Y162724D01*
X3701Y162711D01*
X3673Y162703D01*
X3575Y162645D01*
X3475Y162593D01*
X3453Y162573D01*
X3428Y162558D01*
X3351Y162475D01*
X3269Y162397D01*
X3254Y162372D01*
X3234Y162351D01*
X3182Y162250D01*
X3125Y162152D01*
X3118Y162124D01*
X3104Y162097D01*
X3091Y162020D01*
X3055Y161877D01*
X3057Y161814D01*
X3049Y161766D01*
X3049Y156931D01*
X3061Y156845D01*
X3063Y156759D01*
X3081Y156705D01*
X3089Y156649D01*
X3124Y156570D01*
X3150Y156488D01*
X3182Y156441D01*
X3205Y156390D01*
X3261Y156324D01*
X3309Y156252D01*
X3352Y156216D01*
X3388Y156173D01*
X3461Y156125D01*
X3527Y156069D01*
X3578Y156047D01*
X3625Y156015D01*
X3708Y155989D01*
X3787Y155954D01*
X3843Y155947D01*
X3896Y155930D01*
X3983Y155927D01*
X4068Y155916D01*
X4117Y155924D01*
X4180Y155922D01*
X4322Y155959D01*
X4399Y155973D01*
X5093Y156215D01*
X5226Y156284D01*
X5298Y156314D01*
X5606Y156508D01*
X5891Y156687D01*
X6587Y156765D01*
X6732Y156802D01*
X6809Y156816D01*
X7315Y156993D01*
X7351Y156987D01*
X7445Y156957D01*
X7546Y156954D01*
X7614Y156943D01*
X8106Y156943D01*
X8170Y156952D01*
X8220Y156949D01*
X8955Y157032D01*
X8976Y157020D01*
X9006Y157012D01*
X9033Y156998D01*
X9110Y156985D01*
X9251Y156949D01*
X9315Y156951D01*
X9364Y156943D01*
X13196Y156943D01*
X13226Y156947D01*
X13257Y156945D01*
X13367Y156967D01*
X13477Y156983D01*
X13505Y156995D01*
X13536Y157001D01*
X13593Y157033D01*
X14340Y156949D01*
X14405Y156951D01*
X14454Y156943D01*
X14946Y156943D01*
X15005Y156951D01*
X15064Y156950D01*
X15130Y156969D01*
X15227Y156983D01*
X15248Y156992D01*
X15751Y156816D01*
X15897Y156787D01*
X15973Y156765D01*
X16669Y156687D01*
X17262Y156314D01*
X17398Y156253D01*
X17467Y156215D01*
X18128Y155984D01*
X18623Y155489D01*
X18742Y155399D01*
X18801Y155347D01*
X19394Y154974D01*
X19767Y154381D01*
X19863Y154267D01*
X19909Y154203D01*
X20404Y153708D01*
X20635Y153047D01*
X20704Y152914D01*
X20734Y152842D01*
X21107Y152249D01*
X21185Y151553D01*
X21222Y151408D01*
X21236Y151331D01*
X21467Y150670D01*
X21389Y149974D01*
X21393Y149824D01*
X21389Y149746D01*
X21467Y149050D01*
X21236Y148389D01*
X21207Y148243D01*
X21185Y148167D01*
X21107Y147471D01*
X20734Y146878D01*
X20673Y146742D01*
X20635Y146673D01*
X20404Y146012D01*
X19909Y145517D01*
X19819Y145397D01*
X19767Y145339D01*
X19394Y144746D01*
X18801Y144373D01*
X18687Y144277D01*
X18623Y144231D01*
X18128Y143736D01*
X17467Y143505D01*
X17334Y143436D01*
X17262Y143406D01*
X16669Y143033D01*
X15973Y142955D01*
X15828Y142918D01*
X15751Y142904D01*
X15245Y142727D01*
X15209Y142733D01*
X15115Y142763D01*
X15014Y142766D01*
X14946Y142777D01*
X14454Y142777D01*
X14390Y142768D01*
X14340Y142771D01*
X13605Y142688D01*
X13584Y142700D01*
X13554Y142708D01*
X13527Y142722D01*
X13450Y142735D01*
X13309Y142771D01*
X13245Y142769D01*
X13196Y142777D01*
X9364Y142777D01*
X9334Y142773D01*
X9303Y142775D01*
X9193Y142753D01*
X9083Y142737D01*
X9055Y142725D01*
X9024Y142719D01*
X8967Y142687D01*
X8220Y142771D01*
X8155Y142769D01*
X8106Y142777D01*
X7614Y142777D01*
X7555Y142769D01*
X7496Y142770D01*
X7430Y142751D01*
X7333Y142737D01*
X7312Y142728D01*
X6809Y142904D01*
X6663Y142933D01*
X6587Y142955D01*
X5891Y143033D01*
X5298Y143406D01*
X5162Y143467D01*
X5093Y143505D01*
X4399Y143747D01*
X4314Y143764D01*
X4232Y143790D01*
X4176Y143792D01*
X4120Y143803D01*
X4034Y143795D01*
X3948Y143798D01*
X3893Y143784D01*
X3837Y143779D01*
X3756Y143748D01*
X3673Y143726D01*
X3624Y143697D01*
X3572Y143677D01*
X3503Y143625D01*
X3428Y143581D01*
X3390Y143540D01*
X3345Y143506D01*
X3293Y143436D01*
X3234Y143373D01*
X3208Y143323D01*
X3174Y143278D01*
X3144Y143197D01*
X3104Y143120D01*
X3096Y143072D01*
X3074Y143012D01*
X3062Y142867D01*
X3049Y142789D01*
X3049Y70571D01*
X3061Y70485D01*
X3063Y70399D01*
X3081Y70345D01*
X3089Y70289D01*
X3124Y70210D01*
X3150Y70128D01*
X3182Y70081D01*
X3205Y70030D01*
X3261Y69964D01*
X3309Y69892D01*
X3352Y69856D01*
X3388Y69813D01*
X3461Y69765D01*
X3527Y69709D01*
X3578Y69687D01*
X3625Y69655D01*
X3708Y69629D01*
X3787Y69594D01*
X3843Y69587D01*
X3896Y69570D01*
X3983Y69567D01*
X4068Y69556D01*
X4117Y69564D01*
X4180Y69562D01*
X4322Y69599D01*
X4399Y69613D01*
X5093Y69855D01*
X5226Y69924D01*
X5298Y69954D01*
X5707Y70211D01*
X5708Y70211D01*
X5891Y70327D01*
X6587Y70405D01*
X6732Y70442D01*
X6809Y70456D01*
X7315Y70633D01*
X7351Y70627D01*
X7445Y70597D01*
X7546Y70594D01*
X7614Y70583D01*
X8106Y70583D01*
X8170Y70592D01*
X8220Y70589D01*
X8955Y70672D01*
X8976Y70660D01*
X9006Y70652D01*
X9033Y70638D01*
X9110Y70625D01*
X9251Y70589D01*
X9315Y70591D01*
X9364Y70583D01*
X13196Y70583D01*
X13226Y70587D01*
X13257Y70585D01*
X13367Y70607D01*
X13477Y70623D01*
X13505Y70635D01*
X13536Y70641D01*
X13593Y70673D01*
X14340Y70589D01*
X14405Y70591D01*
X14454Y70583D01*
X14946Y70583D01*
X15005Y70591D01*
X15064Y70590D01*
X15130Y70609D01*
X15227Y70623D01*
X15248Y70632D01*
X15751Y70456D01*
X15897Y70427D01*
X15973Y70405D01*
X16669Y70327D01*
X17262Y69954D01*
X17398Y69893D01*
X17467Y69855D01*
X18128Y69624D01*
X18623Y69129D01*
X18742Y69039D01*
X18801Y68987D01*
X19394Y68614D01*
X19767Y68021D01*
X19863Y67907D01*
X19909Y67843D01*
X20404Y67348D01*
X20635Y66687D01*
X20659Y66642D01*
X20665Y66618D01*
X20707Y66548D01*
X20734Y66482D01*
X21107Y65889D01*
X21185Y65193D01*
X21222Y65048D01*
X21236Y64971D01*
X21467Y64310D01*
X21389Y63614D01*
X21393Y63464D01*
X21389Y63386D01*
X21467Y62690D01*
X21236Y62029D01*
X21207Y61883D01*
X21185Y61807D01*
X21107Y61111D01*
X20734Y60518D01*
X20673Y60382D01*
X20635Y60313D01*
X20404Y59652D01*
X19909Y59157D01*
X19819Y59038D01*
X19767Y58979D01*
X19394Y58386D01*
X18801Y58013D01*
X18687Y57917D01*
X18623Y57871D01*
X18128Y57376D01*
X17467Y57145D01*
X17334Y57076D01*
X17262Y57046D01*
X16713Y56701D01*
X16669Y56673D01*
X15973Y56595D01*
X15828Y56558D01*
X15751Y56544D01*
X15245Y56367D01*
X15209Y56373D01*
X15115Y56403D01*
X15014Y56406D01*
X14946Y56417D01*
X14454Y56417D01*
X14390Y56408D01*
X14340Y56411D01*
X13605Y56328D01*
X13584Y56340D01*
X13554Y56348D01*
X13527Y56362D01*
X13450Y56375D01*
X13309Y56411D01*
X13245Y56409D01*
X13196Y56417D01*
X9364Y56417D01*
X9334Y56413D01*
X9303Y56415D01*
X9193Y56393D01*
X9083Y56377D01*
X9055Y56365D01*
X9024Y56359D01*
X8967Y56327D01*
X8220Y56411D01*
X8155Y56409D01*
X8106Y56417D01*
X7614Y56417D01*
X7555Y56409D01*
X7496Y56410D01*
X7430Y56391D01*
X7333Y56377D01*
X7312Y56368D01*
X6809Y56544D01*
X6663Y56573D01*
X6587Y56595D01*
X5891Y56673D01*
X5298Y57046D01*
X5162Y57107D01*
X5093Y57145D01*
X4399Y57387D01*
X4314Y57404D01*
X4232Y57430D01*
X4176Y57432D01*
X4120Y57443D01*
X4034Y57435D01*
X3948Y57438D01*
X3893Y57424D01*
X3837Y57419D01*
X3756Y57388D01*
X3673Y57366D01*
X3624Y57337D01*
X3572Y57317D01*
X3503Y57265D01*
X3428Y57221D01*
X3390Y57180D01*
X3345Y57146D01*
X3293Y57076D01*
X3234Y57013D01*
X3208Y56963D01*
X3174Y56918D01*
X3144Y56837D01*
X3104Y56760D01*
X3096Y56712D01*
X3074Y56652D01*
X3062Y56507D01*
X3049Y56429D01*
X3049Y33657D01*
X3051Y33637D01*
X3049Y33618D01*
X3071Y33497D01*
X3089Y33375D01*
X3097Y33358D01*
X3100Y33338D01*
X3155Y33228D01*
X3205Y33116D01*
X3217Y33101D01*
X3226Y33083D01*
X3309Y32993D01*
X3388Y32899D01*
X3405Y32888D01*
X3418Y32874D01*
X3523Y32809D01*
X3625Y32741D01*
X3644Y32735D01*
X3660Y32725D01*
X3779Y32693D01*
X3896Y32656D01*
X3916Y32655D01*
X3935Y32650D01*
X4057Y32651D01*
X4180Y32648D01*
X4199Y32653D01*
X4219Y32653D01*
X4337Y32689D01*
X4455Y32720D01*
X4472Y32730D01*
X4491Y32736D01*
X4594Y32803D01*
X4700Y32865D01*
X4713Y32880D01*
X4730Y32890D01*
X4776Y32947D01*
X4894Y33073D01*
X4918Y33118D01*
X4943Y33149D01*
X8605Y39492D01*
X14438Y44387D01*
X21593Y46991D01*
X29207Y46991D01*
X36362Y44387D01*
X42195Y39492D01*
X46002Y32898D01*
X47324Y25400D01*
X46002Y17902D01*
X42195Y11308D01*
X36362Y6413D01*
X32528Y5018D01*
X32433Y4967D01*
X32334Y4923D01*
X32308Y4901D01*
X32277Y4884D01*
X32200Y4809D01*
X32117Y4739D01*
X32098Y4711D01*
X32073Y4686D01*
X32019Y4593D01*
X31960Y4503D01*
X31949Y4470D01*
X31932Y4440D01*
X31906Y4335D01*
X31874Y4232D01*
X31873Y4197D01*
X31865Y4163D01*
X31869Y4056D01*
X31867Y3948D01*
X31875Y3914D01*
X31877Y3879D01*
X31911Y3777D01*
X31938Y3673D01*
X31956Y3643D01*
X31967Y3610D01*
X32029Y3521D01*
X32084Y3428D01*
X32109Y3404D01*
X32129Y3376D01*
X32212Y3307D01*
X32291Y3234D01*
X32322Y3218D01*
X32349Y3196D01*
X32448Y3153D01*
X32544Y3104D01*
X32575Y3099D01*
X32610Y3084D01*
X32823Y3058D01*
X32875Y3049D01*
X58484Y3049D01*
X58541Y3057D01*
G37*
%LPC*%
G36*
X594901Y10413D02*
X594901Y10413D01*
X594436Y10878D01*
X594366Y10930D01*
X594302Y10990D01*
X594253Y11016D01*
X594209Y11049D01*
X594127Y11080D01*
X594049Y11120D01*
X594002Y11128D01*
X593943Y11150D01*
X593796Y11162D01*
X593718Y11175D01*
X544416Y11175D01*
X522985Y32606D01*
X522985Y48696D01*
X522973Y48782D01*
X522970Y48870D01*
X522953Y48922D01*
X522945Y48977D01*
X522910Y49057D01*
X522883Y49140D01*
X522855Y49180D01*
X522829Y49237D01*
X522738Y49344D01*
X522722Y49371D01*
X522711Y49382D01*
X522688Y49414D01*
X502804Y69298D01*
X502734Y69350D01*
X502670Y69410D01*
X502621Y69436D01*
X502576Y69469D01*
X502495Y69500D01*
X502417Y69540D01*
X502369Y69548D01*
X502311Y69570D01*
X502163Y69582D01*
X502086Y69595D01*
X407256Y69595D01*
X390663Y86189D01*
X390593Y86241D01*
X390529Y86301D01*
X390480Y86327D01*
X390435Y86360D01*
X390354Y86391D01*
X390276Y86431D01*
X390228Y86439D01*
X390170Y86461D01*
X390022Y86473D01*
X389945Y86486D01*
X385071Y86486D01*
X385042Y86482D01*
X385012Y86485D01*
X384901Y86462D01*
X384789Y86446D01*
X384763Y86434D01*
X384734Y86429D01*
X384633Y86376D01*
X384530Y86330D01*
X384507Y86311D01*
X384481Y86298D01*
X384399Y86220D01*
X384313Y86147D01*
X384297Y86122D01*
X384275Y86102D01*
X384218Y86004D01*
X384155Y85910D01*
X384146Y85882D01*
X384132Y85857D01*
X384104Y85747D01*
X384069Y85639D01*
X384069Y85609D01*
X384062Y85581D01*
X384065Y85468D01*
X384062Y85355D01*
X384070Y85326D01*
X384071Y85297D01*
X384105Y85189D01*
X384134Y85080D01*
X384149Y85054D01*
X384158Y85026D01*
X384204Y84962D01*
X384279Y84835D01*
X384325Y84792D01*
X384353Y84753D01*
X385657Y83449D01*
X385657Y79451D01*
X382829Y76623D01*
X378831Y76623D01*
X377398Y78056D01*
X377328Y78109D01*
X377264Y78169D01*
X377214Y78194D01*
X377170Y78227D01*
X377089Y78258D01*
X377011Y78298D01*
X376963Y78306D01*
X376905Y78329D01*
X376757Y78341D01*
X376680Y78354D01*
X283983Y78354D01*
X283897Y78342D01*
X283809Y78339D01*
X283757Y78322D01*
X283702Y78314D01*
X283622Y78278D01*
X283539Y78251D01*
X283500Y78223D01*
X283442Y78198D01*
X283329Y78102D01*
X283265Y78056D01*
X282801Y77592D01*
X278802Y77592D01*
X275975Y80419D01*
X275975Y84418D01*
X276310Y84753D01*
X276328Y84777D01*
X276350Y84796D01*
X276413Y84890D01*
X276481Y84980D01*
X276491Y85008D01*
X276508Y85032D01*
X276542Y85140D01*
X276582Y85246D01*
X276585Y85275D01*
X276594Y85303D01*
X276596Y85417D01*
X276606Y85529D01*
X276600Y85558D01*
X276601Y85587D01*
X276572Y85697D01*
X276550Y85808D01*
X276536Y85834D01*
X276529Y85862D01*
X276471Y85959D01*
X276419Y86060D01*
X276399Y86082D01*
X276384Y86107D01*
X276301Y86184D01*
X276223Y86266D01*
X276198Y86281D01*
X276176Y86301D01*
X276075Y86353D01*
X275978Y86410D01*
X275949Y86417D01*
X275923Y86431D01*
X275846Y86444D01*
X275702Y86480D01*
X275640Y86478D01*
X275592Y86486D01*
X245117Y86486D01*
X245032Y86474D01*
X244946Y86472D01*
X244892Y86454D01*
X244836Y86446D01*
X244758Y86411D01*
X244676Y86385D01*
X244628Y86353D01*
X244577Y86330D01*
X244511Y86275D01*
X244440Y86227D01*
X244403Y86183D01*
X244360Y86147D01*
X244312Y86075D01*
X244257Y86009D01*
X244234Y85957D01*
X244202Y85910D01*
X244176Y85828D01*
X244141Y85749D01*
X244133Y85693D01*
X244116Y85639D01*
X244114Y85553D01*
X244102Y85468D01*
X244110Y85412D01*
X244109Y85355D01*
X244131Y85272D01*
X244143Y85186D01*
X244166Y85135D01*
X244181Y85080D01*
X244225Y85006D01*
X244260Y84927D01*
X244297Y84884D01*
X244326Y84835D01*
X244389Y84776D01*
X244444Y84711D01*
X244486Y84685D01*
X244533Y84641D01*
X244662Y84575D01*
X244729Y84533D01*
X245567Y84186D01*
X247686Y82067D01*
X248833Y79298D01*
X248833Y76302D01*
X247686Y73533D01*
X245567Y71414D01*
X242798Y70267D01*
X239802Y70267D01*
X237033Y71414D01*
X234914Y73533D01*
X233767Y76302D01*
X233767Y79298D01*
X234914Y82067D01*
X237033Y84186D01*
X237871Y84533D01*
X237945Y84577D01*
X238023Y84612D01*
X238067Y84649D01*
X238116Y84678D01*
X238175Y84740D01*
X238240Y84796D01*
X238272Y84843D01*
X238311Y84884D01*
X238350Y84961D01*
X238398Y85032D01*
X238415Y85086D01*
X238441Y85137D01*
X238458Y85221D01*
X238484Y85303D01*
X238485Y85360D01*
X238496Y85416D01*
X238489Y85501D01*
X238491Y85587D01*
X238477Y85642D01*
X238472Y85699D01*
X238441Y85780D01*
X238419Y85862D01*
X238390Y85911D01*
X238370Y85964D01*
X238318Y86033D01*
X238274Y86107D01*
X238233Y86146D01*
X238198Y86191D01*
X238129Y86243D01*
X238067Y86301D01*
X238016Y86327D01*
X237971Y86361D01*
X237890Y86392D01*
X237814Y86431D01*
X237765Y86439D01*
X237705Y86462D01*
X237560Y86473D01*
X237483Y86486D01*
X236593Y86486D01*
X236291Y86789D01*
X236244Y86824D01*
X236204Y86866D01*
X236131Y86909D01*
X236063Y86960D01*
X236009Y86981D01*
X235958Y87010D01*
X235877Y87031D01*
X235798Y87061D01*
X235739Y87066D01*
X235683Y87080D01*
X235599Y87078D01*
X235514Y87085D01*
X235457Y87073D01*
X235399Y87071D01*
X235318Y87045D01*
X235236Y87029D01*
X235184Y87002D01*
X235128Y86984D01*
X235072Y86944D01*
X234983Y86898D01*
X234911Y86829D01*
X234855Y86789D01*
X232004Y83938D01*
X228006Y83938D01*
X227406Y84538D01*
X227336Y84590D01*
X227272Y84650D01*
X227223Y84676D01*
X227179Y84709D01*
X227097Y84740D01*
X227019Y84780D01*
X226972Y84788D01*
X226913Y84810D01*
X226766Y84822D01*
X226688Y84835D01*
X215464Y84835D01*
X215378Y84823D01*
X215290Y84820D01*
X215238Y84803D01*
X215183Y84795D01*
X215103Y84760D01*
X215020Y84733D01*
X214980Y84705D01*
X214923Y84679D01*
X214810Y84583D01*
X214746Y84538D01*
X192184Y61975D01*
X115507Y61975D01*
X115506Y61975D01*
X115504Y61975D01*
X115364Y61955D01*
X115226Y61935D01*
X115224Y61935D01*
X115223Y61935D01*
X115097Y61878D01*
X114966Y61819D01*
X114965Y61818D01*
X114964Y61817D01*
X114853Y61724D01*
X114749Y61636D01*
X114748Y61634D01*
X114747Y61633D01*
X114739Y61620D01*
X114592Y61399D01*
X114582Y61370D01*
X114577Y61361D01*
X114574Y61357D01*
X114574Y61356D01*
X114569Y61349D01*
X113830Y59565D01*
X110615Y56350D01*
X106414Y54609D01*
X101866Y54609D01*
X97665Y56350D01*
X94450Y59565D01*
X92709Y63766D01*
X92709Y68314D01*
X94450Y72515D01*
X95460Y73525D01*
X95512Y73595D01*
X95572Y73659D01*
X95598Y73708D01*
X95631Y73753D01*
X95662Y73834D01*
X95702Y73912D01*
X95710Y73960D01*
X95732Y74018D01*
X95744Y74166D01*
X95757Y74243D01*
X95757Y77379D01*
X96400Y78022D01*
X96435Y78069D01*
X96478Y78109D01*
X96520Y78182D01*
X96571Y78249D01*
X96592Y78304D01*
X96621Y78354D01*
X96642Y78436D01*
X96672Y78515D01*
X96677Y78573D01*
X96691Y78630D01*
X96689Y78714D01*
X96696Y78798D01*
X96684Y78856D01*
X96682Y78914D01*
X96656Y78994D01*
X96640Y79077D01*
X96613Y79129D01*
X96595Y79185D01*
X96555Y79241D01*
X96509Y79329D01*
X96440Y79402D01*
X96400Y79458D01*
X95757Y80101D01*
X95757Y83237D01*
X95745Y83323D01*
X95742Y83411D01*
X95725Y83463D01*
X95717Y83518D01*
X95682Y83598D01*
X95655Y83681D01*
X95627Y83721D01*
X95601Y83778D01*
X95541Y83849D01*
X95517Y83889D01*
X95486Y83919D01*
X95460Y83955D01*
X94450Y84965D01*
X92709Y89166D01*
X92709Y93714D01*
X94449Y97915D01*
X95893Y99358D01*
X95910Y99382D01*
X95933Y99401D01*
X95995Y99495D01*
X96064Y99585D01*
X96074Y99613D01*
X96090Y99637D01*
X96124Y99745D01*
X96165Y99851D01*
X96167Y99880D01*
X96176Y99908D01*
X96179Y100022D01*
X96188Y100134D01*
X96183Y100163D01*
X96183Y100192D01*
X96155Y100302D01*
X96132Y100413D01*
X96119Y100439D01*
X96112Y100467D01*
X96054Y100565D01*
X96001Y100665D01*
X95981Y100687D01*
X95966Y100712D01*
X95884Y100789D01*
X95806Y100871D01*
X95780Y100886D01*
X95759Y100906D01*
X95658Y100958D01*
X95560Y101015D01*
X95532Y101022D01*
X95506Y101036D01*
X95428Y101049D01*
X95285Y101085D01*
X95222Y101083D01*
X95175Y101091D01*
X73108Y101091D01*
X73021Y101079D01*
X72934Y101076D01*
X72881Y101059D01*
X72826Y101051D01*
X72747Y101016D01*
X72663Y100989D01*
X72624Y100961D01*
X72567Y100935D01*
X72454Y100839D01*
X72390Y100794D01*
X70909Y99313D01*
X66911Y99313D01*
X64083Y102141D01*
X64083Y106139D01*
X66911Y108967D01*
X70358Y108967D01*
X70416Y108975D01*
X70474Y108973D01*
X70556Y108995D01*
X70640Y109007D01*
X70693Y109030D01*
X70749Y109045D01*
X70822Y109088D01*
X70899Y109123D01*
X70944Y109161D01*
X70994Y109190D01*
X71052Y109252D01*
X71116Y109306D01*
X71148Y109355D01*
X71188Y109398D01*
X71227Y109473D01*
X71274Y109543D01*
X71291Y109599D01*
X71318Y109651D01*
X71329Y109719D01*
X71359Y109814D01*
X71362Y109914D01*
X71373Y109982D01*
X71373Y113729D01*
X74201Y116557D01*
X78199Y116557D01*
X79680Y115076D01*
X79750Y115024D01*
X79814Y114964D01*
X79863Y114938D01*
X79907Y114905D01*
X79989Y114874D01*
X80067Y114834D01*
X80114Y114826D01*
X80173Y114804D01*
X80320Y114792D01*
X80398Y114779D01*
X109213Y114779D01*
X122855Y101136D01*
X122925Y101084D01*
X122989Y101024D01*
X123039Y100998D01*
X123083Y100965D01*
X123164Y100934D01*
X123242Y100894D01*
X123290Y100886D01*
X123348Y100864D01*
X123496Y100852D01*
X123573Y100839D01*
X136264Y100839D01*
X136293Y100843D01*
X136323Y100840D01*
X136434Y100863D01*
X136546Y100879D01*
X136572Y100891D01*
X136601Y100896D01*
X136702Y100949D01*
X136805Y100995D01*
X136828Y101014D01*
X136854Y101027D01*
X136936Y101105D01*
X137022Y101178D01*
X137038Y101203D01*
X137060Y101223D01*
X137117Y101321D01*
X137180Y101415D01*
X137189Y101443D01*
X137203Y101468D01*
X137231Y101578D01*
X137266Y101686D01*
X137266Y101716D01*
X137273Y101744D01*
X137270Y101857D01*
X137273Y101970D01*
X137265Y101999D01*
X137264Y102028D01*
X137230Y102136D01*
X137201Y102245D01*
X137186Y102271D01*
X137177Y102299D01*
X137131Y102362D01*
X137056Y102490D01*
X137010Y102533D01*
X136982Y102572D01*
X134873Y104681D01*
X134873Y108679D01*
X135338Y109144D01*
X135390Y109214D01*
X135450Y109278D01*
X135476Y109327D01*
X135509Y109371D01*
X135540Y109453D01*
X135580Y109531D01*
X135588Y109578D01*
X135610Y109637D01*
X135622Y109784D01*
X135635Y109862D01*
X135635Y124896D01*
X135627Y124951D01*
X135629Y124995D01*
X135622Y125021D01*
X135620Y125070D01*
X135603Y125122D01*
X135595Y125177D01*
X135561Y125254D01*
X135557Y125270D01*
X135554Y125275D01*
X135533Y125340D01*
X135505Y125380D01*
X135479Y125437D01*
X135383Y125550D01*
X135338Y125614D01*
X120439Y140513D01*
X120369Y140565D01*
X120305Y140625D01*
X120256Y140651D01*
X120211Y140684D01*
X120130Y140715D01*
X120052Y140755D01*
X120004Y140763D01*
X119946Y140785D01*
X119798Y140797D01*
X119721Y140810D01*
X106147Y140810D01*
X106060Y140798D01*
X105973Y140795D01*
X105920Y140778D01*
X105865Y140770D01*
X105786Y140735D01*
X105702Y140708D01*
X105663Y140680D01*
X105606Y140654D01*
X105493Y140558D01*
X105429Y140513D01*
X104964Y140048D01*
X100966Y140048D01*
X98138Y142876D01*
X98138Y146874D01*
X100966Y149702D01*
X104964Y149702D01*
X105429Y149237D01*
X105499Y149185D01*
X105563Y149125D01*
X105612Y149099D01*
X105656Y149066D01*
X105738Y149035D01*
X105816Y148995D01*
X105863Y148987D01*
X105922Y148965D01*
X106069Y148953D01*
X106147Y148940D01*
X123509Y148940D01*
X143765Y128684D01*
X143765Y109862D01*
X143777Y109775D01*
X143780Y109688D01*
X143797Y109635D01*
X143805Y109580D01*
X143840Y109501D01*
X143867Y109417D01*
X143895Y109378D01*
X143921Y109321D01*
X144017Y109208D01*
X144062Y109144D01*
X144527Y108679D01*
X144527Y104681D01*
X142418Y102572D01*
X142400Y102548D01*
X142378Y102529D01*
X142315Y102435D01*
X142247Y102345D01*
X142237Y102317D01*
X142220Y102293D01*
X142186Y102185D01*
X142146Y102079D01*
X142143Y102050D01*
X142134Y102022D01*
X142132Y101908D01*
X142122Y101796D01*
X142128Y101767D01*
X142127Y101738D01*
X142156Y101628D01*
X142178Y101517D01*
X142192Y101491D01*
X142199Y101463D01*
X142257Y101365D01*
X142309Y101265D01*
X142329Y101243D01*
X142344Y101218D01*
X142427Y101141D01*
X142505Y101059D01*
X142530Y101044D01*
X142552Y101024D01*
X142652Y100972D01*
X142750Y100915D01*
X142779Y100908D01*
X142805Y100894D01*
X142882Y100881D01*
X143026Y100845D01*
X143088Y100847D01*
X143136Y100839D01*
X160902Y100839D01*
X160989Y100851D01*
X161076Y100854D01*
X161129Y100871D01*
X161184Y100879D01*
X161263Y100914D01*
X161347Y100941D01*
X161386Y100969D01*
X161443Y100995D01*
X161556Y101091D01*
X161620Y101136D01*
X163101Y102617D01*
X167099Y102617D01*
X169927Y99789D01*
X169927Y96012D01*
X169935Y95954D01*
X169933Y95896D01*
X169955Y95814D01*
X169967Y95730D01*
X169990Y95677D01*
X170005Y95621D01*
X170048Y95548D01*
X170083Y95471D01*
X170121Y95426D01*
X170150Y95376D01*
X170212Y95318D01*
X170266Y95254D01*
X170315Y95222D01*
X170358Y95182D01*
X170433Y95143D01*
X170503Y95096D01*
X170559Y95079D01*
X170611Y95052D01*
X170679Y95041D01*
X170774Y95011D01*
X170874Y95008D01*
X170942Y94997D01*
X172179Y94997D01*
X175007Y92169D01*
X175007Y88171D01*
X172179Y85343D01*
X168181Y85343D01*
X166700Y86824D01*
X166630Y86876D01*
X166566Y86936D01*
X166517Y86962D01*
X166473Y86995D01*
X166391Y87026D01*
X166313Y87066D01*
X166266Y87074D01*
X166207Y87096D01*
X166060Y87108D01*
X165982Y87121D01*
X121927Y87121D01*
X117304Y91745D01*
X117280Y91762D01*
X117261Y91785D01*
X117167Y91847D01*
X117077Y91915D01*
X117049Y91926D01*
X117025Y91942D01*
X116917Y91976D01*
X116811Y92017D01*
X116782Y92019D01*
X116754Y92028D01*
X116640Y92031D01*
X116528Y92040D01*
X116499Y92035D01*
X116470Y92035D01*
X116360Y92007D01*
X116249Y91984D01*
X116223Y91971D01*
X116195Y91963D01*
X116097Y91906D01*
X115997Y91853D01*
X115975Y91833D01*
X115950Y91818D01*
X115873Y91736D01*
X115791Y91658D01*
X115776Y91632D01*
X115756Y91611D01*
X115704Y91510D01*
X115647Y91412D01*
X115640Y91384D01*
X115626Y91358D01*
X115613Y91280D01*
X115577Y91137D01*
X115579Y91074D01*
X115571Y91027D01*
X115571Y89166D01*
X113830Y84965D01*
X112820Y83955D01*
X112808Y83938D01*
X112797Y83929D01*
X112767Y83884D01*
X112708Y83821D01*
X112682Y83772D01*
X112649Y83727D01*
X112618Y83646D01*
X112578Y83568D01*
X112570Y83520D01*
X112548Y83462D01*
X112536Y83314D01*
X112523Y83237D01*
X112523Y80101D01*
X111880Y79458D01*
X111845Y79411D01*
X111802Y79371D01*
X111760Y79298D01*
X111709Y79231D01*
X111688Y79176D01*
X111659Y79126D01*
X111638Y79044D01*
X111608Y78965D01*
X111603Y78907D01*
X111589Y78850D01*
X111591Y78766D01*
X111584Y78682D01*
X111596Y78624D01*
X111598Y78566D01*
X111624Y78486D01*
X111640Y78403D01*
X111667Y78351D01*
X111685Y78295D01*
X111725Y78239D01*
X111771Y78151D01*
X111840Y78078D01*
X111880Y78022D01*
X112523Y77379D01*
X112523Y74243D01*
X112535Y74157D01*
X112538Y74069D01*
X112555Y74017D01*
X112563Y73962D01*
X112598Y73882D01*
X112625Y73799D01*
X112653Y73759D01*
X112679Y73702D01*
X112775Y73589D01*
X112820Y73525D01*
X113830Y72515D01*
X114569Y70731D01*
X114570Y70730D01*
X114570Y70729D01*
X114641Y70609D01*
X114714Y70487D01*
X114715Y70486D01*
X114716Y70484D01*
X114820Y70387D01*
X114920Y70291D01*
X114922Y70291D01*
X114923Y70290D01*
X115049Y70225D01*
X115173Y70161D01*
X115175Y70161D01*
X115176Y70160D01*
X115191Y70158D01*
X115452Y70106D01*
X115483Y70109D01*
X115507Y70105D01*
X188396Y70105D01*
X188482Y70117D01*
X188570Y70120D01*
X188622Y70137D01*
X188677Y70145D01*
X188757Y70180D01*
X188840Y70207D01*
X188880Y70235D01*
X188937Y70261D01*
X189050Y70357D01*
X189114Y70402D01*
X211339Y92627D01*
X211374Y92674D01*
X211416Y92714D01*
X211459Y92787D01*
X211510Y92854D01*
X211530Y92909D01*
X211560Y92959D01*
X211581Y93041D01*
X211611Y93120D01*
X211616Y93178D01*
X211630Y93235D01*
X211627Y93319D01*
X211634Y93403D01*
X211623Y93461D01*
X211621Y93519D01*
X211595Y93599D01*
X211579Y93682D01*
X211552Y93734D01*
X211534Y93790D01*
X211493Y93846D01*
X211448Y93934D01*
X211379Y94007D01*
X211339Y94063D01*
X211030Y94372D01*
X203846Y101556D01*
X203776Y101608D01*
X203712Y101668D01*
X203663Y101694D01*
X203618Y101727D01*
X203537Y101758D01*
X203459Y101798D01*
X203411Y101806D01*
X203353Y101828D01*
X203205Y101840D01*
X203128Y101853D01*
X202471Y101853D01*
X199643Y104681D01*
X199643Y108679D01*
X202471Y111507D01*
X206469Y111507D01*
X208832Y109144D01*
X208879Y109109D01*
X208919Y109066D01*
X208992Y109024D01*
X209059Y108973D01*
X209114Y108952D01*
X209164Y108923D01*
X209246Y108902D01*
X209325Y108872D01*
X209383Y108867D01*
X209440Y108853D01*
X209524Y108855D01*
X209608Y108848D01*
X209666Y108860D01*
X209724Y108862D01*
X209804Y108888D01*
X209887Y108904D01*
X209939Y108931D01*
X209995Y108949D01*
X210051Y108989D01*
X210139Y109035D01*
X210212Y109104D01*
X210268Y109144D01*
X212631Y111507D01*
X216629Y111507D01*
X218110Y110026D01*
X218180Y109974D01*
X218244Y109914D01*
X218293Y109888D01*
X218337Y109855D01*
X218419Y109824D01*
X218497Y109784D01*
X218544Y109776D01*
X218603Y109754D01*
X218750Y109742D01*
X218828Y109729D01*
X220059Y109729D01*
X220088Y109733D01*
X220117Y109730D01*
X220228Y109753D01*
X220340Y109769D01*
X220367Y109781D01*
X220396Y109786D01*
X220496Y109838D01*
X220600Y109885D01*
X220622Y109904D01*
X220648Y109917D01*
X220730Y109995D01*
X220817Y110068D01*
X220833Y110093D01*
X220854Y110113D01*
X220911Y110211D01*
X220974Y110305D01*
X220983Y110333D01*
X220998Y110358D01*
X221026Y110468D01*
X221060Y110576D01*
X221061Y110606D01*
X221068Y110634D01*
X221064Y110747D01*
X221067Y110860D01*
X221060Y110889D01*
X221059Y110918D01*
X221024Y111026D01*
X220995Y111135D01*
X220980Y111161D01*
X220971Y111189D01*
X220926Y111252D01*
X220850Y111380D01*
X220805Y111423D01*
X220777Y111462D01*
X204013Y128226D01*
X203943Y128278D01*
X203879Y128338D01*
X203829Y128364D01*
X203785Y128397D01*
X203704Y128428D01*
X203626Y128468D01*
X203578Y128476D01*
X203520Y128498D01*
X203372Y128510D01*
X203295Y128523D01*
X201201Y128523D01*
X198373Y131351D01*
X198373Y135349D01*
X201201Y138177D01*
X205199Y138177D01*
X208027Y135349D01*
X208027Y133255D01*
X208039Y133169D01*
X208042Y133081D01*
X208059Y133029D01*
X208067Y132974D01*
X208102Y132894D01*
X208129Y132811D01*
X208157Y132772D01*
X208183Y132714D01*
X208279Y132601D01*
X208324Y132537D01*
X215690Y125171D01*
X215714Y125154D01*
X215733Y125131D01*
X215782Y125098D01*
X215819Y125064D01*
X215864Y125041D01*
X215917Y125001D01*
X215945Y124990D01*
X215969Y124974D01*
X216037Y124952D01*
X216072Y124934D01*
X216106Y124929D01*
X216183Y124899D01*
X216212Y124897D01*
X216240Y124888D01*
X216354Y124885D01*
X216377Y124883D01*
X216403Y124879D01*
X216408Y124879D01*
X216416Y124880D01*
X216466Y124876D01*
X216495Y124881D01*
X216524Y124881D01*
X216634Y124909D01*
X216657Y124914D01*
X216690Y124919D01*
X216697Y124922D01*
X216745Y124932D01*
X216771Y124945D01*
X216799Y124953D01*
X216897Y125010D01*
X216912Y125018D01*
X216949Y125035D01*
X216957Y125042D01*
X216997Y125063D01*
X217019Y125083D01*
X217044Y125098D01*
X217121Y125180D01*
X217125Y125184D01*
X217166Y125218D01*
X217174Y125230D01*
X217203Y125258D01*
X217218Y125284D01*
X217238Y125305D01*
X217287Y125400D01*
X217324Y125455D01*
X217329Y125473D01*
X217347Y125504D01*
X217354Y125532D01*
X217368Y125558D01*
X217381Y125636D01*
X217381Y125637D01*
X217409Y125726D01*
X217410Y125750D01*
X217417Y125779D01*
X217415Y125842D01*
X217423Y125889D01*
X217423Y127729D01*
X220251Y130557D01*
X224249Y130557D01*
X227077Y127729D01*
X227077Y125635D01*
X227089Y125549D01*
X227092Y125461D01*
X227109Y125409D01*
X227117Y125354D01*
X227152Y125274D01*
X227179Y125191D01*
X227207Y125152D01*
X227233Y125094D01*
X227329Y124981D01*
X227374Y124917D01*
X233629Y118662D01*
X233699Y118610D01*
X233763Y118550D01*
X233813Y118524D01*
X233857Y118491D01*
X233938Y118460D01*
X234016Y118420D01*
X234064Y118412D01*
X234122Y118390D01*
X234270Y118378D01*
X234347Y118365D01*
X253016Y118365D01*
X268721Y102660D01*
X268790Y102608D01*
X268854Y102548D01*
X268904Y102522D01*
X268948Y102489D01*
X269030Y102458D01*
X269108Y102418D01*
X269155Y102410D01*
X269214Y102388D01*
X269361Y102376D01*
X269439Y102363D01*
X288053Y102363D01*
X288082Y102367D01*
X288112Y102364D01*
X288223Y102387D01*
X288335Y102403D01*
X288361Y102415D01*
X288390Y102420D01*
X288491Y102473D01*
X288594Y102519D01*
X288617Y102538D01*
X288643Y102551D01*
X288725Y102629D01*
X288811Y102702D01*
X288827Y102727D01*
X288849Y102747D01*
X288906Y102845D01*
X288969Y102939D01*
X288978Y102967D01*
X288992Y102992D01*
X289020Y103102D01*
X289055Y103210D01*
X289055Y103240D01*
X289062Y103268D01*
X289059Y103381D01*
X289062Y103494D01*
X289054Y103523D01*
X289053Y103552D01*
X289019Y103660D01*
X288990Y103769D01*
X288975Y103795D01*
X288966Y103823D01*
X288920Y103887D01*
X288845Y104014D01*
X288799Y104057D01*
X288771Y104096D01*
X288543Y104324D01*
X288543Y108322D01*
X289509Y109288D01*
X289527Y109312D01*
X289549Y109331D01*
X289612Y109425D01*
X289680Y109515D01*
X289690Y109543D01*
X289707Y109567D01*
X289741Y109675D01*
X289781Y109781D01*
X289784Y109810D01*
X289793Y109838D01*
X289795Y109952D01*
X289805Y110064D01*
X289799Y110093D01*
X289800Y110122D01*
X289771Y110232D01*
X289749Y110343D01*
X289735Y110369D01*
X289728Y110397D01*
X289670Y110495D01*
X289618Y110595D01*
X289598Y110617D01*
X289583Y110642D01*
X289500Y110719D01*
X289422Y110801D01*
X289397Y110816D01*
X289375Y110836D01*
X289275Y110888D01*
X289177Y110945D01*
X289148Y110952D01*
X289122Y110966D01*
X289045Y110979D01*
X288901Y111015D01*
X288839Y111013D01*
X288791Y111021D01*
X286138Y111021D01*
X286051Y111009D01*
X285964Y111006D01*
X285911Y110989D01*
X285856Y110981D01*
X285777Y110946D01*
X285693Y110919D01*
X285654Y110891D01*
X285597Y110865D01*
X285484Y110769D01*
X285420Y110724D01*
X282669Y107973D01*
X278671Y107973D01*
X275843Y110801D01*
X275843Y114799D01*
X278671Y117627D01*
X282448Y117627D01*
X282506Y117635D01*
X282564Y117633D01*
X282646Y117655D01*
X282730Y117667D01*
X282783Y117690D01*
X282839Y117705D01*
X282912Y117748D01*
X282989Y117783D01*
X283034Y117821D01*
X283084Y117850D01*
X283142Y117912D01*
X283206Y117966D01*
X283238Y118015D01*
X283278Y118058D01*
X283317Y118133D01*
X283364Y118203D01*
X283381Y118259D01*
X283408Y118311D01*
X283419Y118379D01*
X283449Y118474D01*
X283452Y118574D01*
X283463Y118642D01*
X283463Y122546D01*
X286291Y125374D01*
X290289Y125374D01*
X291770Y123893D01*
X291840Y123841D01*
X291904Y123781D01*
X291953Y123755D01*
X291997Y123722D01*
X292079Y123691D01*
X292157Y123651D01*
X292204Y123643D01*
X292263Y123621D01*
X292410Y123609D01*
X292488Y123596D01*
X299727Y123596D01*
X299756Y123600D01*
X299786Y123597D01*
X299897Y123620D01*
X300009Y123636D01*
X300035Y123648D01*
X300064Y123653D01*
X300165Y123706D01*
X300268Y123752D01*
X300291Y123771D01*
X300317Y123784D01*
X300399Y123862D01*
X300485Y123935D01*
X300501Y123960D01*
X300523Y123980D01*
X300580Y124078D01*
X300643Y124172D01*
X300652Y124200D01*
X300666Y124225D01*
X300694Y124335D01*
X300729Y124443D01*
X300729Y124473D01*
X300736Y124501D01*
X300733Y124614D01*
X300736Y124727D01*
X300728Y124756D01*
X300727Y124785D01*
X300693Y124893D01*
X300664Y125002D01*
X300649Y125028D01*
X300640Y125056D01*
X300594Y125120D01*
X300519Y125247D01*
X300473Y125290D01*
X300445Y125329D01*
X299973Y125801D01*
X299973Y129799D01*
X302801Y132627D01*
X306799Y132627D01*
X308280Y131146D01*
X308350Y131094D01*
X308414Y131034D01*
X308463Y131008D01*
X308507Y130975D01*
X308589Y130944D01*
X308667Y130904D01*
X308714Y130896D01*
X308773Y130874D01*
X308920Y130862D01*
X308998Y130849D01*
X398018Y130849D01*
X398076Y130857D01*
X398134Y130855D01*
X398216Y130877D01*
X398300Y130889D01*
X398353Y130912D01*
X398409Y130927D01*
X398482Y130970D01*
X398559Y131005D01*
X398604Y131043D01*
X398654Y131072D01*
X398712Y131134D01*
X398776Y131188D01*
X398808Y131237D01*
X398848Y131280D01*
X398887Y131355D01*
X398934Y131425D01*
X398940Y131446D01*
X401861Y134367D01*
X405859Y134367D01*
X408687Y131539D01*
X408687Y127541D01*
X405859Y124713D01*
X401661Y124713D01*
X401627Y124726D01*
X401480Y124738D01*
X401402Y124751D01*
X399906Y124751D01*
X399877Y124747D01*
X399847Y124750D01*
X399736Y124727D01*
X399624Y124711D01*
X399598Y124699D01*
X399569Y124694D01*
X399468Y124641D01*
X399365Y124595D01*
X399342Y124576D01*
X399316Y124563D01*
X399234Y124485D01*
X399148Y124412D01*
X399132Y124387D01*
X399110Y124367D01*
X399053Y124269D01*
X398990Y124175D01*
X398981Y124147D01*
X398967Y124122D01*
X398939Y124012D01*
X398904Y123904D01*
X398904Y123874D01*
X398897Y123846D01*
X398900Y123733D01*
X398897Y123620D01*
X398905Y123591D01*
X398906Y123562D01*
X398940Y123454D01*
X398969Y123345D01*
X398984Y123319D01*
X398993Y123291D01*
X399039Y123227D01*
X399114Y123100D01*
X399160Y123057D01*
X399188Y123018D01*
X399557Y122649D01*
X399557Y118651D01*
X396729Y115823D01*
X392731Y115823D01*
X391353Y117201D01*
X391283Y117253D01*
X391219Y117313D01*
X391170Y117339D01*
X391126Y117372D01*
X391044Y117403D01*
X390966Y117443D01*
X390919Y117451D01*
X390860Y117473D01*
X390713Y117485D01*
X390635Y117498D01*
X389612Y117498D01*
X389554Y117490D01*
X389496Y117492D01*
X389414Y117470D01*
X389330Y117458D01*
X389277Y117435D01*
X389221Y117420D01*
X389148Y117377D01*
X389071Y117342D01*
X389026Y117304D01*
X388976Y117275D01*
X388918Y117213D01*
X388854Y117159D01*
X388822Y117110D01*
X388782Y117067D01*
X388743Y116992D01*
X388696Y116922D01*
X388679Y116866D01*
X388652Y116814D01*
X388641Y116746D01*
X388611Y116651D01*
X388608Y116551D01*
X388597Y116483D01*
X388597Y112071D01*
X385769Y109243D01*
X381771Y109243D01*
X380290Y110724D01*
X380220Y110776D01*
X380156Y110836D01*
X380107Y110862D01*
X380063Y110895D01*
X379981Y110926D01*
X379903Y110966D01*
X379856Y110974D01*
X379797Y110996D01*
X379650Y111008D01*
X379572Y111021D01*
X334779Y111021D01*
X334750Y111017D01*
X334720Y111020D01*
X334609Y110997D01*
X334497Y110981D01*
X334471Y110969D01*
X334442Y110964D01*
X334341Y110911D01*
X334238Y110865D01*
X334215Y110846D01*
X334189Y110833D01*
X334107Y110755D01*
X334021Y110682D01*
X334005Y110657D01*
X333983Y110637D01*
X333926Y110539D01*
X333863Y110445D01*
X333854Y110417D01*
X333840Y110392D01*
X333812Y110282D01*
X333777Y110174D01*
X333777Y110144D01*
X333770Y110116D01*
X333773Y110003D01*
X333770Y109890D01*
X333778Y109861D01*
X333779Y109832D01*
X333813Y109724D01*
X333842Y109615D01*
X333857Y109589D01*
X333866Y109561D01*
X333912Y109497D01*
X333987Y109370D01*
X334033Y109327D01*
X334061Y109288D01*
X335027Y108322D01*
X335027Y108204D01*
X335035Y108146D01*
X335033Y108088D01*
X335055Y108006D01*
X335067Y107922D01*
X335090Y107869D01*
X335105Y107813D01*
X335148Y107740D01*
X335183Y107663D01*
X335221Y107618D01*
X335250Y107568D01*
X335312Y107510D01*
X335366Y107446D01*
X335415Y107414D01*
X335458Y107374D01*
X335533Y107335D01*
X335603Y107288D01*
X335659Y107271D01*
X335711Y107244D01*
X335779Y107233D01*
X335874Y107203D01*
X335974Y107200D01*
X336042Y107189D01*
X427082Y107189D01*
X427118Y107194D01*
X427154Y107191D01*
X427258Y107214D01*
X427363Y107229D01*
X427397Y107243D01*
X427432Y107251D01*
X427526Y107301D01*
X427623Y107345D01*
X427651Y107368D01*
X427682Y107385D01*
X427759Y107460D01*
X427840Y107528D01*
X427860Y107559D01*
X427886Y107584D01*
X427938Y107676D01*
X427997Y107765D01*
X428008Y107800D01*
X428026Y107831D01*
X428051Y107934D01*
X428083Y108036D01*
X428084Y108072D01*
X428093Y108108D01*
X428088Y108214D01*
X428091Y108320D01*
X428081Y108355D01*
X428080Y108392D01*
X428046Y108492D01*
X428019Y108595D01*
X428000Y108626D01*
X427989Y108661D01*
X427928Y108748D01*
X427873Y108840D01*
X427847Y108865D01*
X427826Y108894D01*
X427764Y108942D01*
X427666Y109034D01*
X427603Y109067D01*
X427561Y109099D01*
X426521Y109655D01*
X423862Y111431D01*
X421390Y113460D01*
X419130Y115720D01*
X417101Y118192D01*
X415325Y120850D01*
X413818Y123670D01*
X412594Y126624D01*
X411666Y129684D01*
X411043Y132819D01*
X410772Y135569D01*
X442254Y135569D01*
X442312Y135577D01*
X442370Y135575D01*
X442452Y135597D01*
X442535Y135609D01*
X442589Y135633D01*
X442645Y135647D01*
X442718Y135690D01*
X442795Y135725D01*
X442839Y135763D01*
X442890Y135793D01*
X442947Y135854D01*
X443012Y135909D01*
X443044Y135957D01*
X443084Y136000D01*
X443123Y136075D01*
X443169Y136145D01*
X443187Y136201D01*
X443214Y136253D01*
X443225Y136321D01*
X443255Y136416D01*
X443258Y136516D01*
X443269Y136584D01*
X443269Y138616D01*
X443261Y138674D01*
X443262Y138732D01*
X443241Y138814D01*
X443229Y138897D01*
X443205Y138951D01*
X443191Y139007D01*
X443148Y139080D01*
X443113Y139157D01*
X443075Y139202D01*
X443045Y139252D01*
X442984Y139310D01*
X442929Y139374D01*
X442881Y139406D01*
X442838Y139446D01*
X442763Y139485D01*
X442693Y139531D01*
X442637Y139549D01*
X442585Y139576D01*
X442517Y139587D01*
X442422Y139617D01*
X442322Y139620D01*
X442254Y139631D01*
X410772Y139631D01*
X411043Y142381D01*
X411666Y145516D01*
X412594Y148576D01*
X413818Y151530D01*
X415325Y154350D01*
X417101Y157008D01*
X419130Y159480D01*
X421390Y161740D01*
X423862Y163769D01*
X426521Y165545D01*
X428290Y166491D01*
X428319Y166512D01*
X428352Y166527D01*
X428434Y166596D01*
X428520Y166658D01*
X428542Y166687D01*
X428569Y166711D01*
X428628Y166799D01*
X428694Y166883D01*
X428707Y166917D01*
X428727Y166947D01*
X428759Y167049D01*
X428798Y167148D01*
X428802Y167184D01*
X428813Y167218D01*
X428816Y167325D01*
X428826Y167431D01*
X428819Y167466D01*
X428820Y167502D01*
X428793Y167605D01*
X428774Y167710D01*
X428757Y167742D01*
X428748Y167777D01*
X428694Y167869D01*
X428646Y167964D01*
X428622Y167991D01*
X428603Y168022D01*
X428525Y168095D01*
X428453Y168173D01*
X428422Y168192D01*
X428396Y168216D01*
X428301Y168265D01*
X428210Y168320D01*
X428175Y168329D01*
X428143Y168346D01*
X428065Y168359D01*
X427935Y168394D01*
X427865Y168392D01*
X427812Y168401D01*
X283598Y168401D01*
X283511Y168389D01*
X283424Y168386D01*
X283371Y168369D01*
X283316Y168361D01*
X283237Y168326D01*
X283153Y168299D01*
X283114Y168271D01*
X283057Y168245D01*
X282944Y168149D01*
X282880Y168104D01*
X281399Y166623D01*
X277401Y166623D01*
X274573Y169451D01*
X274573Y173449D01*
X277401Y176277D01*
X281399Y176277D01*
X282880Y174796D01*
X282950Y174744D01*
X283014Y174684D01*
X283063Y174658D01*
X283107Y174625D01*
X283189Y174594D01*
X283267Y174554D01*
X283314Y174546D01*
X283373Y174524D01*
X283520Y174512D01*
X283598Y174499D01*
X402964Y174499D01*
X402993Y174503D01*
X403023Y174500D01*
X403134Y174523D01*
X403246Y174539D01*
X403272Y174551D01*
X403301Y174556D01*
X403402Y174609D01*
X403505Y174655D01*
X403528Y174674D01*
X403554Y174687D01*
X403636Y174765D01*
X403722Y174838D01*
X403738Y174863D01*
X403760Y174883D01*
X403817Y174981D01*
X403880Y175075D01*
X403889Y175103D01*
X403903Y175128D01*
X403931Y175238D01*
X403966Y175346D01*
X403966Y175376D01*
X403973Y175404D01*
X403970Y175517D01*
X403973Y175630D01*
X403965Y175659D01*
X403964Y175688D01*
X403930Y175796D01*
X403901Y175905D01*
X403886Y175931D01*
X403877Y175959D01*
X403831Y176023D01*
X403756Y176150D01*
X403710Y176193D01*
X403682Y176232D01*
X402843Y177071D01*
X402843Y181069D01*
X405671Y183897D01*
X409669Y183897D01*
X411150Y182416D01*
X411220Y182364D01*
X411284Y182304D01*
X411333Y182278D01*
X411377Y182245D01*
X411459Y182214D01*
X411537Y182174D01*
X411584Y182166D01*
X411643Y182144D01*
X411790Y182132D01*
X411868Y182119D01*
X719702Y182119D01*
X719789Y182131D01*
X719876Y182134D01*
X719929Y182151D01*
X719984Y182159D01*
X720063Y182194D01*
X720147Y182221D01*
X720186Y182249D01*
X720243Y182275D01*
X720356Y182371D01*
X720420Y182416D01*
X721901Y183897D01*
X725899Y183897D01*
X728727Y181069D01*
X728727Y177071D01*
X727888Y176232D01*
X727870Y176208D01*
X727848Y176189D01*
X727785Y176095D01*
X727717Y176005D01*
X727707Y175977D01*
X727690Y175953D01*
X727656Y175845D01*
X727616Y175739D01*
X727613Y175710D01*
X727604Y175682D01*
X727602Y175568D01*
X727592Y175456D01*
X727598Y175427D01*
X727597Y175398D01*
X727626Y175288D01*
X727648Y175177D01*
X727662Y175151D01*
X727669Y175123D01*
X727727Y175025D01*
X727779Y174925D01*
X727799Y174903D01*
X727814Y174878D01*
X727897Y174801D01*
X727975Y174719D01*
X728000Y174704D01*
X728022Y174684D01*
X728123Y174632D01*
X728220Y174575D01*
X728249Y174568D01*
X728275Y174554D01*
X728352Y174541D01*
X728496Y174505D01*
X728558Y174507D01*
X728606Y174499D01*
X757802Y174499D01*
X757889Y174511D01*
X757976Y174514D01*
X758029Y174531D01*
X758084Y174539D01*
X758163Y174574D01*
X758247Y174601D01*
X758286Y174629D01*
X758343Y174655D01*
X758456Y174751D01*
X758520Y174796D01*
X760001Y176277D01*
X763999Y176277D01*
X766827Y173449D01*
X766827Y169451D01*
X763999Y166623D01*
X760001Y166623D01*
X758520Y168104D01*
X758450Y168156D01*
X758386Y168216D01*
X758337Y168242D01*
X758293Y168275D01*
X758211Y168306D01*
X758133Y168346D01*
X758086Y168354D01*
X758027Y168376D01*
X757880Y168388D01*
X757802Y168401D01*
X458728Y168401D01*
X458693Y168396D01*
X458656Y168399D01*
X458552Y168376D01*
X458447Y168361D01*
X458414Y168347D01*
X458378Y168339D01*
X458285Y168289D01*
X458188Y168245D01*
X458160Y168222D01*
X458128Y168205D01*
X458052Y168130D01*
X457971Y168062D01*
X457950Y168031D01*
X457924Y168006D01*
X457872Y167913D01*
X457813Y167825D01*
X457802Y167790D01*
X457784Y167759D01*
X457759Y167656D01*
X457727Y167554D01*
X457726Y167518D01*
X457718Y167482D01*
X457723Y167376D01*
X457720Y167270D01*
X457729Y167235D01*
X457731Y167198D01*
X457765Y167098D01*
X457792Y166995D01*
X457810Y166964D01*
X457822Y166929D01*
X457883Y166842D01*
X457937Y166750D01*
X457963Y166725D01*
X457984Y166696D01*
X458046Y166648D01*
X458144Y166556D01*
X458207Y166523D01*
X458250Y166491D01*
X460019Y165545D01*
X462678Y163769D01*
X465150Y161740D01*
X467410Y159480D01*
X469439Y157008D01*
X471215Y154350D01*
X472722Y151530D01*
X473946Y148576D01*
X474874Y145516D01*
X475497Y142381D01*
X475768Y139631D01*
X444286Y139631D01*
X444228Y139623D01*
X444170Y139625D01*
X444088Y139603D01*
X444005Y139591D01*
X443951Y139567D01*
X443895Y139553D01*
X443822Y139510D01*
X443745Y139475D01*
X443701Y139437D01*
X443650Y139407D01*
X443593Y139346D01*
X443528Y139291D01*
X443496Y139243D01*
X443456Y139200D01*
X443417Y139125D01*
X443371Y139055D01*
X443353Y138999D01*
X443326Y138947D01*
X443315Y138879D01*
X443285Y138784D01*
X443282Y138684D01*
X443271Y138616D01*
X443271Y136584D01*
X443279Y136526D01*
X443278Y136468D01*
X443299Y136386D01*
X443311Y136303D01*
X443335Y136249D01*
X443349Y136193D01*
X443392Y136120D01*
X443427Y136043D01*
X443465Y135998D01*
X443495Y135948D01*
X443556Y135890D01*
X443611Y135826D01*
X443659Y135794D01*
X443702Y135754D01*
X443777Y135715D01*
X443847Y135669D01*
X443903Y135651D01*
X443955Y135624D01*
X444023Y135613D01*
X444118Y135583D01*
X444218Y135580D01*
X444286Y135569D01*
X475768Y135569D01*
X475497Y132819D01*
X474874Y129684D01*
X473946Y126624D01*
X472722Y123670D01*
X471215Y120850D01*
X469439Y118192D01*
X467410Y115720D01*
X465150Y113460D01*
X462678Y111431D01*
X460019Y109655D01*
X458979Y109099D01*
X458950Y109078D01*
X458917Y109063D01*
X458836Y108994D01*
X458750Y108932D01*
X458728Y108903D01*
X458700Y108879D01*
X458641Y108791D01*
X458576Y108707D01*
X458563Y108673D01*
X458543Y108643D01*
X458510Y108541D01*
X458471Y108442D01*
X458468Y108406D01*
X458457Y108372D01*
X458454Y108265D01*
X458444Y108160D01*
X458450Y108124D01*
X458449Y108088D01*
X458476Y107985D01*
X458496Y107880D01*
X458512Y107848D01*
X458521Y107813D01*
X458575Y107721D01*
X458623Y107626D01*
X458648Y107599D01*
X458667Y107568D01*
X458744Y107495D01*
X458816Y107417D01*
X458847Y107398D01*
X458874Y107374D01*
X458968Y107325D01*
X459060Y107270D01*
X459095Y107261D01*
X459127Y107244D01*
X459204Y107231D01*
X459334Y107196D01*
X459405Y107198D01*
X459458Y107189D01*
X719702Y107189D01*
X719789Y107201D01*
X719876Y107204D01*
X719929Y107221D01*
X719984Y107229D01*
X720063Y107264D01*
X720147Y107291D01*
X720186Y107319D01*
X720243Y107345D01*
X720356Y107441D01*
X720420Y107486D01*
X721901Y108967D01*
X725899Y108967D01*
X728727Y106139D01*
X728727Y102141D01*
X725899Y99313D01*
X721901Y99313D01*
X720420Y100794D01*
X720350Y100846D01*
X720286Y100906D01*
X720237Y100932D01*
X720193Y100965D01*
X720111Y100996D01*
X720033Y101036D01*
X719986Y101044D01*
X719927Y101066D01*
X719780Y101078D01*
X719702Y101091D01*
X703460Y101091D01*
X703431Y101087D01*
X703401Y101090D01*
X703290Y101067D01*
X703178Y101051D01*
X703152Y101039D01*
X703123Y101034D01*
X703022Y100981D01*
X702919Y100935D01*
X702896Y100916D01*
X702870Y100903D01*
X702788Y100825D01*
X702702Y100752D01*
X702686Y100727D01*
X702664Y100707D01*
X702607Y100609D01*
X702544Y100515D01*
X702535Y100487D01*
X702521Y100462D01*
X702493Y100352D01*
X702458Y100244D01*
X702458Y100214D01*
X702451Y100186D01*
X702454Y100073D01*
X702451Y99960D01*
X702459Y99931D01*
X702460Y99902D01*
X702494Y99794D01*
X702523Y99685D01*
X702538Y99659D01*
X702547Y99631D01*
X702593Y99567D01*
X702668Y99440D01*
X702714Y99397D01*
X702742Y99358D01*
X703327Y98773D01*
X703327Y94775D01*
X700499Y91947D01*
X696501Y91947D01*
X693673Y94775D01*
X693673Y95250D01*
X693665Y95308D01*
X693667Y95366D01*
X693645Y95448D01*
X693633Y95532D01*
X693610Y95585D01*
X693595Y95641D01*
X693552Y95714D01*
X693517Y95791D01*
X693479Y95836D01*
X693450Y95886D01*
X693388Y95944D01*
X693334Y96008D01*
X693285Y96040D01*
X693242Y96080D01*
X693167Y96119D01*
X693097Y96166D01*
X693041Y96183D01*
X692989Y96210D01*
X692921Y96221D01*
X692826Y96251D01*
X692726Y96254D01*
X692658Y96265D01*
X676409Y96265D01*
X676380Y96261D01*
X676350Y96264D01*
X676239Y96241D01*
X676127Y96225D01*
X676101Y96213D01*
X676072Y96208D01*
X675971Y96155D01*
X675868Y96109D01*
X675845Y96090D01*
X675819Y96077D01*
X675737Y95999D01*
X675651Y95926D01*
X675635Y95901D01*
X675613Y95881D01*
X675556Y95783D01*
X675493Y95689D01*
X675484Y95661D01*
X675470Y95636D01*
X675442Y95526D01*
X675407Y95418D01*
X675407Y95388D01*
X675400Y95360D01*
X675403Y95247D01*
X675400Y95134D01*
X675408Y95105D01*
X675409Y95076D01*
X675443Y94968D01*
X675472Y94859D01*
X675487Y94833D01*
X675496Y94805D01*
X675542Y94742D01*
X675617Y94614D01*
X675663Y94571D01*
X675691Y94532D01*
X677927Y92296D01*
X677927Y88298D01*
X675099Y85470D01*
X671101Y85470D01*
X668273Y88298D01*
X668273Y90392D01*
X668266Y90445D01*
X668267Y90477D01*
X668260Y90501D01*
X668258Y90566D01*
X668241Y90618D01*
X668233Y90673D01*
X668198Y90753D01*
X668171Y90836D01*
X668143Y90875D01*
X668117Y90933D01*
X668021Y91046D01*
X667976Y91110D01*
X667055Y92031D01*
X666985Y92083D01*
X666921Y92143D01*
X666871Y92169D01*
X666827Y92202D01*
X666746Y92233D01*
X666668Y92273D01*
X666620Y92281D01*
X666562Y92303D01*
X666414Y92315D01*
X666337Y92328D01*
X628142Y92328D01*
X628084Y92320D01*
X628026Y92322D01*
X627944Y92300D01*
X627860Y92288D01*
X627807Y92265D01*
X627751Y92250D01*
X627678Y92207D01*
X627601Y92172D01*
X627556Y92134D01*
X627506Y92105D01*
X627448Y92043D01*
X627384Y91989D01*
X627352Y91940D01*
X627312Y91897D01*
X627273Y91822D01*
X627226Y91752D01*
X627209Y91696D01*
X627182Y91644D01*
X627171Y91576D01*
X627141Y91481D01*
X627138Y91381D01*
X627127Y91313D01*
X627127Y86901D01*
X626134Y85908D01*
X626116Y85884D01*
X626094Y85865D01*
X626031Y85771D01*
X625963Y85681D01*
X625952Y85653D01*
X625936Y85629D01*
X625902Y85521D01*
X625862Y85415D01*
X625859Y85386D01*
X625850Y85358D01*
X625847Y85244D01*
X625838Y85132D01*
X625844Y85103D01*
X625843Y85074D01*
X625872Y84964D01*
X625894Y84853D01*
X625908Y84827D01*
X625915Y84798D01*
X625973Y84701D01*
X626025Y84601D01*
X626045Y84579D01*
X626060Y84554D01*
X626143Y84477D01*
X626221Y84394D01*
X626246Y84380D01*
X626267Y84360D01*
X626368Y84308D01*
X626466Y84251D01*
X626494Y84244D01*
X626521Y84230D01*
X626598Y84217D01*
X626742Y84181D01*
X626804Y84183D01*
X626852Y84175D01*
X643475Y84175D01*
X643562Y84187D01*
X643649Y84190D01*
X643702Y84207D01*
X643757Y84214D01*
X643836Y84250D01*
X643920Y84277D01*
X643959Y84305D01*
X644016Y84331D01*
X644129Y84427D01*
X644193Y84472D01*
X645701Y85980D01*
X649699Y85980D01*
X652527Y83152D01*
X652527Y79154D01*
X649699Y76326D01*
X645701Y76326D01*
X644247Y77780D01*
X644177Y77832D01*
X644113Y77892D01*
X644064Y77918D01*
X644020Y77951D01*
X643938Y77982D01*
X643860Y78022D01*
X643813Y78030D01*
X643754Y78052D01*
X643607Y78064D01*
X643529Y78077D01*
X507972Y78077D01*
X507943Y78073D01*
X507914Y78075D01*
X507803Y78053D01*
X507691Y78037D01*
X507664Y78025D01*
X507635Y78020D01*
X507535Y77967D01*
X507431Y77921D01*
X507409Y77902D01*
X507383Y77889D01*
X507301Y77811D01*
X507214Y77737D01*
X507198Y77713D01*
X507177Y77693D01*
X507120Y77595D01*
X507057Y77501D01*
X507048Y77473D01*
X507033Y77448D01*
X507005Y77338D01*
X506971Y77230D01*
X506970Y77200D01*
X506963Y77172D01*
X506967Y77059D01*
X506964Y76946D01*
X506971Y76917D01*
X506972Y76888D01*
X507007Y76780D01*
X507035Y76671D01*
X507050Y76645D01*
X507059Y76617D01*
X507105Y76554D01*
X507181Y76426D01*
X507226Y76383D01*
X507254Y76344D01*
X528436Y55162D01*
X531115Y52484D01*
X531115Y36394D01*
X531127Y36308D01*
X531130Y36220D01*
X531147Y36168D01*
X531155Y36113D01*
X531190Y36033D01*
X531217Y35950D01*
X531245Y35910D01*
X531271Y35853D01*
X531367Y35740D01*
X531412Y35676D01*
X547486Y19602D01*
X547556Y19550D01*
X547620Y19490D01*
X547669Y19464D01*
X547714Y19431D01*
X547795Y19400D01*
X547873Y19360D01*
X547921Y19352D01*
X547979Y19330D01*
X548127Y19318D01*
X548204Y19305D01*
X593718Y19305D01*
X593805Y19317D01*
X593892Y19320D01*
X593945Y19337D01*
X594000Y19345D01*
X594079Y19380D01*
X594163Y19407D01*
X594202Y19435D01*
X594259Y19461D01*
X594372Y19557D01*
X594436Y19602D01*
X594901Y20067D01*
X598899Y20067D01*
X601727Y17239D01*
X601727Y13241D01*
X598899Y10413D01*
X594901Y10413D01*
G37*
%LPD*%
%LPC*%
G36*
X199931Y214883D02*
X199931Y214883D01*
X197103Y217711D01*
X197103Y221709D01*
X199931Y224537D01*
X202438Y224537D01*
X202496Y224545D01*
X202554Y224543D01*
X202636Y224565D01*
X202720Y224577D01*
X202773Y224600D01*
X202829Y224615D01*
X202902Y224658D01*
X202979Y224693D01*
X203024Y224731D01*
X203074Y224760D01*
X203132Y224822D01*
X203196Y224876D01*
X203228Y224925D01*
X203268Y224968D01*
X203307Y225043D01*
X203354Y225113D01*
X203371Y225169D01*
X203398Y225221D01*
X203409Y225289D01*
X203439Y225384D01*
X203442Y225484D01*
X203453Y225552D01*
X203453Y226441D01*
X203446Y226493D01*
X203447Y226520D01*
X203446Y226523D01*
X203447Y226557D01*
X203425Y226639D01*
X203413Y226723D01*
X203390Y226776D01*
X203375Y226832D01*
X203332Y226905D01*
X203297Y226982D01*
X203259Y227027D01*
X203230Y227077D01*
X203168Y227135D01*
X203114Y227199D01*
X203065Y227231D01*
X203022Y227271D01*
X202947Y227310D01*
X202877Y227357D01*
X202821Y227374D01*
X202769Y227401D01*
X202701Y227412D01*
X202606Y227442D01*
X202506Y227445D01*
X202438Y227456D01*
X200523Y227456D01*
X197695Y230284D01*
X197695Y234282D01*
X200523Y237110D01*
X204724Y237110D01*
X204753Y237099D01*
X204782Y237096D01*
X204810Y237087D01*
X204923Y237085D01*
X205036Y237075D01*
X205065Y237081D01*
X205094Y237080D01*
X205204Y237109D01*
X205315Y237131D01*
X205341Y237145D01*
X205369Y237152D01*
X205466Y237210D01*
X205567Y237262D01*
X205588Y237282D01*
X205614Y237297D01*
X205691Y237380D01*
X205773Y237458D01*
X205788Y237483D01*
X205808Y237505D01*
X205860Y237605D01*
X205917Y237703D01*
X205924Y237731D01*
X205938Y237758D01*
X205951Y237835D01*
X205987Y237978D01*
X205985Y238041D01*
X205993Y238089D01*
X205993Y240378D01*
X208821Y243206D01*
X212819Y243206D01*
X214300Y241725D01*
X214370Y241673D01*
X214434Y241613D01*
X214483Y241587D01*
X214527Y241554D01*
X214609Y241523D01*
X214687Y241483D01*
X214734Y241475D01*
X214793Y241453D01*
X214940Y241441D01*
X215018Y241428D01*
X349758Y241428D01*
X349816Y241436D01*
X349874Y241434D01*
X349956Y241456D01*
X350040Y241468D01*
X350093Y241491D01*
X350149Y241506D01*
X350200Y241536D01*
X350203Y241537D01*
X350209Y241541D01*
X350222Y241549D01*
X350299Y241584D01*
X350344Y241622D01*
X350394Y241651D01*
X350452Y241713D01*
X350464Y241723D01*
X350476Y241732D01*
X350487Y241743D01*
X350516Y241767D01*
X350525Y241781D01*
X353601Y244857D01*
X357599Y244857D01*
X359080Y243376D01*
X359150Y243324D01*
X359214Y243264D01*
X359263Y243238D01*
X359307Y243205D01*
X359389Y243174D01*
X359467Y243134D01*
X359514Y243126D01*
X359573Y243104D01*
X359720Y243092D01*
X359798Y243079D01*
X376507Y243079D01*
X376593Y243091D01*
X376681Y243094D01*
X376733Y243111D01*
X376788Y243119D01*
X376868Y243154D01*
X376951Y243181D01*
X376986Y243206D01*
X385002Y243206D01*
X385003Y243205D01*
X385084Y243174D01*
X385162Y243134D01*
X385210Y243126D01*
X385268Y243104D01*
X385416Y243092D01*
X385493Y243079D01*
X644772Y243079D01*
X644859Y243091D01*
X644946Y243094D01*
X644999Y243111D01*
X645054Y243119D01*
X645133Y243154D01*
X645217Y243181D01*
X645256Y243209D01*
X645313Y243235D01*
X645426Y243331D01*
X645490Y243376D01*
X646971Y244857D01*
X650969Y244857D01*
X653797Y242029D01*
X653797Y238031D01*
X650969Y235203D01*
X646971Y235203D01*
X645490Y236684D01*
X645420Y236736D01*
X645356Y236796D01*
X645307Y236822D01*
X645263Y236855D01*
X645181Y236886D01*
X645103Y236926D01*
X645056Y236934D01*
X644997Y236956D01*
X644850Y236968D01*
X644772Y236981D01*
X627260Y236981D01*
X627231Y236977D01*
X627201Y236980D01*
X627090Y236957D01*
X626978Y236941D01*
X626952Y236929D01*
X626923Y236924D01*
X626822Y236871D01*
X626719Y236825D01*
X626696Y236806D01*
X626670Y236793D01*
X626588Y236715D01*
X626502Y236642D01*
X626486Y236617D01*
X626464Y236597D01*
X626407Y236499D01*
X626344Y236405D01*
X626335Y236377D01*
X626321Y236352D01*
X626293Y236242D01*
X626258Y236134D01*
X626258Y236104D01*
X626251Y236076D01*
X626254Y235963D01*
X626251Y235850D01*
X626259Y235821D01*
X626260Y235792D01*
X626294Y235684D01*
X626323Y235575D01*
X626338Y235549D01*
X626347Y235521D01*
X626393Y235457D01*
X626468Y235330D01*
X626514Y235287D01*
X626542Y235248D01*
X627127Y234663D01*
X627127Y230251D01*
X627135Y230193D01*
X627133Y230135D01*
X627155Y230053D01*
X627167Y229969D01*
X627190Y229916D01*
X627205Y229860D01*
X627248Y229787D01*
X627283Y229710D01*
X627321Y229665D01*
X627350Y229615D01*
X627412Y229557D01*
X627466Y229493D01*
X627515Y229461D01*
X627558Y229421D01*
X627633Y229382D01*
X627703Y229335D01*
X627759Y229318D01*
X627811Y229291D01*
X627879Y229280D01*
X627974Y229250D01*
X628074Y229247D01*
X628142Y229236D01*
X668902Y229236D01*
X668989Y229248D01*
X669076Y229251D01*
X669129Y229268D01*
X669184Y229276D01*
X669263Y229311D01*
X669347Y229338D01*
X669386Y229366D01*
X669443Y229392D01*
X669556Y229488D01*
X669620Y229533D01*
X671101Y231014D01*
X675099Y231014D01*
X677927Y228186D01*
X677927Y223774D01*
X677935Y223716D01*
X677933Y223658D01*
X677955Y223576D01*
X677967Y223492D01*
X677990Y223439D01*
X678005Y223383D01*
X678048Y223310D01*
X678083Y223233D01*
X678121Y223188D01*
X678150Y223138D01*
X678212Y223080D01*
X678266Y223016D01*
X678315Y222984D01*
X678358Y222944D01*
X678433Y222905D01*
X678503Y222858D01*
X678559Y222841D01*
X678611Y222814D01*
X678679Y222803D01*
X678774Y222773D01*
X678874Y222770D01*
X678942Y222759D01*
X693032Y222759D01*
X693119Y222771D01*
X693206Y222774D01*
X693259Y222791D01*
X693314Y222799D01*
X693393Y222834D01*
X693477Y222861D01*
X693516Y222889D01*
X693573Y222915D01*
X693686Y223011D01*
X693750Y223056D01*
X696501Y225807D01*
X700499Y225807D01*
X703327Y222979D01*
X703327Y218981D01*
X700499Y216153D01*
X696501Y216153D01*
X696290Y216364D01*
X696220Y216416D01*
X696156Y216476D01*
X696107Y216502D01*
X696063Y216535D01*
X695981Y216566D01*
X695903Y216606D01*
X695856Y216614D01*
X695797Y216636D01*
X695650Y216648D01*
X695572Y216661D01*
X435998Y216661D01*
X435911Y216649D01*
X435824Y216646D01*
X435771Y216629D01*
X435716Y216621D01*
X435637Y216586D01*
X435553Y216559D01*
X435514Y216531D01*
X435457Y216505D01*
X435344Y216409D01*
X435280Y216364D01*
X433799Y214883D01*
X429801Y214883D01*
X428320Y216364D01*
X428250Y216416D01*
X428186Y216476D01*
X428137Y216502D01*
X428093Y216535D01*
X428011Y216566D01*
X427933Y216606D01*
X427886Y216614D01*
X427827Y216636D01*
X427680Y216648D01*
X427602Y216661D01*
X206128Y216661D01*
X206041Y216649D01*
X205954Y216646D01*
X205901Y216629D01*
X205846Y216621D01*
X205767Y216586D01*
X205683Y216559D01*
X205644Y216531D01*
X205587Y216505D01*
X205474Y216409D01*
X205410Y216364D01*
X203929Y214883D01*
X199931Y214883D01*
G37*
%LPD*%
%LPC*%
G36*
X747301Y198373D02*
X747301Y198373D01*
X744550Y201124D01*
X744480Y201176D01*
X744416Y201236D01*
X744367Y201262D01*
X744323Y201295D01*
X744241Y201326D01*
X744163Y201366D01*
X744116Y201374D01*
X744057Y201396D01*
X743910Y201408D01*
X743832Y201421D01*
X295028Y201421D01*
X294941Y201409D01*
X294854Y201406D01*
X294801Y201389D01*
X294746Y201381D01*
X294667Y201346D01*
X294583Y201319D01*
X294544Y201291D01*
X294487Y201265D01*
X294374Y201169D01*
X294310Y201124D01*
X292829Y199643D01*
X288831Y199643D01*
X286003Y202471D01*
X286003Y206469D01*
X288831Y209297D01*
X292829Y209297D01*
X294310Y207816D01*
X294380Y207764D01*
X294444Y207704D01*
X294493Y207678D01*
X294537Y207645D01*
X294619Y207614D01*
X294697Y207574D01*
X294744Y207566D01*
X294803Y207544D01*
X294950Y207532D01*
X295028Y207519D01*
X746372Y207519D01*
X746459Y207531D01*
X746546Y207534D01*
X746599Y207551D01*
X746654Y207559D01*
X746733Y207594D01*
X746817Y207621D01*
X746856Y207649D01*
X746913Y207675D01*
X747026Y207771D01*
X747090Y207816D01*
X747301Y208027D01*
X751299Y208027D01*
X754127Y205199D01*
X754127Y201201D01*
X751299Y198373D01*
X747301Y198373D01*
G37*
%LPD*%
%LPC*%
G36*
X32291Y185673D02*
X32291Y185673D01*
X29463Y188501D01*
X29463Y192499D01*
X29928Y192964D01*
X29980Y193034D01*
X30040Y193098D01*
X30066Y193147D01*
X30099Y193191D01*
X30130Y193273D01*
X30170Y193351D01*
X30178Y193398D01*
X30200Y193457D01*
X30212Y193604D01*
X30225Y193682D01*
X30225Y209964D01*
X51656Y231395D01*
X81694Y231395D01*
X85206Y227882D01*
X85276Y227830D01*
X85340Y227770D01*
X85389Y227744D01*
X85434Y227711D01*
X85515Y227680D01*
X85593Y227640D01*
X85641Y227632D01*
X85699Y227610D01*
X85847Y227598D01*
X85924Y227585D01*
X114300Y227585D01*
X114358Y227593D01*
X114416Y227591D01*
X114498Y227613D01*
X114582Y227625D01*
X114635Y227648D01*
X114691Y227663D01*
X114764Y227706D01*
X114841Y227741D01*
X114886Y227779D01*
X114936Y227808D01*
X114994Y227870D01*
X115058Y227924D01*
X115090Y227973D01*
X115130Y228016D01*
X115169Y228091D01*
X115216Y228161D01*
X115233Y228217D01*
X115260Y228269D01*
X115271Y228337D01*
X115301Y228432D01*
X115304Y228532D01*
X115315Y228600D01*
X115315Y284916D01*
X115303Y285002D01*
X115300Y285090D01*
X115283Y285142D01*
X115275Y285197D01*
X115240Y285277D01*
X115213Y285360D01*
X115185Y285400D01*
X115159Y285457D01*
X115063Y285570D01*
X115018Y285634D01*
X107326Y293326D01*
X107256Y293378D01*
X107192Y293438D01*
X107143Y293464D01*
X107098Y293497D01*
X107017Y293528D01*
X106939Y293568D01*
X106891Y293576D01*
X106833Y293598D01*
X106685Y293610D01*
X106608Y293623D01*
X105951Y293623D01*
X103123Y296451D01*
X103123Y300449D01*
X105951Y303277D01*
X109949Y303277D01*
X112777Y300449D01*
X112777Y299792D01*
X112789Y299706D01*
X112792Y299618D01*
X112809Y299566D01*
X112817Y299511D01*
X112852Y299431D01*
X112879Y299348D01*
X112907Y299308D01*
X112933Y299251D01*
X113029Y299138D01*
X113074Y299074D01*
X123445Y288704D01*
X123445Y226702D01*
X123457Y226615D01*
X123460Y226528D01*
X123477Y226475D01*
X123485Y226420D01*
X123520Y226341D01*
X123547Y226257D01*
X123575Y226218D01*
X123601Y226161D01*
X123697Y226048D01*
X123742Y225984D01*
X124207Y225519D01*
X124207Y221521D01*
X121379Y218693D01*
X117381Y218693D01*
X116916Y219158D01*
X116846Y219210D01*
X116782Y219270D01*
X116733Y219296D01*
X116689Y219329D01*
X116607Y219360D01*
X116529Y219400D01*
X116482Y219408D01*
X116423Y219430D01*
X116276Y219442D01*
X116198Y219455D01*
X82136Y219455D01*
X78624Y222968D01*
X78554Y223020D01*
X78490Y223080D01*
X78441Y223106D01*
X78396Y223139D01*
X78315Y223170D01*
X78237Y223210D01*
X78189Y223218D01*
X78131Y223240D01*
X77983Y223252D01*
X77906Y223265D01*
X75057Y223265D01*
X74999Y223257D01*
X74941Y223259D01*
X74859Y223237D01*
X74775Y223225D01*
X74722Y223202D01*
X74666Y223187D01*
X74593Y223144D01*
X74516Y223109D01*
X74471Y223071D01*
X74421Y223042D01*
X74363Y222980D01*
X74299Y222926D01*
X74267Y222877D01*
X74227Y222834D01*
X74188Y222759D01*
X74141Y222689D01*
X74124Y222633D01*
X74097Y222581D01*
X74086Y222513D01*
X74056Y222418D01*
X74053Y222318D01*
X74042Y222250D01*
X74042Y220417D01*
X74054Y220331D01*
X74057Y220243D01*
X74074Y220191D01*
X74082Y220136D01*
X74117Y220056D01*
X74144Y219973D01*
X74172Y219933D01*
X74198Y219876D01*
X74294Y219763D01*
X74339Y219699D01*
X78094Y215944D01*
X78164Y215892D01*
X78228Y215832D01*
X78277Y215806D01*
X78322Y215773D01*
X78403Y215742D01*
X78481Y215702D01*
X78529Y215694D01*
X78587Y215672D01*
X78735Y215660D01*
X78812Y215647D01*
X79469Y215647D01*
X82297Y212819D01*
X82297Y208821D01*
X79469Y205993D01*
X75471Y205993D01*
X73968Y207496D01*
X73921Y207531D01*
X73881Y207574D01*
X73808Y207616D01*
X73741Y207667D01*
X73686Y207688D01*
X73636Y207717D01*
X73554Y207738D01*
X73475Y207768D01*
X73417Y207773D01*
X73360Y207787D01*
X73276Y207785D01*
X73192Y207792D01*
X73135Y207780D01*
X73076Y207778D01*
X72996Y207752D01*
X72913Y207736D01*
X72861Y207709D01*
X72806Y207691D01*
X72749Y207651D01*
X72661Y207605D01*
X72588Y207536D01*
X72562Y207517D01*
X56987Y207517D01*
X55738Y208766D01*
X55691Y208801D01*
X55651Y208844D01*
X55578Y208886D01*
X55511Y208937D01*
X55456Y208958D01*
X55406Y208987D01*
X55324Y209008D01*
X55245Y209038D01*
X55187Y209043D01*
X55130Y209057D01*
X55046Y209055D01*
X54962Y209062D01*
X54904Y209050D01*
X54846Y209048D01*
X54766Y209022D01*
X54683Y209006D01*
X54631Y208979D01*
X54575Y208961D01*
X54519Y208921D01*
X54431Y208875D01*
X54358Y208806D01*
X54302Y208766D01*
X54069Y208533D01*
X50071Y208533D01*
X47243Y211361D01*
X47243Y213034D01*
X47239Y213063D01*
X47242Y213092D01*
X47219Y213203D01*
X47203Y213315D01*
X47191Y213342D01*
X47186Y213371D01*
X47134Y213471D01*
X47087Y213575D01*
X47068Y213597D01*
X47055Y213623D01*
X46977Y213705D01*
X46904Y213792D01*
X46879Y213808D01*
X46859Y213829D01*
X46761Y213887D01*
X46667Y213949D01*
X46639Y213958D01*
X46614Y213973D01*
X46504Y214001D01*
X46396Y214035D01*
X46366Y214036D01*
X46338Y214043D01*
X46225Y214040D01*
X46112Y214042D01*
X46083Y214035D01*
X46054Y214034D01*
X45946Y213999D01*
X45837Y213971D01*
X45811Y213956D01*
X45783Y213947D01*
X45720Y213901D01*
X45592Y213825D01*
X45549Y213780D01*
X45510Y213752D01*
X38652Y206894D01*
X38600Y206824D01*
X38540Y206760D01*
X38514Y206711D01*
X38481Y206666D01*
X38450Y206585D01*
X38410Y206507D01*
X38402Y206459D01*
X38380Y206401D01*
X38369Y206267D01*
X38369Y206265D01*
X38368Y206253D01*
X38355Y206176D01*
X38355Y193682D01*
X38367Y193595D01*
X38370Y193508D01*
X38387Y193455D01*
X38395Y193400D01*
X38430Y193321D01*
X38457Y193237D01*
X38485Y193198D01*
X38511Y193141D01*
X38607Y193028D01*
X38652Y192964D01*
X39117Y192499D01*
X39117Y188501D01*
X36289Y185673D01*
X32291Y185673D01*
G37*
%LPD*%
%LPC*%
G36*
X490761Y18033D02*
X490761Y18033D01*
X490296Y18498D01*
X490226Y18550D01*
X490162Y18610D01*
X490113Y18636D01*
X490069Y18669D01*
X489987Y18700D01*
X489909Y18740D01*
X489862Y18748D01*
X489803Y18770D01*
X489656Y18782D01*
X489578Y18795D01*
X409796Y18795D01*
X400696Y27896D01*
X400626Y27948D01*
X400562Y28008D01*
X400513Y28034D01*
X400468Y28067D01*
X400387Y28098D01*
X400309Y28138D01*
X400261Y28146D01*
X400203Y28168D01*
X400055Y28180D01*
X399978Y28193D01*
X399321Y28193D01*
X396493Y31021D01*
X396493Y35019D01*
X399321Y37847D01*
X403319Y37847D01*
X406147Y35019D01*
X406147Y34362D01*
X406159Y34276D01*
X406162Y34188D01*
X406179Y34136D01*
X406187Y34081D01*
X406222Y34001D01*
X406249Y33918D01*
X406277Y33878D01*
X406303Y33821D01*
X406399Y33708D01*
X406444Y33644D01*
X412866Y27222D01*
X412936Y27170D01*
X413000Y27110D01*
X413049Y27084D01*
X413094Y27051D01*
X413175Y27020D01*
X413253Y26980D01*
X413301Y26972D01*
X413359Y26950D01*
X413507Y26938D01*
X413584Y26925D01*
X489578Y26925D01*
X489665Y26937D01*
X489752Y26940D01*
X489805Y26957D01*
X489860Y26965D01*
X489939Y27000D01*
X490023Y27027D01*
X490062Y27055D01*
X490119Y27081D01*
X490232Y27177D01*
X490296Y27222D01*
X490761Y27687D01*
X494759Y27687D01*
X497587Y24859D01*
X497587Y20861D01*
X494759Y18033D01*
X490761Y18033D01*
G37*
%LPD*%
%LPC*%
G36*
X155481Y147573D02*
X155481Y147573D01*
X152653Y150401D01*
X152653Y154399D01*
X155531Y157277D01*
X155583Y157347D01*
X155643Y157411D01*
X155669Y157460D01*
X155702Y157504D01*
X155733Y157586D01*
X155773Y157664D01*
X155781Y157711D01*
X155803Y157770D01*
X155815Y157917D01*
X155828Y157995D01*
X155828Y171994D01*
X157317Y173483D01*
X172883Y173483D01*
X174372Y171994D01*
X174372Y169164D01*
X174380Y169106D01*
X174378Y169048D01*
X174400Y168966D01*
X174412Y168882D01*
X174435Y168829D01*
X174450Y168773D01*
X174493Y168700D01*
X174528Y168623D01*
X174566Y168578D01*
X174595Y168528D01*
X174657Y168470D01*
X174711Y168406D01*
X174760Y168374D01*
X174803Y168334D01*
X174878Y168295D01*
X174948Y168248D01*
X175004Y168231D01*
X175056Y168204D01*
X175124Y168193D01*
X175219Y168163D01*
X175319Y168160D01*
X175387Y168149D01*
X238372Y168149D01*
X238459Y168161D01*
X238546Y168164D01*
X238599Y168181D01*
X238654Y168189D01*
X238733Y168224D01*
X238817Y168251D01*
X238856Y168279D01*
X238913Y168305D01*
X239026Y168401D01*
X239090Y168446D01*
X240571Y169927D01*
X244569Y169927D01*
X247397Y167099D01*
X247397Y163101D01*
X244569Y160273D01*
X240571Y160273D01*
X239090Y161754D01*
X239020Y161806D01*
X238956Y161866D01*
X238907Y161892D01*
X238863Y161925D01*
X238781Y161956D01*
X238703Y161996D01*
X238656Y162004D01*
X238597Y162026D01*
X238450Y162038D01*
X238372Y162051D01*
X175387Y162051D01*
X175329Y162043D01*
X175271Y162045D01*
X175189Y162023D01*
X175105Y162011D01*
X175052Y161988D01*
X174996Y161973D01*
X174923Y161930D01*
X174846Y161895D01*
X174801Y161857D01*
X174751Y161828D01*
X174693Y161766D01*
X174629Y161712D01*
X174597Y161663D01*
X174557Y161620D01*
X174518Y161545D01*
X174471Y161475D01*
X174454Y161419D01*
X174427Y161367D01*
X174416Y161299D01*
X174386Y161204D01*
X174383Y161104D01*
X174372Y161036D01*
X174372Y158206D01*
X172883Y156717D01*
X166116Y156717D01*
X166058Y156709D01*
X166000Y156711D01*
X165918Y156689D01*
X165834Y156677D01*
X165781Y156654D01*
X165725Y156639D01*
X165652Y156596D01*
X165575Y156561D01*
X165530Y156523D01*
X165480Y156494D01*
X165422Y156432D01*
X165358Y156378D01*
X165326Y156329D01*
X165286Y156286D01*
X165247Y156211D01*
X165200Y156141D01*
X165183Y156085D01*
X165156Y156033D01*
X165145Y155965D01*
X165115Y155870D01*
X165112Y155770D01*
X165101Y155702D01*
X165101Y154272D01*
X162604Y151776D01*
X162552Y151706D01*
X162492Y151642D01*
X162466Y151593D01*
X162433Y151548D01*
X162402Y151467D01*
X162362Y151389D01*
X162354Y151341D01*
X162332Y151283D01*
X162320Y151135D01*
X162307Y151058D01*
X162307Y150401D01*
X159479Y147573D01*
X155481Y147573D01*
G37*
%LPD*%
%LPC*%
G36*
X46729Y130297D02*
X46729Y130297D01*
X44788Y131102D01*
X43302Y132588D01*
X42497Y134529D01*
X42497Y136631D01*
X43302Y138572D01*
X44788Y140058D01*
X46660Y140834D01*
X46709Y140863D01*
X46763Y140884D01*
X46831Y140935D01*
X46905Y140978D01*
X46944Y141020D01*
X46990Y141055D01*
X47041Y141123D01*
X47100Y141185D01*
X47126Y141237D01*
X47161Y141283D01*
X47191Y141362D01*
X47230Y141438D01*
X47241Y141495D01*
X47262Y141549D01*
X47268Y141633D01*
X47285Y141717D01*
X47280Y141774D01*
X47285Y141832D01*
X47268Y141915D01*
X47260Y142000D01*
X47240Y142054D01*
X47228Y142111D01*
X47189Y142186D01*
X47158Y142265D01*
X47124Y142311D01*
X47097Y142363D01*
X47038Y142424D01*
X46987Y142492D01*
X46941Y142527D01*
X46901Y142568D01*
X46840Y142602D01*
X46759Y142662D01*
X46667Y142697D01*
X46607Y142730D01*
X46109Y142904D01*
X45963Y142933D01*
X45887Y142955D01*
X45191Y143033D01*
X44598Y143406D01*
X44462Y143467D01*
X44393Y143505D01*
X43732Y143736D01*
X43237Y144231D01*
X43118Y144321D01*
X43059Y144373D01*
X42466Y144746D01*
X42093Y145339D01*
X41997Y145453D01*
X41951Y145517D01*
X41456Y146012D01*
X41225Y146673D01*
X41156Y146806D01*
X41126Y146878D01*
X40753Y147471D01*
X40675Y148167D01*
X40638Y148312D01*
X40624Y148389D01*
X40393Y149050D01*
X40471Y149746D01*
X40467Y149896D01*
X40471Y149974D01*
X40393Y150670D01*
X40624Y151331D01*
X40653Y151477D01*
X40675Y151553D01*
X40753Y152249D01*
X41126Y152842D01*
X41187Y152978D01*
X41225Y153047D01*
X41456Y153708D01*
X41951Y154203D01*
X42041Y154322D01*
X42093Y154381D01*
X42466Y154974D01*
X43059Y155347D01*
X43173Y155443D01*
X43237Y155489D01*
X43732Y155984D01*
X44393Y156215D01*
X44526Y156284D01*
X44598Y156314D01*
X44906Y156508D01*
X45191Y156687D01*
X45887Y156765D01*
X46032Y156802D01*
X46109Y156816D01*
X46615Y156993D01*
X46651Y156987D01*
X46745Y156957D01*
X46846Y156954D01*
X46914Y156943D01*
X47406Y156943D01*
X47470Y156952D01*
X47520Y156949D01*
X48255Y157032D01*
X48276Y157020D01*
X48306Y157012D01*
X48333Y156998D01*
X48410Y156985D01*
X48551Y156949D01*
X48615Y156951D01*
X48664Y156943D01*
X57496Y156943D01*
X57526Y156947D01*
X57557Y156945D01*
X57667Y156967D01*
X57777Y156983D01*
X57805Y156995D01*
X57836Y157001D01*
X57893Y157033D01*
X58640Y156949D01*
X58705Y156951D01*
X58754Y156943D01*
X59246Y156943D01*
X59305Y156951D01*
X59364Y156950D01*
X59430Y156969D01*
X59527Y156983D01*
X59548Y156992D01*
X60051Y156816D01*
X60197Y156787D01*
X60273Y156765D01*
X60969Y156687D01*
X61562Y156314D01*
X61698Y156253D01*
X61767Y156215D01*
X62428Y155984D01*
X62923Y155489D01*
X63042Y155399D01*
X63101Y155347D01*
X63694Y154974D01*
X64067Y154381D01*
X64163Y154267D01*
X64209Y154203D01*
X64704Y153708D01*
X64935Y153047D01*
X65004Y152914D01*
X65034Y152842D01*
X65407Y152249D01*
X65485Y151553D01*
X65522Y151408D01*
X65536Y151331D01*
X65767Y150670D01*
X65689Y149974D01*
X65693Y149824D01*
X65689Y149746D01*
X65767Y149050D01*
X65536Y148389D01*
X65507Y148243D01*
X65485Y148167D01*
X65407Y147471D01*
X65034Y146878D01*
X64973Y146742D01*
X64935Y146673D01*
X64704Y146012D01*
X64209Y145517D01*
X64119Y145398D01*
X64067Y145339D01*
X63694Y144746D01*
X63101Y144373D01*
X62987Y144277D01*
X62923Y144231D01*
X62428Y143736D01*
X61767Y143505D01*
X61634Y143436D01*
X61562Y143406D01*
X60969Y143033D01*
X60273Y142955D01*
X60128Y142918D01*
X60051Y142904D01*
X59545Y142727D01*
X59509Y142733D01*
X59415Y142763D01*
X59314Y142766D01*
X59246Y142777D01*
X58754Y142777D01*
X58690Y142768D01*
X58640Y142771D01*
X57905Y142688D01*
X57884Y142700D01*
X57854Y142708D01*
X57827Y142722D01*
X57750Y142735D01*
X57609Y142771D01*
X57545Y142769D01*
X57496Y142777D01*
X49313Y142777D01*
X49228Y142765D01*
X49142Y142763D01*
X49088Y142745D01*
X49031Y142737D01*
X48953Y142702D01*
X48871Y142676D01*
X48824Y142644D01*
X48772Y142621D01*
X48706Y142566D01*
X48635Y142518D01*
X48598Y142474D01*
X48555Y142438D01*
X48507Y142366D01*
X48452Y142300D01*
X48429Y142248D01*
X48397Y142201D01*
X48371Y142119D01*
X48336Y142040D01*
X48329Y141984D01*
X48311Y141930D01*
X48309Y141844D01*
X48297Y141759D01*
X48306Y141703D01*
X48304Y141646D01*
X48326Y141563D01*
X48338Y141478D01*
X48362Y141426D01*
X48376Y141371D01*
X48420Y141297D01*
X48455Y141218D01*
X48492Y141175D01*
X48521Y141126D01*
X48584Y141067D01*
X48640Y141002D01*
X48681Y140976D01*
X48728Y140932D01*
X48858Y140866D01*
X48924Y140824D01*
X50772Y140058D01*
X52258Y138572D01*
X53063Y136631D01*
X53063Y134529D01*
X52258Y132588D01*
X50772Y131102D01*
X48831Y130297D01*
X46729Y130297D01*
G37*
%LPD*%
%LPC*%
G36*
X47520Y56411D02*
X47520Y56411D01*
X47455Y56409D01*
X47406Y56417D01*
X46914Y56417D01*
X46855Y56409D01*
X46796Y56410D01*
X46730Y56391D01*
X46633Y56377D01*
X46612Y56368D01*
X46109Y56544D01*
X45963Y56573D01*
X45887Y56595D01*
X45191Y56673D01*
X44598Y57046D01*
X44462Y57107D01*
X44393Y57145D01*
X43732Y57376D01*
X43237Y57871D01*
X43118Y57961D01*
X43059Y58013D01*
X42466Y58386D01*
X42093Y58979D01*
X41997Y59093D01*
X41951Y59157D01*
X41456Y59652D01*
X41225Y60313D01*
X41156Y60446D01*
X41126Y60518D01*
X40753Y61111D01*
X40675Y61807D01*
X40638Y61952D01*
X40624Y62029D01*
X40393Y62690D01*
X40471Y63386D01*
X40467Y63536D01*
X40471Y63614D01*
X40393Y64310D01*
X40624Y64971D01*
X40653Y65117D01*
X40675Y65193D01*
X40753Y65889D01*
X41126Y66482D01*
X41149Y66533D01*
X41174Y66571D01*
X41192Y66627D01*
X41225Y66687D01*
X41456Y67348D01*
X41951Y67843D01*
X42041Y67962D01*
X42093Y68021D01*
X42466Y68614D01*
X43059Y68987D01*
X43173Y69083D01*
X43237Y69129D01*
X43732Y69624D01*
X44393Y69855D01*
X44526Y69924D01*
X44598Y69954D01*
X45191Y70327D01*
X45887Y70405D01*
X46032Y70443D01*
X46109Y70456D01*
X46607Y70630D01*
X46658Y70656D01*
X46713Y70674D01*
X46784Y70721D01*
X46859Y70760D01*
X46901Y70800D01*
X46949Y70832D01*
X47004Y70897D01*
X47066Y70956D01*
X47095Y71006D01*
X47132Y71050D01*
X47167Y71128D01*
X47210Y71201D01*
X47224Y71257D01*
X47247Y71310D01*
X47259Y71394D01*
X47280Y71476D01*
X47279Y71534D01*
X47286Y71591D01*
X47274Y71675D01*
X47272Y71760D01*
X47254Y71816D01*
X47246Y71873D01*
X47211Y71950D01*
X47185Y72031D01*
X47152Y72079D01*
X47129Y72132D01*
X47074Y72196D01*
X47026Y72267D01*
X46982Y72304D01*
X46944Y72348D01*
X46885Y72385D01*
X46808Y72450D01*
X46718Y72490D01*
X46660Y72526D01*
X44788Y73302D01*
X43302Y74788D01*
X42497Y76729D01*
X42497Y78831D01*
X43302Y80772D01*
X44788Y82258D01*
X46729Y83063D01*
X48831Y83063D01*
X50772Y82258D01*
X52258Y80772D01*
X53063Y78831D01*
X53063Y76729D01*
X52258Y74788D01*
X50772Y73302D01*
X48924Y72536D01*
X48850Y72492D01*
X48772Y72457D01*
X48728Y72420D01*
X48679Y72391D01*
X48620Y72329D01*
X48555Y72273D01*
X48523Y72226D01*
X48484Y72185D01*
X48445Y72108D01*
X48397Y72037D01*
X48380Y71983D01*
X48354Y71932D01*
X48337Y71848D01*
X48311Y71766D01*
X48310Y71709D01*
X48299Y71653D01*
X48306Y71568D01*
X48304Y71482D01*
X48318Y71427D01*
X48323Y71370D01*
X48354Y71290D01*
X48376Y71207D01*
X48405Y71158D01*
X48425Y71105D01*
X48477Y71036D01*
X48521Y70962D01*
X48563Y70923D01*
X48597Y70878D01*
X48666Y70826D01*
X48728Y70768D01*
X48779Y70742D01*
X48825Y70708D01*
X48905Y70677D01*
X48982Y70638D01*
X49030Y70630D01*
X49091Y70607D01*
X49235Y70596D01*
X49313Y70583D01*
X57496Y70583D01*
X57526Y70587D01*
X57557Y70585D01*
X57667Y70607D01*
X57777Y70623D01*
X57805Y70635D01*
X57835Y70641D01*
X57893Y70673D01*
X58640Y70589D01*
X58705Y70591D01*
X58754Y70583D01*
X59246Y70583D01*
X59305Y70591D01*
X59364Y70590D01*
X59430Y70609D01*
X59527Y70623D01*
X59548Y70632D01*
X60051Y70456D01*
X60197Y70427D01*
X60273Y70405D01*
X60969Y70327D01*
X61562Y69954D01*
X61698Y69893D01*
X61767Y69855D01*
X62428Y69624D01*
X62923Y69129D01*
X63043Y69039D01*
X63101Y68987D01*
X63694Y68614D01*
X64067Y68021D01*
X64163Y67907D01*
X64209Y67843D01*
X64704Y67348D01*
X64935Y66687D01*
X64959Y66642D01*
X64965Y66618D01*
X65007Y66548D01*
X65034Y66482D01*
X65407Y65889D01*
X65485Y65193D01*
X65522Y65048D01*
X65536Y64971D01*
X65767Y64310D01*
X65689Y63614D01*
X65693Y63464D01*
X65689Y63386D01*
X65767Y62690D01*
X65536Y62029D01*
X65507Y61883D01*
X65485Y61807D01*
X65407Y61111D01*
X65034Y60518D01*
X64973Y60382D01*
X64935Y60313D01*
X64704Y59652D01*
X64209Y59157D01*
X64119Y59038D01*
X64067Y58979D01*
X63694Y58386D01*
X63101Y58013D01*
X62987Y57917D01*
X62923Y57871D01*
X62428Y57376D01*
X61767Y57145D01*
X61634Y57076D01*
X61562Y57046D01*
X61013Y56701D01*
X60969Y56673D01*
X60273Y56595D01*
X60128Y56558D01*
X60051Y56544D01*
X59545Y56367D01*
X59509Y56373D01*
X59415Y56403D01*
X59314Y56406D01*
X59246Y56417D01*
X58754Y56417D01*
X58690Y56408D01*
X58640Y56411D01*
X57905Y56328D01*
X57884Y56340D01*
X57854Y56348D01*
X57827Y56362D01*
X57750Y56375D01*
X57609Y56411D01*
X57545Y56409D01*
X57496Y56417D01*
X48664Y56417D01*
X48634Y56413D01*
X48603Y56415D01*
X48493Y56393D01*
X48383Y56377D01*
X48355Y56365D01*
X48324Y56359D01*
X48267Y56327D01*
X47520Y56411D01*
G37*
%LPD*%
%LPC*%
G36*
X553193Y287911D02*
X553193Y287911D01*
X549873Y289286D01*
X547332Y291827D01*
X545957Y295147D01*
X545957Y298741D01*
X547332Y302061D01*
X549873Y304602D01*
X553193Y305977D01*
X556787Y305977D01*
X560107Y304602D01*
X562648Y302061D01*
X564023Y298741D01*
X564023Y295147D01*
X562648Y291827D01*
X560107Y289286D01*
X556787Y287911D01*
X553193Y287911D01*
G37*
%LPD*%
%LPC*%
G36*
X553193Y55911D02*
X553193Y55911D01*
X549873Y57286D01*
X547332Y59827D01*
X545957Y63147D01*
X545957Y66741D01*
X547332Y70061D01*
X549873Y72602D01*
X553193Y73977D01*
X556787Y73977D01*
X560107Y72602D01*
X562648Y70061D01*
X564023Y66741D01*
X564023Y63147D01*
X562648Y59827D01*
X560107Y57286D01*
X556787Y55911D01*
X553193Y55911D01*
G37*
%LPD*%
G36*
X58583Y144813D02*
X58583Y144813D01*
X58586Y144811D01*
X59698Y144936D01*
X59704Y144942D01*
X59709Y144939D01*
X60766Y145309D01*
X60770Y145316D01*
X60776Y145313D01*
X61724Y145909D01*
X61727Y145917D01*
X61732Y145916D01*
X62524Y146708D01*
X62525Y146716D01*
X62531Y146716D01*
X63127Y147664D01*
X63126Y147673D01*
X63131Y147674D01*
X63501Y148731D01*
X63500Y148735D01*
X63502Y148737D01*
X63500Y148740D01*
X63504Y148742D01*
X63629Y149855D01*
X63625Y149862D01*
X63629Y149866D01*
X63504Y150978D01*
X63498Y150984D01*
X63501Y150989D01*
X63131Y152046D01*
X63125Y152050D01*
X63127Y152056D01*
X62531Y153004D01*
X62523Y153007D01*
X62524Y153012D01*
X61732Y153804D01*
X61724Y153805D01*
X61724Y153811D01*
X60776Y154407D01*
X60767Y154406D01*
X60766Y154411D01*
X59709Y154781D01*
X59701Y154779D01*
X59698Y154784D01*
X58586Y154909D01*
X58582Y154907D01*
X58580Y154909D01*
X47580Y154909D01*
X47577Y154907D01*
X47576Y154907D01*
X47575Y154909D01*
X46462Y154784D01*
X46456Y154778D01*
X46451Y154781D01*
X45394Y154411D01*
X45390Y154405D01*
X45384Y154407D01*
X44436Y153811D01*
X44433Y153803D01*
X44428Y153804D01*
X43636Y153012D01*
X43635Y153004D01*
X43629Y153004D01*
X43033Y152056D01*
X43034Y152047D01*
X43029Y152046D01*
X42659Y150989D01*
X42661Y150983D01*
X42657Y150980D01*
X42658Y150979D01*
X42656Y150978D01*
X42531Y149866D01*
X42535Y149858D01*
X42531Y149855D01*
X42656Y148742D01*
X42662Y148736D01*
X42659Y148731D01*
X43029Y147674D01*
X43036Y147670D01*
X43033Y147664D01*
X43629Y146716D01*
X43637Y146713D01*
X43636Y146708D01*
X44428Y145916D01*
X44436Y145915D01*
X44436Y145909D01*
X45384Y145313D01*
X45393Y145314D01*
X45394Y145309D01*
X46451Y144939D01*
X46459Y144941D01*
X46462Y144936D01*
X47575Y144811D01*
X47578Y144813D01*
X47580Y144811D01*
X58580Y144811D01*
X58583Y144813D01*
G37*
G36*
X58583Y58453D02*
X58583Y58453D01*
X58586Y58451D01*
X59698Y58576D01*
X59704Y58582D01*
X59709Y58579D01*
X60766Y58949D01*
X60770Y58956D01*
X60776Y58953D01*
X61724Y59549D01*
X61727Y59557D01*
X61732Y59556D01*
X62524Y60348D01*
X62525Y60356D01*
X62531Y60356D01*
X63127Y61304D01*
X63126Y61313D01*
X63131Y61314D01*
X63501Y62371D01*
X63500Y62375D01*
X63502Y62377D01*
X63500Y62380D01*
X63504Y62382D01*
X63629Y63495D01*
X63625Y63502D01*
X63629Y63506D01*
X63504Y64618D01*
X63498Y64624D01*
X63501Y64629D01*
X63131Y65686D01*
X63125Y65690D01*
X63127Y65696D01*
X62531Y66644D01*
X62523Y66647D01*
X62524Y66652D01*
X61732Y67444D01*
X61724Y67445D01*
X61724Y67451D01*
X60776Y68047D01*
X60767Y68046D01*
X60766Y68051D01*
X59709Y68421D01*
X59701Y68419D01*
X59698Y68424D01*
X58586Y68549D01*
X58582Y68547D01*
X58580Y68549D01*
X47580Y68549D01*
X47577Y68547D01*
X47576Y68547D01*
X47575Y68549D01*
X46462Y68424D01*
X46456Y68418D01*
X46451Y68421D01*
X45394Y68051D01*
X45390Y68045D01*
X45384Y68047D01*
X44436Y67451D01*
X44433Y67443D01*
X44428Y67444D01*
X43636Y66652D01*
X43635Y66644D01*
X43629Y66644D01*
X43033Y65696D01*
X43034Y65687D01*
X43029Y65686D01*
X42659Y64629D01*
X42661Y64623D01*
X42657Y64620D01*
X42658Y64619D01*
X42656Y64618D01*
X42531Y63506D01*
X42535Y63498D01*
X42531Y63495D01*
X42656Y62382D01*
X42662Y62376D01*
X42659Y62371D01*
X43029Y61314D01*
X43036Y61310D01*
X43033Y61304D01*
X43629Y60356D01*
X43637Y60353D01*
X43636Y60348D01*
X44428Y59556D01*
X44436Y59555D01*
X44436Y59549D01*
X45384Y58953D01*
X45393Y58954D01*
X45394Y58949D01*
X46451Y58579D01*
X46459Y58581D01*
X46462Y58576D01*
X47575Y58451D01*
X47578Y58453D01*
X47580Y58451D01*
X58580Y58451D01*
X58583Y58453D01*
G37*
G36*
X14283Y144813D02*
X14283Y144813D01*
X14286Y144811D01*
X15398Y144936D01*
X15404Y144942D01*
X15409Y144939D01*
X16466Y145309D01*
X16470Y145316D01*
X16476Y145313D01*
X17424Y145909D01*
X17427Y145917D01*
X17432Y145916D01*
X18224Y146708D01*
X18225Y146716D01*
X18231Y146716D01*
X18827Y147664D01*
X18826Y147673D01*
X18831Y147674D01*
X19201Y148731D01*
X19200Y148735D01*
X19202Y148737D01*
X19200Y148740D01*
X19204Y148742D01*
X19329Y149855D01*
X19325Y149862D01*
X19329Y149866D01*
X19204Y150978D01*
X19198Y150984D01*
X19201Y150989D01*
X18831Y152046D01*
X18825Y152050D01*
X18827Y152056D01*
X18231Y153004D01*
X18223Y153007D01*
X18224Y153012D01*
X17432Y153804D01*
X17424Y153805D01*
X17424Y153811D01*
X16476Y154407D01*
X16467Y154406D01*
X16466Y154411D01*
X15409Y154781D01*
X15401Y154779D01*
X15398Y154784D01*
X14286Y154909D01*
X14282Y154907D01*
X14280Y154909D01*
X8280Y154909D01*
X8277Y154907D01*
X8276Y154907D01*
X8275Y154909D01*
X7162Y154784D01*
X7156Y154778D01*
X7151Y154781D01*
X6094Y154411D01*
X6090Y154405D01*
X6084Y154407D01*
X5136Y153811D01*
X5133Y153803D01*
X5128Y153804D01*
X4336Y153012D01*
X4335Y153004D01*
X4329Y153004D01*
X3733Y152056D01*
X3734Y152047D01*
X3729Y152046D01*
X3359Y150989D01*
X3361Y150983D01*
X3357Y150980D01*
X3358Y150979D01*
X3356Y150978D01*
X3231Y149866D01*
X3235Y149858D01*
X3231Y149855D01*
X3356Y148742D01*
X3362Y148736D01*
X3359Y148731D01*
X3729Y147674D01*
X3736Y147670D01*
X3733Y147664D01*
X4329Y146716D01*
X4337Y146713D01*
X4336Y146708D01*
X5128Y145916D01*
X5136Y145915D01*
X5136Y145909D01*
X6084Y145313D01*
X6093Y145314D01*
X6094Y145309D01*
X7151Y144939D01*
X7159Y144941D01*
X7162Y144936D01*
X8275Y144811D01*
X8278Y144813D01*
X8280Y144811D01*
X14280Y144811D01*
X14283Y144813D01*
G37*
G36*
X14283Y58453D02*
X14283Y58453D01*
X14286Y58451D01*
X15398Y58576D01*
X15404Y58582D01*
X15409Y58579D01*
X16466Y58949D01*
X16470Y58956D01*
X16476Y58953D01*
X17424Y59549D01*
X17427Y59557D01*
X17432Y59556D01*
X18224Y60348D01*
X18225Y60356D01*
X18231Y60356D01*
X18827Y61304D01*
X18826Y61313D01*
X18831Y61314D01*
X19201Y62371D01*
X19200Y62375D01*
X19202Y62377D01*
X19200Y62380D01*
X19204Y62382D01*
X19329Y63495D01*
X19325Y63502D01*
X19329Y63506D01*
X19204Y64618D01*
X19198Y64624D01*
X19201Y64629D01*
X18831Y65686D01*
X18825Y65690D01*
X18827Y65696D01*
X18231Y66644D01*
X18223Y66647D01*
X18224Y66652D01*
X17432Y67444D01*
X17424Y67445D01*
X17424Y67451D01*
X16476Y68047D01*
X16467Y68046D01*
X16466Y68051D01*
X15409Y68421D01*
X15401Y68419D01*
X15398Y68424D01*
X14286Y68549D01*
X14282Y68547D01*
X14280Y68549D01*
X8280Y68549D01*
X8277Y68547D01*
X8276Y68547D01*
X8275Y68549D01*
X7162Y68424D01*
X7156Y68418D01*
X7151Y68421D01*
X6094Y68051D01*
X6090Y68045D01*
X6084Y68047D01*
X5136Y67451D01*
X5133Y67443D01*
X5128Y67444D01*
X4336Y66652D01*
X4335Y66644D01*
X4329Y66644D01*
X3733Y65696D01*
X3734Y65687D01*
X3729Y65686D01*
X3359Y64629D01*
X3361Y64623D01*
X3357Y64620D01*
X3358Y64619D01*
X3356Y64618D01*
X3231Y63506D01*
X3235Y63498D01*
X3231Y63495D01*
X3356Y62382D01*
X3362Y62376D01*
X3359Y62371D01*
X3729Y61314D01*
X3736Y61310D01*
X3733Y61304D01*
X4329Y60356D01*
X4337Y60353D01*
X4336Y60348D01*
X5128Y59556D01*
X5136Y59555D01*
X5136Y59549D01*
X6084Y58953D01*
X6093Y58954D01*
X6094Y58949D01*
X7151Y58579D01*
X7159Y58581D01*
X7162Y58576D01*
X8275Y58451D01*
X8278Y58453D01*
X8280Y58451D01*
X14280Y58451D01*
X14283Y58453D01*
G37*
%LPC*%
G36*
X14731Y173481D02*
X14731Y173481D01*
X14731Y183216D01*
X15496Y183095D01*
X17283Y182514D01*
X18957Y181661D01*
X20478Y180556D01*
X21806Y179228D01*
X22911Y177707D01*
X23764Y176033D01*
X24345Y174246D01*
X24466Y173481D01*
X14731Y173481D01*
G37*
%LPD*%
%LPC*%
G36*
X256031Y340869D02*
X256031Y340869D01*
X265766Y340869D01*
X265645Y340104D01*
X265064Y338317D01*
X264211Y336643D01*
X263106Y335122D01*
X261778Y333794D01*
X260257Y332689D01*
X258583Y331836D01*
X256796Y331255D01*
X256031Y331134D01*
X256031Y340869D01*
G37*
%LPD*%
%LPC*%
G36*
X14731Y169419D02*
X14731Y169419D01*
X24466Y169419D01*
X24345Y168654D01*
X23764Y166867D01*
X22911Y165193D01*
X21806Y163672D01*
X20478Y162344D01*
X18957Y161239D01*
X17283Y160386D01*
X15496Y159805D01*
X14731Y159684D01*
X14731Y169419D01*
G37*
%LPD*%
%LPC*%
G36*
X251204Y331255D02*
X251204Y331255D01*
X249417Y331836D01*
X247743Y332689D01*
X246222Y333794D01*
X244894Y335122D01*
X243789Y336643D01*
X242936Y338317D01*
X242355Y340104D01*
X242234Y340869D01*
X251969Y340869D01*
X251969Y331134D01*
X251204Y331255D01*
G37*
%LPD*%
G36*
X106953Y76848D02*
X106953Y76848D01*
X106975Y76851D01*
X106982Y76867D01*
X106991Y76873D01*
X106990Y76883D01*
X106997Y76899D01*
X106997Y85725D01*
X106985Y85744D01*
X106981Y85766D01*
X106966Y85773D01*
X106960Y85782D01*
X106950Y85781D01*
X106934Y85788D01*
X101346Y85788D01*
X101327Y85776D01*
X101305Y85772D01*
X101298Y85757D01*
X101289Y85751D01*
X101290Y85741D01*
X101283Y85725D01*
X101283Y76899D01*
X101295Y76880D01*
X101299Y76857D01*
X101314Y76850D01*
X101320Y76841D01*
X101330Y76843D01*
X101346Y76836D01*
X106934Y76836D01*
X106953Y76848D01*
G37*
G36*
X159404Y335229D02*
X159404Y335229D01*
X159426Y335233D01*
X159433Y335248D01*
X159442Y335254D01*
X159441Y335264D01*
X159448Y335280D01*
X159448Y337820D01*
X159436Y337839D01*
X159432Y337861D01*
X159417Y337868D01*
X159411Y337877D01*
X159401Y337876D01*
X159385Y337883D01*
X150559Y337883D01*
X150540Y337871D01*
X150517Y337867D01*
X150510Y337852D01*
X150501Y337846D01*
X150503Y337836D01*
X150496Y337820D01*
X150496Y335280D01*
X150508Y335261D01*
X150511Y335239D01*
X150527Y335232D01*
X150533Y335223D01*
X150543Y335224D01*
X150559Y335217D01*
X159385Y335217D01*
X159404Y335229D01*
G37*
D10*
X89599Y11853D02*
X87341Y5080D01*
X85083Y11853D01*
X79876Y10160D02*
X79874Y10360D01*
X79866Y10560D01*
X79855Y10759D01*
X79838Y10958D01*
X79816Y11157D01*
X79790Y11355D01*
X79759Y11553D01*
X79724Y11749D01*
X79683Y11945D01*
X79639Y12140D01*
X79589Y12334D01*
X79535Y12526D01*
X79476Y12717D01*
X79413Y12907D01*
X79345Y13095D01*
X79273Y13281D01*
X79196Y13466D01*
X79115Y13648D01*
X79029Y13829D01*
X78998Y13913D01*
X78964Y13995D01*
X78926Y14076D01*
X78885Y14156D01*
X78840Y14233D01*
X78793Y14308D01*
X78742Y14382D01*
X78687Y14453D01*
X78630Y14521D01*
X78570Y14588D01*
X78507Y14651D01*
X78442Y14712D01*
X78374Y14770D01*
X78304Y14825D01*
X78231Y14877D01*
X78156Y14925D01*
X78079Y14971D01*
X78001Y15013D01*
X77920Y15052D01*
X77838Y15087D01*
X77755Y15119D01*
X77670Y15147D01*
X77584Y15172D01*
X77497Y15192D01*
X77410Y15210D01*
X77321Y15223D01*
X77232Y15232D01*
X77143Y15238D01*
X77054Y15240D01*
X76965Y15238D01*
X76876Y15232D01*
X76787Y15223D01*
X76698Y15210D01*
X76611Y15192D01*
X76524Y15172D01*
X76438Y15147D01*
X76353Y15119D01*
X76270Y15087D01*
X76188Y15052D01*
X76107Y15013D01*
X76029Y14971D01*
X75952Y14925D01*
X75877Y14877D01*
X75804Y14825D01*
X75734Y14770D01*
X75666Y14712D01*
X75601Y14651D01*
X75538Y14588D01*
X75478Y14521D01*
X75421Y14453D01*
X75366Y14382D01*
X75315Y14308D01*
X75268Y14233D01*
X75223Y14156D01*
X75182Y14076D01*
X75144Y13995D01*
X75110Y13913D01*
X75079Y13829D01*
X74993Y13648D01*
X74912Y13465D01*
X74835Y13281D01*
X74763Y13094D01*
X74695Y12906D01*
X74632Y12717D01*
X74573Y12526D01*
X74519Y12333D01*
X74469Y12140D01*
X74425Y11945D01*
X74384Y11749D01*
X74349Y11553D01*
X74318Y11355D01*
X74292Y11157D01*
X74270Y10958D01*
X74253Y10759D01*
X74242Y10560D01*
X74234Y10360D01*
X74232Y10160D01*
X79876Y10160D02*
X79874Y9960D01*
X79866Y9760D01*
X79855Y9561D01*
X79838Y9362D01*
X79816Y9163D01*
X79790Y8965D01*
X79759Y8767D01*
X79724Y8571D01*
X79683Y8375D01*
X79639Y8180D01*
X79589Y7986D01*
X79535Y7794D01*
X79476Y7603D01*
X79413Y7413D01*
X79345Y7225D01*
X79273Y7039D01*
X79196Y6854D01*
X79115Y6672D01*
X79029Y6491D01*
X78998Y6407D01*
X78964Y6325D01*
X78926Y6244D01*
X78885Y6164D01*
X78840Y6087D01*
X78793Y6012D01*
X78741Y5938D01*
X78687Y5867D01*
X78630Y5799D01*
X78570Y5732D01*
X78507Y5669D01*
X78442Y5608D01*
X78374Y5550D01*
X78304Y5495D01*
X78231Y5443D01*
X78156Y5395D01*
X78079Y5349D01*
X78001Y5307D01*
X77920Y5268D01*
X77838Y5233D01*
X77755Y5201D01*
X77670Y5173D01*
X77584Y5148D01*
X77497Y5128D01*
X77410Y5110D01*
X77321Y5097D01*
X77232Y5088D01*
X77143Y5082D01*
X77054Y5080D01*
X75078Y6491D02*
X74992Y6672D01*
X74911Y6854D01*
X74834Y7039D01*
X74762Y7225D01*
X74694Y7413D01*
X74631Y7603D01*
X74572Y7794D01*
X74518Y7986D01*
X74468Y8180D01*
X74424Y8375D01*
X74383Y8571D01*
X74348Y8767D01*
X74317Y8965D01*
X74291Y9163D01*
X74269Y9362D01*
X74252Y9561D01*
X74241Y9760D01*
X74233Y9960D01*
X74231Y10160D01*
X75079Y6491D02*
X75110Y6407D01*
X75144Y6325D01*
X75182Y6244D01*
X75223Y6164D01*
X75268Y6087D01*
X75315Y6012D01*
X75367Y5938D01*
X75421Y5867D01*
X75478Y5799D01*
X75538Y5732D01*
X75601Y5669D01*
X75666Y5608D01*
X75734Y5550D01*
X75804Y5495D01*
X75877Y5443D01*
X75952Y5395D01*
X76029Y5349D01*
X76107Y5307D01*
X76188Y5268D01*
X76270Y5233D01*
X76353Y5201D01*
X76438Y5173D01*
X76524Y5148D01*
X76611Y5128D01*
X76698Y5110D01*
X76787Y5097D01*
X76876Y5088D01*
X76965Y5082D01*
X77054Y5080D01*
X79312Y7338D02*
X74796Y12982D01*
X68446Y12982D02*
X65624Y15240D01*
X65624Y5080D01*
X68446Y5080D02*
X62802Y5080D01*
D11*
X14550Y149860D02*
X8010Y149860D01*
X8010Y63500D02*
X14550Y63500D01*
X49810Y63500D02*
X56350Y63500D01*
X56350Y149860D02*
X49810Y149860D01*
D12*
X7620Y7620D03*
X843280Y349250D03*
D13*
X443270Y137600D03*
D14*
X160414Y342405D02*
X154800Y342405D01*
X160414Y342405D02*
X160414Y330695D01*
X154800Y330695D01*
X154800Y342405D01*
X154800Y331636D02*
X160414Y331636D01*
X160414Y332577D02*
X154800Y332577D01*
X154800Y333518D02*
X160414Y333518D01*
X160414Y334459D02*
X154800Y334459D01*
X154800Y335400D02*
X160414Y335400D01*
X160414Y336341D02*
X154800Y336341D01*
X154800Y337282D02*
X160414Y337282D01*
X160414Y338223D02*
X154800Y338223D01*
X154800Y339164D02*
X160414Y339164D01*
X160414Y340105D02*
X154800Y340105D01*
X154800Y341046D02*
X160414Y341046D01*
X160414Y341987D02*
X154800Y341987D01*
X150000Y342405D02*
X144386Y342405D01*
X150000Y342405D02*
X150000Y330695D01*
X144386Y330695D01*
X144386Y342405D01*
X144386Y331636D02*
X150000Y331636D01*
X150000Y332577D02*
X144386Y332577D01*
X144386Y333518D02*
X150000Y333518D01*
X150000Y334459D02*
X144386Y334459D01*
X144386Y335400D02*
X150000Y335400D01*
X150000Y336341D02*
X144386Y336341D01*
X144386Y337282D02*
X150000Y337282D01*
X150000Y338223D02*
X144386Y338223D01*
X144386Y339164D02*
X150000Y339164D01*
X150000Y340105D02*
X144386Y340105D01*
X144386Y341046D02*
X150000Y341046D01*
X150000Y341987D02*
X144386Y341987D01*
D15*
X98298Y86487D02*
X98298Y81153D01*
X98298Y86487D02*
X109982Y86487D01*
X109982Y81153D01*
X98298Y81153D01*
X98298Y82118D02*
X109982Y82118D01*
X109982Y83083D02*
X98298Y83083D01*
X98298Y84048D02*
X109982Y84048D01*
X109982Y85013D02*
X98298Y85013D01*
X98298Y85978D02*
X109982Y85978D01*
X98298Y76327D02*
X98298Y70993D01*
X98298Y76327D02*
X109982Y76327D01*
X109982Y70993D01*
X98298Y70993D01*
X98298Y71958D02*
X109982Y71958D01*
X109982Y72923D02*
X98298Y72923D01*
X98298Y73888D02*
X109982Y73888D01*
X109982Y74853D02*
X98298Y74853D01*
X98298Y75818D02*
X109982Y75818D01*
D16*
X104140Y91440D03*
X104140Y66040D03*
D15*
X166497Y170942D02*
X171831Y170942D01*
X171831Y159258D01*
X166497Y159258D01*
X166497Y170942D01*
X166497Y160223D02*
X171831Y160223D01*
X171831Y161188D02*
X166497Y161188D01*
X166497Y162153D02*
X171831Y162153D01*
X171831Y163118D02*
X166497Y163118D01*
X166497Y164083D02*
X171831Y164083D01*
X171831Y165048D02*
X166497Y165048D01*
X166497Y166013D02*
X171831Y166013D01*
X171831Y166978D02*
X166497Y166978D01*
X166497Y167943D02*
X171831Y167943D01*
X171831Y168908D02*
X166497Y168908D01*
X166497Y169873D02*
X171831Y169873D01*
X171831Y170838D02*
X166497Y170838D01*
X163703Y170942D02*
X158369Y170942D01*
X163703Y170942D02*
X163703Y159258D01*
X158369Y159258D01*
X158369Y170942D01*
X158369Y160223D02*
X163703Y160223D01*
X163703Y161188D02*
X158369Y161188D01*
X158369Y162153D02*
X163703Y162153D01*
X163703Y163118D02*
X158369Y163118D01*
X158369Y164083D02*
X163703Y164083D01*
X163703Y165048D02*
X158369Y165048D01*
X158369Y166013D02*
X163703Y166013D01*
X163703Y166978D02*
X158369Y166978D01*
X158369Y167943D02*
X163703Y167943D01*
X163703Y168908D02*
X158369Y168908D01*
X158369Y169873D02*
X163703Y169873D01*
X163703Y170838D02*
X158369Y170838D01*
X63373Y210058D02*
X58039Y210058D01*
X58039Y221742D01*
X63373Y221742D01*
X63373Y210058D01*
X63373Y211023D02*
X58039Y211023D01*
X58039Y211988D02*
X63373Y211988D01*
X63373Y212953D02*
X58039Y212953D01*
X58039Y213918D02*
X63373Y213918D01*
X63373Y214883D02*
X58039Y214883D01*
X58039Y215848D02*
X63373Y215848D01*
X63373Y216813D02*
X58039Y216813D01*
X58039Y217778D02*
X63373Y217778D01*
X63373Y218743D02*
X58039Y218743D01*
X58039Y219708D02*
X63373Y219708D01*
X63373Y220673D02*
X58039Y220673D01*
X58039Y221638D02*
X63373Y221638D01*
X66167Y210058D02*
X71501Y210058D01*
X66167Y210058D02*
X66167Y221742D01*
X71501Y221742D01*
X71501Y210058D01*
X71501Y211023D02*
X66167Y211023D01*
X66167Y211988D02*
X71501Y211988D01*
X71501Y212953D02*
X66167Y212953D01*
X66167Y213918D02*
X71501Y213918D01*
X71501Y214883D02*
X66167Y214883D01*
X66167Y215848D02*
X71501Y215848D01*
X71501Y216813D02*
X66167Y216813D01*
X66167Y217778D02*
X71501Y217778D01*
X71501Y218743D02*
X66167Y218743D01*
X66167Y219708D02*
X71501Y219708D01*
X71501Y220673D02*
X66167Y220673D01*
X66167Y221638D02*
X71501Y221638D01*
D16*
X12700Y196850D03*
X12700Y171450D03*
X228600Y342900D03*
X254000Y342900D03*
X279400Y342900D03*
X304800Y342900D03*
X330200Y342900D03*
X355600Y342900D03*
X381000Y342900D03*
X406400Y342900D03*
X431800Y342900D03*
D17*
X175260Y279400D03*
X38100Y241300D03*
X165100Y215900D03*
X148590Y190500D03*
X88900Y152400D03*
X88900Y72390D03*
X152400Y12700D03*
X171450Y76200D03*
X201930Y92710D03*
X391160Y35560D03*
X187960Y157480D03*
X246380Y172720D03*
X571500Y283210D03*
X571500Y68580D03*
X330200Y12700D03*
X502920Y22860D03*
X241300Y12700D03*
X130810Y154940D03*
X168910Y114300D03*
X203200Y177800D03*
X342900Y254000D03*
X469900Y254000D03*
D18*
X104140Y73660D02*
X104140Y66040D01*
D19*
X190500Y66040D01*
X213360Y88900D01*
D17*
X230005Y88765D03*
D18*
X229870Y88900D01*
D19*
X213360Y88900D01*
X147193Y323977D02*
X147193Y336550D01*
X147193Y323977D02*
X158750Y312420D01*
D17*
X235077Y260477D03*
X401320Y33020D03*
D19*
X411480Y22860D01*
D17*
X492760Y22860D03*
D19*
X411480Y22860D01*
X228600Y312420D02*
X228600Y342900D01*
X228600Y312420D02*
X228600Y266954D01*
X235077Y260477D01*
X228600Y312420D02*
X158750Y312420D01*
D17*
X380830Y81450D03*
X280802Y82419D03*
D19*
X379862Y82419D02*
X380830Y81450D01*
X379862Y82419D02*
X280802Y82419D01*
D17*
X76200Y111730D03*
D18*
X107950Y111730D01*
X121890Y97790D01*
X165100Y97790D01*
D17*
X165100Y97790D03*
X170180Y90170D03*
D18*
X123190Y90170D01*
X109220Y104140D01*
X68910Y104140D01*
D17*
X68910Y104140D03*
X34290Y190500D03*
D19*
X34290Y208280D01*
X53340Y227330D01*
X83820Y223520D02*
X119380Y223520D01*
X83820Y223520D02*
X80010Y227330D01*
X53340Y227330D01*
D17*
X119380Y223520D03*
X107950Y298450D03*
D19*
X119380Y287020D01*
X119380Y223520D01*
D17*
X248920Y102870D03*
X214630Y106680D03*
D18*
X245110Y106680D02*
X248920Y102870D01*
X245110Y106680D02*
X214630Y106680D01*
D17*
X176530Y323850D03*
D18*
X176530Y330327D01*
X170307Y336550D01*
X157607Y336550D01*
D17*
X77470Y210820D03*
D19*
X72390Y215900D01*
X68834Y215900D01*
D17*
X139700Y106680D03*
X102965Y144875D03*
D19*
X121825Y144875D01*
X139700Y127000D01*
X139700Y106680D01*
D17*
X204470Y106680D03*
D19*
X227059Y95877D02*
X232951Y95877D01*
X215392Y95758D02*
X204470Y106680D01*
X215392Y95758D02*
X226940Y95758D01*
X227059Y95877D01*
X232951Y95877D02*
X238277Y90551D01*
X392049Y90551D01*
X408940Y73660D02*
X504190Y73660D01*
X527050Y50800D01*
X527050Y34290D01*
X546100Y15240D01*
X596900Y15240D01*
D17*
X596900Y15240D03*
D19*
X408940Y73660D02*
X392049Y90551D01*
D18*
X104140Y91440D02*
X104140Y83820D01*
D17*
X242570Y165100D03*
D18*
X169164Y165100D01*
D17*
X157480Y152400D03*
D19*
X161036Y155956D01*
X161036Y165100D01*
D17*
X12700Y264160D03*
D19*
X12700Y196850D01*
D17*
X412670Y88900D03*
X483730Y88900D03*
D18*
X622300Y88900D01*
D17*
X622300Y88900D03*
D18*
X483730Y88900D02*
X412670Y88900D01*
D17*
X280670Y112800D03*
D18*
X281940Y114070D01*
X383770Y114070D01*
D17*
X383770Y114070D03*
X472460Y81280D03*
D18*
X472614Y81126D01*
X647673Y81126D01*
X647700Y81153D01*
D17*
X647700Y81153D03*
X288290Y120547D03*
D18*
X393357Y120547D01*
X393460Y120650D01*
X394730Y120650D01*
D17*
X394730Y120650D03*
X208280Y226187D03*
X406273Y226187D03*
X673100Y226187D03*
D18*
X406273Y226187D02*
X208280Y226187D01*
X406273Y226187D02*
X673100Y226187D01*
X431800Y219710D02*
X201930Y219710D01*
D17*
X201930Y219710D03*
D18*
X697230Y219710D02*
X698500Y220980D01*
D17*
X698500Y220980D03*
D18*
X697230Y219710D02*
X431800Y219710D01*
D17*
X431800Y219710D03*
D18*
X381000Y232283D02*
X202522Y232283D01*
D17*
X202522Y232283D03*
X381000Y233680D03*
D18*
X381000Y232283D01*
X381000Y233680D02*
X621284Y233680D01*
X622300Y232664D01*
D17*
X622300Y232664D03*
D18*
X355600Y238379D02*
X210820Y238379D01*
D17*
X210820Y238379D03*
D18*
X355600Y238379D02*
X355600Y240030D01*
D17*
X355600Y240030D03*
X648970Y240030D03*
D18*
X378190Y240030D02*
X355600Y240030D01*
X378190Y240030D02*
X378317Y240157D01*
X383683Y240157D01*
X383810Y240030D01*
X648970Y240030D01*
D17*
X52070Y213360D03*
D19*
X54610Y215900D01*
X60706Y215900D01*
D17*
X407670Y179070D03*
D18*
X723900Y179070D01*
D17*
X723900Y179070D03*
X304800Y127800D03*
D18*
X402120Y127800D01*
X403860Y129540D01*
D17*
X403860Y129540D03*
X279400Y171450D03*
X762000Y171450D03*
D18*
X279400Y171450D01*
X431800Y204470D02*
X433070Y204470D01*
D17*
X290830Y204470D03*
D18*
X431800Y204470D01*
X433070Y204470D02*
X748030Y204470D01*
X749300Y203200D01*
D17*
X749300Y203200D03*
X293370Y106323D03*
D18*
X296466Y106323D01*
X296823Y106680D01*
X330200Y106323D02*
X332383Y104140D01*
X723900Y104140D01*
X330200Y106680D02*
X296823Y106680D01*
D17*
X723900Y104140D03*
X330200Y106323D03*
D18*
X330200Y106680D01*
D17*
X222250Y125730D03*
D18*
X232664Y115316D01*
X251753Y115316D01*
D17*
X698500Y96774D03*
D18*
X267755Y99314D02*
X251753Y115316D01*
X695960Y99314D02*
X698500Y96774D01*
X695960Y99314D02*
X267755Y99314D01*
D17*
X203200Y133350D03*
D18*
X225044Y111506D01*
X250175Y111506D01*
X266304Y95377D01*
D17*
X673100Y90297D03*
D18*
X668020Y95377D01*
X266304Y95377D01*
M02*
