G04 EAGLE Gerber RS-274X export*
G75*
%MOMM*%
%FSLAX34Y34*%
%LPD*%
%INSoldermask Top*%
%IPPOS*%
%AMOC8*
5,1,8,0,0,1.08239X$1,22.5*%
G01*
%ADD10C,0.230578*%
%ADD11C,0.225369*%
%ADD12C,0.777000*%
%ADD13C,0.225400*%
%ADD14C,0.762000*%
%ADD15C,3.429000*%
%ADD16C,0.222250*%
%ADD17C,6.127000*%
%ADD18C,0.428259*%
%ADD19C,1.227000*%
%ADD20C,1.727000*%
%ADD21C,0.225588*%
%ADD22C,0.224509*%
%ADD23C,0.229050*%
%ADD24C,2.006600*%
%ADD25C,0.227100*%
%ADD26C,0.223409*%
%ADD27C,0.228319*%
%ADD28C,1.526997*%

G36*
X59034Y143834D02*
X59034Y143834D01*
X59037Y143831D01*
X60159Y143986D01*
X60164Y143991D01*
X60168Y143988D01*
X61239Y144359D01*
X61243Y144365D01*
X61248Y144363D01*
X62225Y144936D01*
X62228Y144942D01*
X62233Y144941D01*
X63080Y145694D01*
X63082Y145701D01*
X63087Y145701D01*
X63771Y146604D01*
X63771Y146611D01*
X63776Y146612D01*
X64271Y147631D01*
X64269Y147638D01*
X64274Y147640D01*
X64561Y148737D01*
X64559Y148741D01*
X64561Y148742D01*
X64559Y148744D01*
X64562Y148746D01*
X64629Y149877D01*
X64627Y149881D01*
X64629Y149883D01*
X64562Y151014D01*
X64557Y151019D01*
X64561Y151023D01*
X64274Y152120D01*
X64268Y152124D01*
X64271Y152129D01*
X63776Y153148D01*
X63770Y153151D01*
X63771Y153156D01*
X63087Y154059D01*
X63080Y154061D01*
X63080Y154066D01*
X62233Y154819D01*
X62226Y154819D01*
X62225Y154824D01*
X61248Y155397D01*
X61241Y155396D01*
X61239Y155401D01*
X60168Y155772D01*
X60162Y155769D01*
X60159Y155774D01*
X59037Y155929D01*
X59032Y155926D01*
X59030Y155929D01*
X47030Y155929D01*
X47025Y155926D01*
X47022Y155929D01*
X45755Y155724D01*
X45749Y155718D01*
X45745Y155721D01*
X44555Y155239D01*
X44551Y155232D01*
X44545Y155234D01*
X43492Y154500D01*
X43490Y154492D01*
X43484Y154493D01*
X42621Y153543D01*
X42620Y153534D01*
X42615Y153534D01*
X41985Y152415D01*
X41986Y152407D01*
X41980Y152405D01*
X41615Y151175D01*
X41618Y151167D01*
X41613Y151164D01*
X41531Y149883D01*
X41534Y149879D01*
X41531Y149877D01*
X41613Y148596D01*
X41619Y148590D01*
X41615Y148585D01*
X41980Y147355D01*
X41987Y147350D01*
X41985Y147345D01*
X42615Y146226D01*
X42622Y146223D01*
X42621Y146217D01*
X43484Y145267D01*
X43492Y145266D01*
X43492Y145260D01*
X44545Y144526D01*
X44553Y144526D01*
X44555Y144521D01*
X45745Y144039D01*
X45752Y144041D01*
X45755Y144036D01*
X47022Y143831D01*
X47027Y143834D01*
X47030Y143831D01*
X59030Y143831D01*
X59034Y143834D01*
G37*
G36*
X59034Y57434D02*
X59034Y57434D01*
X59037Y57431D01*
X60159Y57586D01*
X60164Y57591D01*
X60168Y57588D01*
X61239Y57959D01*
X61243Y57965D01*
X61248Y57963D01*
X62225Y58536D01*
X62228Y58542D01*
X62233Y58541D01*
X63080Y59294D01*
X63082Y59301D01*
X63087Y59301D01*
X63771Y60204D01*
X63771Y60211D01*
X63776Y60212D01*
X64271Y61231D01*
X64269Y61238D01*
X64274Y61240D01*
X64561Y62337D01*
X64559Y62341D01*
X64561Y62342D01*
X64559Y62344D01*
X64562Y62346D01*
X64629Y63477D01*
X64627Y63481D01*
X64629Y63483D01*
X64562Y64614D01*
X64557Y64619D01*
X64561Y64623D01*
X64274Y65720D01*
X64268Y65724D01*
X64271Y65729D01*
X63776Y66748D01*
X63770Y66751D01*
X63771Y66756D01*
X63087Y67659D01*
X63080Y67661D01*
X63080Y67666D01*
X62233Y68419D01*
X62226Y68419D01*
X62225Y68424D01*
X61248Y68997D01*
X61241Y68996D01*
X61239Y69001D01*
X60168Y69372D01*
X60162Y69369D01*
X60159Y69374D01*
X59037Y69529D01*
X59032Y69526D01*
X59030Y69529D01*
X47030Y69529D01*
X47025Y69526D01*
X47022Y69529D01*
X45755Y69324D01*
X45749Y69318D01*
X45745Y69321D01*
X44555Y68839D01*
X44551Y68832D01*
X44545Y68834D01*
X43492Y68100D01*
X43490Y68092D01*
X43484Y68093D01*
X42621Y67143D01*
X42620Y67134D01*
X42615Y67134D01*
X41985Y66015D01*
X41986Y66007D01*
X41980Y66005D01*
X41615Y64775D01*
X41618Y64767D01*
X41613Y64764D01*
X41531Y63483D01*
X41534Y63479D01*
X41531Y63477D01*
X41613Y62196D01*
X41619Y62190D01*
X41615Y62185D01*
X41980Y60955D01*
X41987Y60950D01*
X41985Y60945D01*
X42615Y59826D01*
X42622Y59823D01*
X42621Y59817D01*
X43484Y58867D01*
X43492Y58866D01*
X43492Y58860D01*
X44545Y58126D01*
X44553Y58126D01*
X44555Y58121D01*
X45745Y57639D01*
X45752Y57641D01*
X45755Y57636D01*
X47022Y57431D01*
X47027Y57434D01*
X47030Y57431D01*
X59030Y57431D01*
X59034Y57434D01*
G37*
G36*
X14233Y143833D02*
X14233Y143833D01*
X14235Y143831D01*
X15411Y143942D01*
X15416Y143947D01*
X15420Y143944D01*
X16552Y144282D01*
X16556Y144288D01*
X16561Y144286D01*
X17605Y144838D01*
X17608Y144845D01*
X17613Y144843D01*
X18529Y145589D01*
X18530Y145596D01*
X18536Y145596D01*
X19289Y146506D01*
X19289Y146513D01*
X19294Y146514D01*
X19855Y147553D01*
X19854Y147558D01*
X19858Y147560D01*
X19857Y147561D01*
X19859Y147562D01*
X20206Y148691D01*
X20206Y148692D01*
X20207Y148693D01*
X20204Y148697D01*
X20208Y148700D01*
X20329Y149875D01*
X20325Y149882D01*
X20329Y149886D01*
X20172Y151226D01*
X20167Y151232D01*
X20170Y151237D01*
X19719Y152508D01*
X19712Y152513D01*
X19714Y152518D01*
X18992Y153657D01*
X18984Y153660D01*
X18985Y153666D01*
X18027Y154616D01*
X18019Y154617D01*
X18018Y154623D01*
X16873Y155336D01*
X16865Y155335D01*
X16863Y155341D01*
X15587Y155781D01*
X15580Y155779D01*
X15577Y155783D01*
X14235Y155929D01*
X14232Y155927D01*
X14230Y155929D01*
X8230Y155929D01*
X8227Y155927D01*
X8224Y155929D01*
X6895Y155774D01*
X6889Y155768D01*
X6885Y155771D01*
X5624Y155324D01*
X5619Y155317D01*
X5614Y155319D01*
X4484Y154602D01*
X4481Y154595D01*
X4475Y154596D01*
X3533Y153646D01*
X3532Y153637D01*
X3526Y153637D01*
X2819Y152501D01*
X2820Y152493D01*
X2814Y152491D01*
X2378Y151226D01*
X2380Y151218D01*
X2375Y151216D01*
X2231Y149885D01*
X2235Y149879D01*
X2231Y149875D01*
X2341Y148709D01*
X2346Y148704D01*
X2343Y148700D01*
X2678Y147577D01*
X2684Y147573D01*
X2682Y147569D01*
X3230Y146533D01*
X3236Y146530D01*
X3235Y146525D01*
X3974Y145617D01*
X3981Y145615D01*
X3981Y145610D01*
X4883Y144863D01*
X4891Y144863D01*
X4891Y144858D01*
X5922Y144301D01*
X5929Y144302D01*
X5931Y144297D01*
X7050Y143953D01*
X7057Y143955D01*
X7060Y143951D01*
X8225Y143831D01*
X8228Y143833D01*
X8230Y143831D01*
X14230Y143831D01*
X14233Y143833D01*
G37*
G36*
X14233Y57433D02*
X14233Y57433D01*
X14235Y57431D01*
X15411Y57542D01*
X15416Y57547D01*
X15420Y57544D01*
X16552Y57882D01*
X16556Y57888D01*
X16561Y57886D01*
X17605Y58438D01*
X17608Y58445D01*
X17613Y58443D01*
X18529Y59189D01*
X18530Y59196D01*
X18536Y59196D01*
X19289Y60106D01*
X19289Y60113D01*
X19294Y60114D01*
X19855Y61153D01*
X19854Y61158D01*
X19858Y61160D01*
X19857Y61161D01*
X19859Y61162D01*
X20206Y62291D01*
X20206Y62292D01*
X20207Y62293D01*
X20204Y62297D01*
X20208Y62300D01*
X20329Y63475D01*
X20325Y63482D01*
X20329Y63486D01*
X20172Y64826D01*
X20167Y64832D01*
X20170Y64837D01*
X19719Y66108D01*
X19712Y66113D01*
X19714Y66118D01*
X18992Y67257D01*
X18984Y67260D01*
X18985Y67266D01*
X18027Y68216D01*
X18019Y68217D01*
X18018Y68223D01*
X16873Y68936D01*
X16865Y68935D01*
X16863Y68941D01*
X15587Y69381D01*
X15580Y69379D01*
X15577Y69383D01*
X14235Y69529D01*
X14232Y69527D01*
X14230Y69529D01*
X8230Y69529D01*
X8227Y69527D01*
X8224Y69529D01*
X6895Y69374D01*
X6889Y69368D01*
X6885Y69371D01*
X5624Y68924D01*
X5619Y68917D01*
X5614Y68919D01*
X4484Y68202D01*
X4481Y68195D01*
X4475Y68196D01*
X3533Y67246D01*
X3532Y67237D01*
X3526Y67237D01*
X2819Y66101D01*
X2820Y66093D01*
X2814Y66091D01*
X2378Y64826D01*
X2380Y64818D01*
X2375Y64816D01*
X2231Y63485D01*
X2235Y63479D01*
X2231Y63475D01*
X2341Y62309D01*
X2346Y62304D01*
X2343Y62300D01*
X2678Y61177D01*
X2684Y61173D01*
X2682Y61169D01*
X3230Y60133D01*
X3236Y60130D01*
X3235Y60125D01*
X3974Y59217D01*
X3981Y59215D01*
X3981Y59210D01*
X4883Y58463D01*
X4891Y58463D01*
X4891Y58458D01*
X5922Y57901D01*
X5929Y57902D01*
X5931Y57897D01*
X7050Y57553D01*
X7057Y57555D01*
X7060Y57551D01*
X8225Y57431D01*
X8228Y57433D01*
X8230Y57431D01*
X14230Y57431D01*
X14233Y57433D01*
G37*
D10*
X54348Y98198D02*
X54348Y100162D01*
X63312Y100162D01*
X63312Y98198D01*
X54348Y98198D01*
X54348Y103198D02*
X54348Y105162D01*
X63312Y105162D01*
X63312Y103198D01*
X54348Y103198D01*
D11*
X54322Y76938D02*
X54322Y71922D01*
X54322Y76938D02*
X63338Y76938D01*
X63338Y71922D01*
X54322Y71922D01*
X54322Y74063D02*
X63338Y74063D01*
X63338Y76204D02*
X54322Y76204D01*
X54322Y79672D02*
X54322Y84688D01*
X63338Y84688D01*
X63338Y79672D01*
X54322Y79672D01*
X54322Y81813D02*
X63338Y81813D01*
X63338Y83954D02*
X54322Y83954D01*
D10*
X54348Y88198D02*
X54348Y90162D01*
X63312Y90162D01*
X63312Y88198D01*
X54348Y88198D01*
X54348Y93198D02*
X54348Y95162D01*
X63312Y95162D01*
X63312Y93198D01*
X54348Y93198D01*
X63312Y113198D02*
X63312Y115162D01*
X63312Y113198D02*
X54348Y113198D01*
X54348Y115162D01*
X63312Y115162D01*
X63312Y110162D02*
X63312Y108198D01*
X54348Y108198D01*
X54348Y110162D01*
X63312Y110162D01*
D11*
X63338Y136422D02*
X63338Y141438D01*
X63338Y136422D02*
X54322Y136422D01*
X54322Y141438D01*
X63338Y141438D01*
X63338Y138563D02*
X54322Y138563D01*
X54322Y140704D02*
X63338Y140704D01*
X63338Y133688D02*
X63338Y128672D01*
X54322Y128672D01*
X54322Y133688D01*
X63338Y133688D01*
X63338Y130813D02*
X54322Y130813D01*
X54322Y132954D02*
X63338Y132954D01*
D10*
X63312Y125162D02*
X63312Y123198D01*
X54348Y123198D01*
X54348Y125162D01*
X63312Y125162D01*
X63312Y120162D02*
X63312Y118198D01*
X54348Y118198D01*
X54348Y120162D01*
X63312Y120162D01*
D12*
X47780Y135580D03*
X47780Y77780D03*
D13*
X70422Y135572D02*
X70422Y145588D01*
X79438Y145588D01*
X79438Y135572D01*
X70422Y135572D01*
X70422Y137713D02*
X79438Y137713D01*
X79438Y139854D02*
X70422Y139854D01*
X70422Y141995D02*
X79438Y141995D01*
X79438Y144136D02*
X70422Y144136D01*
X70422Y128588D02*
X70422Y118572D01*
X70422Y128588D02*
X79438Y128588D01*
X79438Y118572D01*
X70422Y118572D01*
X70422Y120713D02*
X79438Y120713D01*
X79438Y122854D02*
X70422Y122854D01*
X70422Y124995D02*
X79438Y124995D01*
X79438Y127136D02*
X70422Y127136D01*
X79438Y77788D02*
X79438Y67772D01*
X70422Y67772D01*
X70422Y77788D01*
X79438Y77788D01*
X79438Y69913D02*
X70422Y69913D01*
X70422Y72054D02*
X79438Y72054D01*
X79438Y74195D02*
X70422Y74195D01*
X70422Y76336D02*
X79438Y76336D01*
X79438Y84772D02*
X79438Y94788D01*
X79438Y84772D02*
X70422Y84772D01*
X70422Y94788D01*
X79438Y94788D01*
X79438Y86913D02*
X70422Y86913D01*
X70422Y89054D02*
X79438Y89054D01*
X79438Y91195D02*
X70422Y91195D01*
X70422Y93336D02*
X79438Y93336D01*
D14*
X7620Y7620D03*
X843280Y349250D03*
D15*
X825500Y330200D03*
X25400Y330200D03*
X825500Y25400D03*
X25400Y25400D03*
D16*
X169386Y17304D02*
X169386Y10636D01*
X169386Y17304D02*
X183674Y17304D01*
X183674Y10636D01*
X169386Y10636D01*
X169386Y12748D02*
X183674Y12748D01*
X183674Y14860D02*
X169386Y14860D01*
X169386Y16972D02*
X183674Y16972D01*
X113506Y17304D02*
X113506Y10636D01*
X113506Y17304D02*
X127794Y17304D01*
X127794Y10636D01*
X113506Y10636D01*
X113506Y12748D02*
X127794Y12748D01*
X127794Y14860D02*
X113506Y14860D01*
X113506Y16972D02*
X127794Y16972D01*
X169386Y48736D02*
X169386Y55404D01*
X183674Y55404D01*
X183674Y48736D01*
X169386Y48736D01*
X169386Y50848D02*
X183674Y50848D01*
X183674Y52960D02*
X169386Y52960D01*
X169386Y55072D02*
X183674Y55072D01*
X113506Y55404D02*
X113506Y48736D01*
X113506Y55404D02*
X127794Y55404D01*
X127794Y48736D01*
X113506Y48736D01*
X113506Y50848D02*
X127794Y50848D01*
X127794Y52960D02*
X113506Y52960D01*
X113506Y55072D02*
X127794Y55072D01*
X255746Y17304D02*
X255746Y10636D01*
X255746Y17304D02*
X270034Y17304D01*
X270034Y10636D01*
X255746Y10636D01*
X255746Y12748D02*
X270034Y12748D01*
X270034Y14860D02*
X255746Y14860D01*
X255746Y16972D02*
X270034Y16972D01*
X199866Y17304D02*
X199866Y10636D01*
X199866Y17304D02*
X214154Y17304D01*
X214154Y10636D01*
X199866Y10636D01*
X199866Y12748D02*
X214154Y12748D01*
X214154Y14860D02*
X199866Y14860D01*
X199866Y16972D02*
X214154Y16972D01*
X255746Y48736D02*
X255746Y55404D01*
X270034Y55404D01*
X270034Y48736D01*
X255746Y48736D01*
X255746Y50848D02*
X270034Y50848D01*
X270034Y52960D02*
X255746Y52960D01*
X255746Y55072D02*
X270034Y55072D01*
X199866Y55404D02*
X199866Y48736D01*
X199866Y55404D02*
X214154Y55404D01*
X214154Y48736D01*
X199866Y48736D01*
X199866Y50848D02*
X214154Y50848D01*
X214154Y52960D02*
X199866Y52960D01*
X199866Y55072D02*
X214154Y55072D01*
D17*
X443270Y137600D03*
D13*
X148908Y332042D02*
X138892Y332042D01*
X138892Y341058D01*
X148908Y341058D01*
X148908Y332042D01*
X148908Y334183D02*
X138892Y334183D01*
X138892Y336324D02*
X148908Y336324D01*
X148908Y338465D02*
X138892Y338465D01*
X138892Y340606D02*
X148908Y340606D01*
X155892Y332042D02*
X165908Y332042D01*
X155892Y332042D02*
X155892Y341058D01*
X165908Y341058D01*
X165908Y332042D01*
X165908Y334183D02*
X155892Y334183D01*
X155892Y336324D02*
X165908Y336324D01*
X165908Y338465D02*
X155892Y338465D01*
X155892Y340606D02*
X165908Y340606D01*
D18*
X109024Y340044D02*
X109024Y333056D01*
X102036Y333056D01*
X102036Y340044D01*
X109024Y340044D01*
X109024Y337125D02*
X102036Y337125D01*
X126564Y340044D02*
X126564Y333056D01*
X119576Y333056D01*
X119576Y340044D01*
X126564Y340044D01*
X126564Y337125D02*
X119576Y337125D01*
D19*
X241300Y77800D03*
D20*
X241300Y277800D03*
D10*
X195782Y86282D02*
X195782Y84318D01*
X181318Y84318D01*
X181318Y86282D01*
X195782Y86282D01*
D21*
X209557Y79807D02*
X209557Y68793D01*
X183043Y68793D01*
X183043Y79807D01*
X209557Y79807D01*
X209557Y70936D02*
X183043Y70936D01*
X183043Y73079D02*
X209557Y73079D01*
X209557Y75222D02*
X183043Y75222D01*
X183043Y77365D02*
X209557Y77365D01*
X209557Y79508D02*
X183043Y79508D01*
X209557Y275793D02*
X209557Y286807D01*
X209557Y275793D02*
X183043Y275793D01*
X183043Y286807D01*
X209557Y286807D01*
X209557Y277936D02*
X183043Y277936D01*
X183043Y280079D02*
X209557Y280079D01*
X209557Y282222D02*
X183043Y282222D01*
X183043Y284365D02*
X209557Y284365D01*
X209557Y286508D02*
X183043Y286508D01*
D10*
X271282Y88782D02*
X271282Y86818D01*
X256818Y86818D01*
X256818Y88782D01*
X271282Y88782D01*
X195782Y89318D02*
X195782Y91282D01*
X195782Y89318D02*
X181318Y89318D01*
X181318Y91282D01*
X195782Y91282D01*
X271282Y91818D02*
X271282Y93782D01*
X271282Y91818D02*
X256818Y91818D01*
X256818Y93782D01*
X271282Y93782D01*
X195782Y94318D02*
X195782Y96282D01*
X195782Y94318D02*
X181318Y94318D01*
X181318Y96282D01*
X195782Y96282D01*
X271282Y96818D02*
X271282Y98782D01*
X271282Y96818D02*
X256818Y96818D01*
X256818Y98782D01*
X271282Y98782D01*
X195782Y99318D02*
X195782Y101282D01*
X195782Y99318D02*
X181318Y99318D01*
X181318Y101282D01*
X195782Y101282D01*
X271282Y101818D02*
X271282Y103782D01*
X271282Y101818D02*
X256818Y101818D01*
X256818Y103782D01*
X271282Y103782D01*
X195782Y104318D02*
X195782Y106282D01*
X195782Y104318D02*
X181318Y104318D01*
X181318Y106282D01*
X195782Y106282D01*
X271282Y106818D02*
X271282Y108782D01*
X271282Y106818D02*
X256818Y106818D01*
X256818Y108782D01*
X271282Y108782D01*
X195782Y109318D02*
X195782Y111282D01*
X195782Y109318D02*
X181318Y109318D01*
X181318Y111282D01*
X195782Y111282D01*
X271282Y111818D02*
X271282Y113782D01*
X271282Y111818D02*
X256818Y111818D01*
X256818Y113782D01*
X271282Y113782D01*
X195782Y114318D02*
X195782Y116282D01*
X195782Y114318D02*
X181318Y114318D01*
X181318Y116282D01*
X195782Y116282D01*
X271282Y116818D02*
X271282Y118782D01*
X271282Y116818D02*
X256818Y116818D01*
X256818Y118782D01*
X271282Y118782D01*
X195782Y119318D02*
X195782Y121282D01*
X195782Y119318D02*
X181318Y119318D01*
X181318Y121282D01*
X195782Y121282D01*
X271282Y121818D02*
X271282Y123782D01*
X271282Y121818D02*
X256818Y121818D01*
X256818Y123782D01*
X271282Y123782D01*
X195782Y124318D02*
X195782Y126282D01*
X195782Y124318D02*
X181318Y124318D01*
X181318Y126282D01*
X195782Y126282D01*
X271282Y126818D02*
X271282Y128782D01*
X271282Y126818D02*
X256818Y126818D01*
X256818Y128782D01*
X271282Y128782D01*
X195782Y129318D02*
X195782Y131282D01*
X195782Y129318D02*
X181318Y129318D01*
X181318Y131282D01*
X195782Y131282D01*
X271282Y131818D02*
X271282Y133782D01*
X271282Y131818D02*
X256818Y131818D01*
X256818Y133782D01*
X271282Y133782D01*
X195782Y134318D02*
X195782Y136282D01*
X195782Y134318D02*
X181318Y134318D01*
X181318Y136282D01*
X195782Y136282D01*
X271282Y136818D02*
X271282Y138782D01*
X271282Y136818D02*
X256818Y136818D01*
X256818Y138782D01*
X271282Y138782D01*
X195782Y139318D02*
X195782Y141282D01*
X195782Y139318D02*
X181318Y139318D01*
X181318Y141282D01*
X195782Y141282D01*
X271282Y161818D02*
X271282Y163782D01*
X271282Y161818D02*
X256818Y161818D01*
X256818Y163782D01*
X271282Y163782D01*
X195782Y164318D02*
X195782Y166282D01*
X195782Y164318D02*
X181318Y164318D01*
X181318Y166282D01*
X195782Y166282D01*
X271282Y166818D02*
X271282Y168782D01*
X271282Y166818D02*
X256818Y166818D01*
X256818Y168782D01*
X271282Y168782D01*
X195782Y169318D02*
X195782Y171282D01*
X195782Y169318D02*
X181318Y169318D01*
X181318Y171282D01*
X195782Y171282D01*
X271282Y171818D02*
X271282Y173782D01*
X271282Y171818D02*
X256818Y171818D01*
X256818Y173782D01*
X271282Y173782D01*
X195782Y174318D02*
X195782Y176282D01*
X195782Y174318D02*
X181318Y174318D01*
X181318Y176282D01*
X195782Y176282D01*
X271282Y176818D02*
X271282Y178782D01*
X271282Y176818D02*
X256818Y176818D01*
X256818Y178782D01*
X271282Y178782D01*
X195782Y179318D02*
X195782Y181282D01*
X195782Y179318D02*
X181318Y179318D01*
X181318Y181282D01*
X195782Y181282D01*
X271282Y181818D02*
X271282Y183782D01*
X271282Y181818D02*
X256818Y181818D01*
X256818Y183782D01*
X271282Y183782D01*
X195782Y184318D02*
X195782Y186282D01*
X195782Y184318D02*
X181318Y184318D01*
X181318Y186282D01*
X195782Y186282D01*
X271282Y186818D02*
X271282Y188782D01*
X271282Y186818D02*
X256818Y186818D01*
X256818Y188782D01*
X271282Y188782D01*
X195782Y189318D02*
X195782Y191282D01*
X195782Y189318D02*
X181318Y189318D01*
X181318Y191282D01*
X195782Y191282D01*
X271282Y191818D02*
X271282Y193782D01*
X271282Y191818D02*
X256818Y191818D01*
X256818Y193782D01*
X271282Y193782D01*
X195782Y194318D02*
X195782Y196282D01*
X195782Y194318D02*
X181318Y194318D01*
X181318Y196282D01*
X195782Y196282D01*
X271282Y196818D02*
X271282Y198782D01*
X271282Y196818D02*
X256818Y196818D01*
X256818Y198782D01*
X271282Y198782D01*
X195782Y199318D02*
X195782Y201282D01*
X195782Y199318D02*
X181318Y199318D01*
X181318Y201282D01*
X195782Y201282D01*
X271282Y201818D02*
X271282Y203782D01*
X271282Y201818D02*
X256818Y201818D01*
X256818Y203782D01*
X271282Y203782D01*
X195782Y204318D02*
X195782Y206282D01*
X195782Y204318D02*
X181318Y204318D01*
X181318Y206282D01*
X195782Y206282D01*
X271282Y206818D02*
X271282Y208782D01*
X271282Y206818D02*
X256818Y206818D01*
X256818Y208782D01*
X271282Y208782D01*
X195782Y209318D02*
X195782Y211282D01*
X195782Y209318D02*
X181318Y209318D01*
X181318Y211282D01*
X195782Y211282D01*
X271282Y211818D02*
X271282Y213782D01*
X271282Y211818D02*
X256818Y211818D01*
X256818Y213782D01*
X271282Y213782D01*
X195782Y214318D02*
X195782Y216282D01*
X195782Y214318D02*
X181318Y214318D01*
X181318Y216282D01*
X195782Y216282D01*
X271282Y216818D02*
X271282Y218782D01*
X271282Y216818D02*
X256818Y216818D01*
X256818Y218782D01*
X271282Y218782D01*
X195782Y219318D02*
X195782Y221282D01*
X195782Y219318D02*
X181318Y219318D01*
X181318Y221282D01*
X195782Y221282D01*
X271282Y221818D02*
X271282Y223782D01*
X271282Y221818D02*
X256818Y221818D01*
X256818Y223782D01*
X271282Y223782D01*
X195782Y224318D02*
X195782Y226282D01*
X195782Y224318D02*
X181318Y224318D01*
X181318Y226282D01*
X195782Y226282D01*
X271282Y226818D02*
X271282Y228782D01*
X271282Y226818D02*
X256818Y226818D01*
X256818Y228782D01*
X271282Y228782D01*
X195782Y229318D02*
X195782Y231282D01*
X195782Y229318D02*
X181318Y229318D01*
X181318Y231282D01*
X195782Y231282D01*
X271282Y231818D02*
X271282Y233782D01*
X271282Y231818D02*
X256818Y231818D01*
X256818Y233782D01*
X271282Y233782D01*
X195782Y234318D02*
X195782Y236282D01*
X195782Y234318D02*
X181318Y234318D01*
X181318Y236282D01*
X195782Y236282D01*
X271282Y236818D02*
X271282Y238782D01*
X271282Y236818D02*
X256818Y236818D01*
X256818Y238782D01*
X271282Y238782D01*
X195782Y239318D02*
X195782Y241282D01*
X195782Y239318D02*
X181318Y239318D01*
X181318Y241282D01*
X195782Y241282D01*
X271282Y241818D02*
X271282Y243782D01*
X271282Y241818D02*
X256818Y241818D01*
X256818Y243782D01*
X271282Y243782D01*
X195782Y244318D02*
X195782Y246282D01*
X195782Y244318D02*
X181318Y244318D01*
X181318Y246282D01*
X195782Y246282D01*
X271282Y246818D02*
X271282Y248782D01*
X271282Y246818D02*
X256818Y246818D01*
X256818Y248782D01*
X271282Y248782D01*
X195782Y249318D02*
X195782Y251282D01*
X195782Y249318D02*
X181318Y249318D01*
X181318Y251282D01*
X195782Y251282D01*
X271282Y251818D02*
X271282Y253782D01*
X271282Y251818D02*
X256818Y251818D01*
X256818Y253782D01*
X271282Y253782D01*
X195782Y254318D02*
X195782Y256282D01*
X195782Y254318D02*
X181318Y254318D01*
X181318Y256282D01*
X195782Y256282D01*
X271282Y256818D02*
X271282Y258782D01*
X271282Y256818D02*
X256818Y256818D01*
X256818Y258782D01*
X271282Y258782D01*
X195782Y259318D02*
X195782Y261282D01*
X195782Y259318D02*
X181318Y259318D01*
X181318Y261282D01*
X195782Y261282D01*
X271282Y261818D02*
X271282Y263782D01*
X271282Y261818D02*
X256818Y261818D01*
X256818Y263782D01*
X271282Y263782D01*
X195782Y264318D02*
X195782Y266282D01*
X195782Y264318D02*
X181318Y264318D01*
X181318Y266282D01*
X195782Y266282D01*
X271282Y266818D02*
X271282Y268782D01*
X271282Y266818D02*
X256818Y266818D01*
X256818Y268782D01*
X271282Y268782D01*
X195782Y269318D02*
X195782Y271282D01*
X195782Y269318D02*
X181318Y269318D01*
X181318Y271282D01*
X195782Y271282D01*
D21*
X372893Y4543D02*
X383907Y4543D01*
X372893Y4543D02*
X372893Y23557D01*
X383907Y23557D01*
X383907Y4543D01*
X383907Y6686D02*
X372893Y6686D01*
X372893Y8829D02*
X383907Y8829D01*
X383907Y10972D02*
X372893Y10972D01*
X372893Y13115D02*
X383907Y13115D01*
X383907Y15258D02*
X372893Y15258D01*
X372893Y17401D02*
X383907Y17401D01*
X383907Y19544D02*
X372893Y19544D01*
X372893Y21687D02*
X383907Y21687D01*
X428893Y4543D02*
X439907Y4543D01*
X428893Y4543D02*
X428893Y23557D01*
X439907Y23557D01*
X439907Y4543D01*
X439907Y6686D02*
X428893Y6686D01*
X428893Y8829D02*
X439907Y8829D01*
X439907Y10972D02*
X428893Y10972D01*
X428893Y13115D02*
X439907Y13115D01*
X439907Y15258D02*
X428893Y15258D01*
X428893Y17401D02*
X439907Y17401D01*
X439907Y19544D02*
X428893Y19544D01*
X428893Y21687D02*
X439907Y21687D01*
D11*
X393908Y44542D02*
X388892Y44542D01*
X388892Y57058D01*
X393908Y57058D01*
X393908Y44542D01*
X393908Y46683D02*
X388892Y46683D01*
X388892Y48824D02*
X393908Y48824D01*
X393908Y50965D02*
X388892Y50965D01*
X388892Y53106D02*
X393908Y53106D01*
X393908Y55247D02*
X388892Y55247D01*
X398892Y44542D02*
X403908Y44542D01*
X398892Y44542D02*
X398892Y57058D01*
X403908Y57058D01*
X403908Y44542D01*
X403908Y46683D02*
X398892Y46683D01*
X398892Y48824D02*
X403908Y48824D01*
X403908Y50965D02*
X398892Y50965D01*
X398892Y53106D02*
X403908Y53106D01*
X403908Y55247D02*
X398892Y55247D01*
X408892Y44542D02*
X413908Y44542D01*
X408892Y44542D02*
X408892Y57058D01*
X413908Y57058D01*
X413908Y44542D01*
X413908Y46683D02*
X408892Y46683D01*
X408892Y48824D02*
X413908Y48824D01*
X413908Y50965D02*
X408892Y50965D01*
X408892Y53106D02*
X413908Y53106D01*
X413908Y55247D02*
X408892Y55247D01*
X418892Y44542D02*
X423908Y44542D01*
X418892Y44542D02*
X418892Y57058D01*
X423908Y57058D01*
X423908Y44542D01*
X423908Y46683D02*
X418892Y46683D01*
X418892Y48824D02*
X423908Y48824D01*
X423908Y50965D02*
X418892Y50965D01*
X418892Y53106D02*
X423908Y53106D01*
X423908Y55247D02*
X418892Y55247D01*
D13*
X97608Y239492D02*
X97608Y248508D01*
X97608Y239492D02*
X52592Y239492D01*
X52592Y248508D01*
X97608Y248508D01*
X97608Y241633D02*
X52592Y241633D01*
X52592Y243774D02*
X97608Y243774D01*
X97608Y245915D02*
X52592Y245915D01*
X52592Y248056D02*
X97608Y248056D01*
X97608Y259492D02*
X97608Y268508D01*
X97608Y259492D02*
X52592Y259492D01*
X52592Y268508D01*
X97608Y268508D01*
X97608Y261633D02*
X52592Y261633D01*
X52592Y263774D02*
X97608Y263774D01*
X97608Y265915D02*
X52592Y265915D01*
X52592Y268056D02*
X97608Y268056D01*
D22*
X39613Y227513D02*
X6587Y227513D01*
X39613Y227513D02*
X39613Y212487D01*
X6587Y212487D01*
X6587Y227513D01*
X6587Y214620D02*
X39613Y214620D01*
X39613Y216753D02*
X6587Y216753D01*
X6587Y218886D02*
X39613Y218886D01*
X39613Y221019D02*
X6587Y221019D01*
X6587Y223152D02*
X39613Y223152D01*
X39613Y225285D02*
X6587Y225285D01*
X6587Y227418D02*
X39613Y227418D01*
X39613Y295513D02*
X6587Y295513D01*
X39613Y295513D02*
X39613Y280487D01*
X6587Y280487D01*
X6587Y295513D01*
X6587Y282620D02*
X39613Y282620D01*
X39613Y284753D02*
X6587Y284753D01*
X6587Y286886D02*
X39613Y286886D01*
X39613Y289019D02*
X6587Y289019D01*
X6587Y291152D02*
X39613Y291152D01*
X39613Y293285D02*
X6587Y293285D01*
X6587Y295418D02*
X39613Y295418D01*
D10*
X102298Y105438D02*
X104262Y105438D01*
X102298Y105438D02*
X102298Y110902D01*
X104262Y110902D01*
X104262Y105438D01*
X104262Y107629D02*
X102298Y107629D01*
X102298Y109820D02*
X104262Y109820D01*
X108798Y105438D02*
X110762Y105438D01*
X108798Y105438D02*
X108798Y110902D01*
X110762Y110902D01*
X110762Y105438D01*
X110762Y107629D02*
X108798Y107629D01*
X108798Y109820D02*
X110762Y109820D01*
X115298Y105438D02*
X117262Y105438D01*
X115298Y105438D02*
X115298Y110902D01*
X117262Y110902D01*
X117262Y105438D01*
X117262Y107629D02*
X115298Y107629D01*
X115298Y109820D02*
X117262Y109820D01*
X121798Y105438D02*
X123762Y105438D01*
X121798Y105438D02*
X121798Y110902D01*
X123762Y110902D01*
X123762Y105438D01*
X123762Y107629D02*
X121798Y107629D01*
X121798Y109820D02*
X123762Y109820D01*
X123762Y138402D02*
X121798Y138402D01*
X123762Y138402D02*
X123762Y132938D01*
X121798Y132938D01*
X121798Y138402D01*
X121798Y135129D02*
X123762Y135129D01*
X123762Y137320D02*
X121798Y137320D01*
X117262Y138402D02*
X115298Y138402D01*
X117262Y138402D02*
X117262Y132938D01*
X115298Y132938D01*
X115298Y138402D01*
X115298Y135129D02*
X117262Y135129D01*
X117262Y137320D02*
X115298Y137320D01*
X110762Y138402D02*
X108798Y138402D01*
X110762Y138402D02*
X110762Y132938D01*
X108798Y132938D01*
X108798Y138402D01*
X108798Y135129D02*
X110762Y135129D01*
X110762Y137320D02*
X108798Y137320D01*
X104262Y138402D02*
X102298Y138402D01*
X104262Y138402D02*
X104262Y132938D01*
X102298Y132938D01*
X102298Y138402D01*
X102298Y135129D02*
X104262Y135129D01*
X104262Y137320D02*
X102298Y137320D01*
D22*
X101767Y114407D02*
X124293Y114407D01*
X101767Y114407D02*
X101767Y129433D01*
X124293Y129433D01*
X124293Y114407D01*
X124293Y116540D02*
X101767Y116540D01*
X101767Y118673D02*
X124293Y118673D01*
X124293Y120806D02*
X101767Y120806D01*
X101767Y122939D02*
X124293Y122939D01*
X124293Y125072D02*
X101767Y125072D01*
X101767Y127205D02*
X124293Y127205D01*
X124293Y129338D02*
X101767Y129338D01*
D13*
X97372Y151702D02*
X107388Y151702D01*
X97372Y151702D02*
X97372Y160718D01*
X107388Y160718D01*
X107388Y151702D01*
X107388Y153843D02*
X97372Y153843D01*
X97372Y155984D02*
X107388Y155984D01*
X107388Y158125D02*
X97372Y158125D01*
X97372Y160266D02*
X107388Y160266D01*
X114372Y151702D02*
X124388Y151702D01*
X114372Y151702D02*
X114372Y160718D01*
X124388Y160718D01*
X124388Y151702D01*
X124388Y153843D02*
X114372Y153843D01*
X114372Y155984D02*
X124388Y155984D01*
X124388Y158125D02*
X114372Y158125D01*
X114372Y160266D02*
X124388Y160266D01*
X107388Y166942D02*
X97372Y166942D01*
X97372Y175958D01*
X107388Y175958D01*
X107388Y166942D01*
X107388Y169083D02*
X97372Y169083D01*
X97372Y171224D02*
X107388Y171224D01*
X107388Y173365D02*
X97372Y173365D01*
X97372Y175506D02*
X107388Y175506D01*
X114372Y166942D02*
X124388Y166942D01*
X114372Y166942D02*
X114372Y175958D01*
X124388Y175958D01*
X124388Y166942D01*
X124388Y169083D02*
X114372Y169083D01*
X114372Y171224D02*
X124388Y171224D01*
X124388Y173365D02*
X114372Y173365D01*
X114372Y175506D02*
X124388Y175506D01*
D23*
X121810Y183010D02*
X121810Y197990D01*
X134790Y197990D01*
X134790Y183010D01*
X121810Y183010D01*
X121810Y185186D02*
X134790Y185186D01*
X134790Y187362D02*
X121810Y187362D01*
X121810Y189538D02*
X134790Y189538D01*
X134790Y191714D02*
X121810Y191714D01*
X121810Y193890D02*
X134790Y193890D01*
X134790Y196066D02*
X121810Y196066D01*
X93810Y197990D02*
X93810Y183010D01*
X93810Y197990D02*
X106790Y197990D01*
X106790Y183010D01*
X93810Y183010D01*
X93810Y185186D02*
X106790Y185186D01*
X106790Y187362D02*
X93810Y187362D01*
X93810Y189538D02*
X106790Y189538D01*
X106790Y191714D02*
X93810Y191714D01*
X93810Y193890D02*
X106790Y193890D01*
X106790Y196066D02*
X93810Y196066D01*
D24*
X104140Y91440D03*
X104140Y66040D03*
D13*
X135192Y130492D02*
X135192Y140508D01*
X144208Y140508D01*
X144208Y130492D01*
X135192Y130492D01*
X135192Y132633D02*
X144208Y132633D01*
X144208Y134774D02*
X135192Y134774D01*
X135192Y136915D02*
X144208Y136915D01*
X144208Y139056D02*
X135192Y139056D01*
X135192Y123508D02*
X135192Y113492D01*
X135192Y123508D02*
X144208Y123508D01*
X144208Y113492D01*
X135192Y113492D01*
X135192Y115633D02*
X144208Y115633D01*
X144208Y117774D02*
X135192Y117774D01*
X135192Y119915D02*
X144208Y119915D01*
X144208Y122056D02*
X135192Y122056D01*
D25*
X152560Y135850D02*
X152560Y141150D01*
X159860Y141150D01*
X159860Y135850D01*
X152560Y135850D01*
X152560Y138007D02*
X159860Y138007D01*
X159860Y140164D02*
X152560Y140164D01*
X152560Y118150D02*
X152560Y112850D01*
X152560Y118150D02*
X159860Y118150D01*
X159860Y112850D01*
X152560Y112850D01*
X152560Y115007D02*
X159860Y115007D01*
X159860Y117164D02*
X152560Y117164D01*
D13*
X118682Y98208D02*
X118682Y88192D01*
X118682Y98208D02*
X127698Y98208D01*
X127698Y88192D01*
X118682Y88192D01*
X118682Y90333D02*
X127698Y90333D01*
X127698Y92474D02*
X118682Y92474D01*
X118682Y94615D02*
X127698Y94615D01*
X127698Y96756D02*
X118682Y96756D01*
X118682Y81208D02*
X118682Y71192D01*
X118682Y81208D02*
X127698Y81208D01*
X127698Y71192D01*
X118682Y71192D01*
X118682Y73333D02*
X127698Y73333D01*
X127698Y75474D02*
X118682Y75474D01*
X118682Y77615D02*
X127698Y77615D01*
X127698Y79756D02*
X118682Y79756D01*
X133922Y88192D02*
X133922Y98208D01*
X142938Y98208D01*
X142938Y88192D01*
X133922Y88192D01*
X133922Y90333D02*
X142938Y90333D01*
X142938Y92474D02*
X133922Y92474D01*
X133922Y94615D02*
X142938Y94615D01*
X142938Y96756D02*
X133922Y96756D01*
X133922Y81208D02*
X133922Y71192D01*
X133922Y81208D02*
X142938Y81208D01*
X142938Y71192D01*
X133922Y71192D01*
X133922Y73333D02*
X142938Y73333D01*
X142938Y75474D02*
X133922Y75474D01*
X133922Y77615D02*
X142938Y77615D01*
X142938Y79756D02*
X133922Y79756D01*
X149162Y88192D02*
X149162Y98208D01*
X158178Y98208D01*
X158178Y88192D01*
X149162Y88192D01*
X149162Y90333D02*
X158178Y90333D01*
X158178Y92474D02*
X149162Y92474D01*
X149162Y94615D02*
X158178Y94615D01*
X158178Y96756D02*
X149162Y96756D01*
X149162Y81208D02*
X149162Y71192D01*
X149162Y81208D02*
X158178Y81208D01*
X158178Y71192D01*
X149162Y71192D01*
X149162Y73333D02*
X158178Y73333D01*
X158178Y75474D02*
X149162Y75474D01*
X149162Y77615D02*
X158178Y77615D01*
X158178Y79756D02*
X149162Y79756D01*
X53008Y176992D02*
X43992Y176992D01*
X43992Y204008D01*
X53008Y204008D01*
X53008Y176992D01*
X53008Y179133D02*
X43992Y179133D01*
X43992Y181274D02*
X53008Y181274D01*
X53008Y183415D02*
X43992Y183415D01*
X43992Y185556D02*
X53008Y185556D01*
X53008Y187697D02*
X43992Y187697D01*
X43992Y189838D02*
X53008Y189838D01*
X53008Y191979D02*
X43992Y191979D01*
X43992Y194120D02*
X53008Y194120D01*
X53008Y196261D02*
X43992Y196261D01*
X43992Y198402D02*
X53008Y198402D01*
X53008Y200543D02*
X43992Y200543D01*
X43992Y202684D02*
X53008Y202684D01*
X73992Y176992D02*
X83008Y176992D01*
X73992Y176992D02*
X73992Y204008D01*
X83008Y204008D01*
X83008Y176992D01*
X83008Y179133D02*
X73992Y179133D01*
X73992Y181274D02*
X83008Y181274D01*
X83008Y183415D02*
X73992Y183415D01*
X73992Y185556D02*
X83008Y185556D01*
X83008Y187697D02*
X73992Y187697D01*
X73992Y189838D02*
X83008Y189838D01*
X83008Y191979D02*
X73992Y191979D01*
X73992Y194120D02*
X83008Y194120D01*
X83008Y196261D02*
X73992Y196261D01*
X73992Y198402D02*
X83008Y198402D01*
X83008Y200543D02*
X73992Y200543D01*
X73992Y202684D02*
X83008Y202684D01*
D26*
X146932Y272519D02*
X151468Y272519D01*
X151468Y261483D01*
X146932Y261483D01*
X146932Y272519D01*
X146932Y263605D02*
X151468Y263605D01*
X151468Y265727D02*
X146932Y265727D01*
X146932Y267849D02*
X151468Y267849D01*
X151468Y269971D02*
X146932Y269971D01*
X146932Y272093D02*
X151468Y272093D01*
X141968Y272519D02*
X137432Y272519D01*
X141968Y272519D02*
X141968Y261483D01*
X137432Y261483D01*
X137432Y272519D01*
X137432Y263605D02*
X141968Y263605D01*
X141968Y265727D02*
X137432Y265727D01*
X137432Y267849D02*
X141968Y267849D01*
X141968Y269971D02*
X137432Y269971D01*
X137432Y272093D02*
X141968Y272093D01*
X132468Y272519D02*
X127932Y272519D01*
X132468Y272519D02*
X132468Y261483D01*
X127932Y261483D01*
X127932Y272519D01*
X127932Y263605D02*
X132468Y263605D01*
X132468Y265727D02*
X127932Y265727D01*
X127932Y267849D02*
X132468Y267849D01*
X132468Y269971D02*
X127932Y269971D01*
X127932Y272093D02*
X132468Y272093D01*
X132468Y246517D02*
X127932Y246517D01*
X132468Y246517D02*
X132468Y235481D01*
X127932Y235481D01*
X127932Y246517D01*
X127932Y237603D02*
X132468Y237603D01*
X132468Y239725D02*
X127932Y239725D01*
X127932Y241847D02*
X132468Y241847D01*
X132468Y243969D02*
X127932Y243969D01*
X127932Y246091D02*
X132468Y246091D01*
X146932Y246517D02*
X151468Y246517D01*
X151468Y235481D01*
X146932Y235481D01*
X146932Y246517D01*
X146932Y237603D02*
X151468Y237603D01*
X151468Y239725D02*
X146932Y239725D01*
X146932Y241847D02*
X151468Y241847D01*
X151468Y243969D02*
X146932Y243969D01*
X146932Y246091D02*
X151468Y246091D01*
D13*
X166942Y257492D02*
X166942Y267508D01*
X175958Y267508D01*
X175958Y257492D01*
X166942Y257492D01*
X166942Y259633D02*
X175958Y259633D01*
X175958Y261774D02*
X166942Y261774D01*
X166942Y263915D02*
X175958Y263915D01*
X175958Y266056D02*
X166942Y266056D01*
X166942Y250508D02*
X166942Y240492D01*
X166942Y250508D02*
X175958Y250508D01*
X175958Y240492D01*
X166942Y240492D01*
X166942Y242633D02*
X175958Y242633D01*
X175958Y244774D02*
X166942Y244774D01*
X166942Y246915D02*
X175958Y246915D01*
X175958Y249056D02*
X166942Y249056D01*
X134048Y278592D02*
X134048Y288608D01*
X134048Y278592D02*
X125032Y278592D01*
X125032Y288608D01*
X134048Y288608D01*
X134048Y280733D02*
X125032Y280733D01*
X125032Y282874D02*
X134048Y282874D01*
X134048Y285015D02*
X125032Y285015D01*
X125032Y287156D02*
X134048Y287156D01*
X134048Y295592D02*
X134048Y305608D01*
X134048Y295592D02*
X125032Y295592D01*
X125032Y305608D01*
X134048Y305608D01*
X134048Y297733D02*
X125032Y297733D01*
X125032Y299874D02*
X134048Y299874D01*
X134048Y302015D02*
X125032Y302015D01*
X125032Y304156D02*
X134048Y304156D01*
X136208Y219012D02*
X126192Y219012D01*
X126192Y228028D01*
X136208Y228028D01*
X136208Y219012D01*
X136208Y221153D02*
X126192Y221153D01*
X126192Y223294D02*
X136208Y223294D01*
X136208Y225435D02*
X126192Y225435D01*
X126192Y227576D02*
X136208Y227576D01*
X143192Y219012D02*
X153208Y219012D01*
X143192Y219012D02*
X143192Y228028D01*
X153208Y228028D01*
X153208Y219012D01*
X153208Y221153D02*
X143192Y221153D01*
X143192Y223294D02*
X153208Y223294D01*
X153208Y225435D02*
X143192Y225435D01*
X143192Y227576D02*
X153208Y227576D01*
D25*
X117950Y239850D02*
X117950Y245150D01*
X117950Y239850D02*
X110650Y239850D01*
X110650Y245150D01*
X117950Y245150D01*
X117950Y242007D02*
X110650Y242007D01*
X110650Y244164D02*
X117950Y244164D01*
X117950Y262850D02*
X117950Y268150D01*
X117950Y262850D02*
X110650Y262850D01*
X110650Y268150D01*
X117950Y268150D01*
X117950Y265007D02*
X110650Y265007D01*
X110650Y267164D02*
X117950Y267164D01*
D18*
X119576Y314006D02*
X119576Y320994D01*
X126564Y320994D01*
X126564Y314006D01*
X119576Y314006D01*
X119576Y318075D02*
X126564Y318075D01*
X102036Y320994D02*
X102036Y314006D01*
X102036Y320994D02*
X109024Y320994D01*
X109024Y314006D01*
X102036Y314006D01*
X102036Y318075D02*
X109024Y318075D01*
D13*
X145352Y305608D02*
X145352Y295592D01*
X145352Y305608D02*
X154368Y305608D01*
X154368Y295592D01*
X145352Y295592D01*
X145352Y297733D02*
X154368Y297733D01*
X154368Y299874D02*
X145352Y299874D01*
X145352Y302015D02*
X154368Y302015D01*
X154368Y304156D02*
X145352Y304156D01*
X145352Y288608D02*
X145352Y278592D01*
X145352Y288608D02*
X154368Y288608D01*
X154368Y278592D01*
X145352Y278592D01*
X145352Y280733D02*
X154368Y280733D01*
X154368Y282874D02*
X145352Y282874D01*
X145352Y285015D02*
X154368Y285015D01*
X154368Y287156D02*
X145352Y287156D01*
D24*
X12700Y196850D03*
X12700Y171450D03*
D25*
X72350Y168750D02*
X77650Y168750D01*
X77650Y161450D01*
X72350Y161450D01*
X72350Y168750D01*
X72350Y163607D02*
X77650Y163607D01*
X77650Y165764D02*
X72350Y165764D01*
X72350Y167921D02*
X77650Y167921D01*
X54650Y168750D02*
X49350Y168750D01*
X54650Y168750D02*
X54650Y161450D01*
X49350Y161450D01*
X49350Y168750D01*
X49350Y163607D02*
X54650Y163607D01*
X54650Y165764D02*
X49350Y165764D01*
X49350Y167921D02*
X54650Y167921D01*
D11*
X499952Y45228D02*
X504968Y45228D01*
X504968Y30712D01*
X499952Y30712D01*
X499952Y45228D01*
X499952Y32853D02*
X504968Y32853D01*
X504968Y34994D02*
X499952Y34994D01*
X499952Y37135D02*
X504968Y37135D01*
X504968Y39276D02*
X499952Y39276D01*
X499952Y41417D02*
X504968Y41417D01*
X504968Y43558D02*
X499952Y43558D01*
X494968Y45228D02*
X489952Y45228D01*
X494968Y45228D02*
X494968Y30712D01*
X489952Y30712D01*
X489952Y45228D01*
X489952Y32853D02*
X494968Y32853D01*
X494968Y34994D02*
X489952Y34994D01*
X489952Y37135D02*
X494968Y37135D01*
X494968Y39276D02*
X489952Y39276D01*
X489952Y41417D02*
X494968Y41417D01*
X494968Y43558D02*
X489952Y43558D01*
X484968Y45228D02*
X479952Y45228D01*
X484968Y45228D02*
X484968Y30712D01*
X479952Y30712D01*
X479952Y45228D01*
X479952Y32853D02*
X484968Y32853D01*
X484968Y34994D02*
X479952Y34994D01*
X479952Y37135D02*
X484968Y37135D01*
X484968Y39276D02*
X479952Y39276D01*
X479952Y41417D02*
X484968Y41417D01*
X484968Y43558D02*
X479952Y43558D01*
X474968Y45228D02*
X469952Y45228D01*
X474968Y45228D02*
X474968Y30712D01*
X469952Y30712D01*
X469952Y45228D01*
X469952Y32853D02*
X474968Y32853D01*
X474968Y34994D02*
X469952Y34994D01*
X469952Y37135D02*
X474968Y37135D01*
X474968Y39276D02*
X469952Y39276D01*
X469952Y41417D02*
X474968Y41417D01*
X474968Y43558D02*
X469952Y43558D01*
D21*
X509953Y23227D02*
X520967Y23227D01*
X520967Y4213D01*
X509953Y4213D01*
X509953Y23227D01*
X509953Y6356D02*
X520967Y6356D01*
X520967Y8499D02*
X509953Y8499D01*
X509953Y10642D02*
X520967Y10642D01*
X520967Y12785D02*
X509953Y12785D01*
X509953Y14928D02*
X520967Y14928D01*
X520967Y17071D02*
X509953Y17071D01*
X509953Y19214D02*
X520967Y19214D01*
X520967Y21357D02*
X509953Y21357D01*
X464967Y23227D02*
X453953Y23227D01*
X464967Y23227D02*
X464967Y4213D01*
X453953Y4213D01*
X453953Y23227D01*
X453953Y6356D02*
X464967Y6356D01*
X464967Y8499D02*
X453953Y8499D01*
X453953Y10642D02*
X464967Y10642D01*
X464967Y12785D02*
X453953Y12785D01*
X453953Y14928D02*
X464967Y14928D01*
X464967Y17071D02*
X453953Y17071D01*
X453953Y19214D02*
X464967Y19214D01*
X464967Y21357D02*
X453953Y21357D01*
D24*
X228600Y342900D03*
X254000Y342900D03*
X279400Y342900D03*
X304800Y342900D03*
X330200Y342900D03*
X355600Y342900D03*
X381000Y342900D03*
X406400Y342900D03*
X431800Y342900D03*
D27*
X755294Y317794D02*
X755294Y291806D01*
X743306Y291806D01*
X743306Y317794D01*
X755294Y317794D01*
X755294Y293975D02*
X743306Y293975D01*
X743306Y296144D02*
X755294Y296144D01*
X755294Y298313D02*
X743306Y298313D01*
X743306Y300482D02*
X755294Y300482D01*
X755294Y302651D02*
X743306Y302651D01*
X743306Y304820D02*
X755294Y304820D01*
X755294Y306989D02*
X743306Y306989D01*
X743306Y309158D02*
X755294Y309158D01*
X755294Y311327D02*
X743306Y311327D01*
X743306Y313496D02*
X755294Y313496D01*
X755294Y315665D02*
X743306Y315665D01*
X729894Y317794D02*
X729894Y291806D01*
X717906Y291806D01*
X717906Y317794D01*
X729894Y317794D01*
X729894Y293975D02*
X717906Y293975D01*
X717906Y296144D02*
X729894Y296144D01*
X729894Y298313D02*
X717906Y298313D01*
X717906Y300482D02*
X729894Y300482D01*
X729894Y302651D02*
X717906Y302651D01*
X717906Y304820D02*
X729894Y304820D01*
X729894Y306989D02*
X717906Y306989D01*
X717906Y309158D02*
X729894Y309158D01*
X729894Y311327D02*
X717906Y311327D01*
X717906Y313496D02*
X729894Y313496D01*
X729894Y315665D02*
X717906Y315665D01*
X704494Y317794D02*
X704494Y291806D01*
X692506Y291806D01*
X692506Y317794D01*
X704494Y317794D01*
X704494Y293975D02*
X692506Y293975D01*
X692506Y296144D02*
X704494Y296144D01*
X704494Y298313D02*
X692506Y298313D01*
X692506Y300482D02*
X704494Y300482D01*
X704494Y302651D02*
X692506Y302651D01*
X692506Y304820D02*
X704494Y304820D01*
X704494Y306989D02*
X692506Y306989D01*
X692506Y309158D02*
X704494Y309158D01*
X704494Y311327D02*
X692506Y311327D01*
X692506Y313496D02*
X704494Y313496D01*
X704494Y315665D02*
X692506Y315665D01*
X679094Y317794D02*
X679094Y291806D01*
X667106Y291806D01*
X667106Y317794D01*
X679094Y317794D01*
X679094Y293975D02*
X667106Y293975D01*
X667106Y296144D02*
X679094Y296144D01*
X679094Y298313D02*
X667106Y298313D01*
X667106Y300482D02*
X679094Y300482D01*
X679094Y302651D02*
X667106Y302651D01*
X667106Y304820D02*
X679094Y304820D01*
X679094Y306989D02*
X667106Y306989D01*
X667106Y309158D02*
X679094Y309158D01*
X679094Y311327D02*
X667106Y311327D01*
X667106Y313496D02*
X679094Y313496D01*
X679094Y315665D02*
X667106Y315665D01*
X653694Y317794D02*
X653694Y291806D01*
X641706Y291806D01*
X641706Y317794D01*
X653694Y317794D01*
X653694Y293975D02*
X641706Y293975D01*
X641706Y296144D02*
X653694Y296144D01*
X653694Y298313D02*
X641706Y298313D01*
X641706Y300482D02*
X653694Y300482D01*
X653694Y302651D02*
X641706Y302651D01*
X641706Y304820D02*
X653694Y304820D01*
X653694Y306989D02*
X641706Y306989D01*
X641706Y309158D02*
X653694Y309158D01*
X653694Y311327D02*
X641706Y311327D01*
X641706Y313496D02*
X653694Y313496D01*
X653694Y315665D02*
X641706Y315665D01*
X628294Y317794D02*
X628294Y291806D01*
X616306Y291806D01*
X616306Y317794D01*
X628294Y317794D01*
X628294Y293975D02*
X616306Y293975D01*
X616306Y296144D02*
X628294Y296144D01*
X628294Y298313D02*
X616306Y298313D01*
X616306Y300482D02*
X628294Y300482D01*
X628294Y302651D02*
X616306Y302651D01*
X616306Y304820D02*
X628294Y304820D01*
X628294Y306989D02*
X616306Y306989D01*
X616306Y309158D02*
X628294Y309158D01*
X628294Y311327D02*
X616306Y311327D01*
X616306Y313496D02*
X628294Y313496D01*
X628294Y315665D02*
X616306Y315665D01*
X602894Y317794D02*
X602894Y291806D01*
X590906Y291806D01*
X590906Y317794D01*
X602894Y317794D01*
X602894Y293975D02*
X590906Y293975D01*
X590906Y296144D02*
X602894Y296144D01*
X602894Y298313D02*
X590906Y298313D01*
X590906Y300482D02*
X602894Y300482D01*
X602894Y302651D02*
X590906Y302651D01*
X590906Y304820D02*
X602894Y304820D01*
X602894Y306989D02*
X590906Y306989D01*
X590906Y309158D02*
X602894Y309158D01*
X602894Y311327D02*
X590906Y311327D01*
X590906Y313496D02*
X602894Y313496D01*
X602894Y315665D02*
X590906Y315665D01*
X577494Y317794D02*
X577494Y291806D01*
X565506Y291806D01*
X565506Y317794D01*
X577494Y317794D01*
X577494Y293975D02*
X565506Y293975D01*
X565506Y296144D02*
X577494Y296144D01*
X577494Y298313D02*
X565506Y298313D01*
X565506Y300482D02*
X577494Y300482D01*
X577494Y302651D02*
X565506Y302651D01*
X565506Y304820D02*
X577494Y304820D01*
X577494Y306989D02*
X565506Y306989D01*
X565506Y309158D02*
X577494Y309158D01*
X577494Y311327D02*
X565506Y311327D01*
X565506Y313496D02*
X577494Y313496D01*
X577494Y315665D02*
X565506Y315665D01*
X755294Y60594D02*
X755294Y34606D01*
X743306Y34606D01*
X743306Y60594D01*
X755294Y60594D01*
X755294Y36775D02*
X743306Y36775D01*
X743306Y38944D02*
X755294Y38944D01*
X755294Y41113D02*
X743306Y41113D01*
X743306Y43282D02*
X755294Y43282D01*
X755294Y45451D02*
X743306Y45451D01*
X743306Y47620D02*
X755294Y47620D01*
X755294Y49789D02*
X743306Y49789D01*
X743306Y51958D02*
X755294Y51958D01*
X755294Y54127D02*
X743306Y54127D01*
X743306Y56296D02*
X755294Y56296D01*
X755294Y58465D02*
X743306Y58465D01*
X729894Y60594D02*
X729894Y34606D01*
X717906Y34606D01*
X717906Y60594D01*
X729894Y60594D01*
X729894Y36775D02*
X717906Y36775D01*
X717906Y38944D02*
X729894Y38944D01*
X729894Y41113D02*
X717906Y41113D01*
X717906Y43282D02*
X729894Y43282D01*
X729894Y45451D02*
X717906Y45451D01*
X717906Y47620D02*
X729894Y47620D01*
X729894Y49789D02*
X717906Y49789D01*
X717906Y51958D02*
X729894Y51958D01*
X729894Y54127D02*
X717906Y54127D01*
X717906Y56296D02*
X729894Y56296D01*
X729894Y58465D02*
X717906Y58465D01*
X704494Y60594D02*
X704494Y34606D01*
X692506Y34606D01*
X692506Y60594D01*
X704494Y60594D01*
X704494Y36775D02*
X692506Y36775D01*
X692506Y38944D02*
X704494Y38944D01*
X704494Y41113D02*
X692506Y41113D01*
X692506Y43282D02*
X704494Y43282D01*
X704494Y45451D02*
X692506Y45451D01*
X692506Y47620D02*
X704494Y47620D01*
X704494Y49789D02*
X692506Y49789D01*
X692506Y51958D02*
X704494Y51958D01*
X704494Y54127D02*
X692506Y54127D01*
X692506Y56296D02*
X704494Y56296D01*
X704494Y58465D02*
X692506Y58465D01*
X679094Y60594D02*
X679094Y34606D01*
X667106Y34606D01*
X667106Y60594D01*
X679094Y60594D01*
X679094Y36775D02*
X667106Y36775D01*
X667106Y38944D02*
X679094Y38944D01*
X679094Y41113D02*
X667106Y41113D01*
X667106Y43282D02*
X679094Y43282D01*
X679094Y45451D02*
X667106Y45451D01*
X667106Y47620D02*
X679094Y47620D01*
X679094Y49789D02*
X667106Y49789D01*
X667106Y51958D02*
X679094Y51958D01*
X679094Y54127D02*
X667106Y54127D01*
X667106Y56296D02*
X679094Y56296D01*
X679094Y58465D02*
X667106Y58465D01*
X653694Y60594D02*
X653694Y34606D01*
X641706Y34606D01*
X641706Y60594D01*
X653694Y60594D01*
X653694Y36775D02*
X641706Y36775D01*
X641706Y38944D02*
X653694Y38944D01*
X653694Y41113D02*
X641706Y41113D01*
X641706Y43282D02*
X653694Y43282D01*
X653694Y45451D02*
X641706Y45451D01*
X641706Y47620D02*
X653694Y47620D01*
X653694Y49789D02*
X641706Y49789D01*
X641706Y51958D02*
X653694Y51958D01*
X653694Y54127D02*
X641706Y54127D01*
X641706Y56296D02*
X653694Y56296D01*
X653694Y58465D02*
X641706Y58465D01*
X628294Y60594D02*
X628294Y34606D01*
X616306Y34606D01*
X616306Y60594D01*
X628294Y60594D01*
X628294Y36775D02*
X616306Y36775D01*
X616306Y38944D02*
X628294Y38944D01*
X628294Y41113D02*
X616306Y41113D01*
X616306Y43282D02*
X628294Y43282D01*
X628294Y45451D02*
X616306Y45451D01*
X616306Y47620D02*
X628294Y47620D01*
X628294Y49789D02*
X616306Y49789D01*
X616306Y51958D02*
X628294Y51958D01*
X628294Y54127D02*
X616306Y54127D01*
X616306Y56296D02*
X628294Y56296D01*
X628294Y58465D02*
X616306Y58465D01*
X602894Y60594D02*
X602894Y34606D01*
X590906Y34606D01*
X590906Y60594D01*
X602894Y60594D01*
X602894Y36775D02*
X590906Y36775D01*
X590906Y38944D02*
X602894Y38944D01*
X602894Y41113D02*
X590906Y41113D01*
X590906Y43282D02*
X602894Y43282D01*
X602894Y45451D02*
X590906Y45451D01*
X590906Y47620D02*
X602894Y47620D01*
X602894Y49789D02*
X590906Y49789D01*
X590906Y51958D02*
X602894Y51958D01*
X602894Y54127D02*
X590906Y54127D01*
X590906Y56296D02*
X602894Y56296D01*
X602894Y58465D02*
X590906Y58465D01*
X577494Y60594D02*
X577494Y34606D01*
X565506Y34606D01*
X565506Y60594D01*
X577494Y60594D01*
X577494Y36775D02*
X565506Y36775D01*
X565506Y38944D02*
X577494Y38944D01*
X577494Y41113D02*
X565506Y41113D01*
X565506Y43282D02*
X577494Y43282D01*
X577494Y45451D02*
X565506Y45451D01*
X565506Y47620D02*
X577494Y47620D01*
X577494Y49789D02*
X565506Y49789D01*
X565506Y51958D02*
X577494Y51958D01*
X577494Y54127D02*
X565506Y54127D01*
X565506Y56296D02*
X577494Y56296D01*
X577494Y58465D02*
X565506Y58465D01*
D28*
X554990Y296944D03*
X554990Y64944D03*
D16*
X352266Y17304D02*
X352266Y10636D01*
X352266Y17304D02*
X366554Y17304D01*
X366554Y10636D01*
X352266Y10636D01*
X352266Y12748D02*
X366554Y12748D01*
X366554Y14860D02*
X352266Y14860D01*
X352266Y16972D02*
X366554Y16972D01*
X296386Y17304D02*
X296386Y10636D01*
X296386Y17304D02*
X310674Y17304D01*
X310674Y10636D01*
X296386Y10636D01*
X296386Y12748D02*
X310674Y12748D01*
X310674Y14860D02*
X296386Y14860D01*
X296386Y16972D02*
X310674Y16972D01*
X352266Y48736D02*
X352266Y55404D01*
X366554Y55404D01*
X366554Y48736D01*
X352266Y48736D01*
X352266Y50848D02*
X366554Y50848D01*
X366554Y52960D02*
X352266Y52960D01*
X352266Y55072D02*
X366554Y55072D01*
X296386Y55404D02*
X296386Y48736D01*
X296386Y55404D02*
X310674Y55404D01*
X310674Y48736D01*
X296386Y48736D01*
X296386Y50848D02*
X310674Y50848D01*
X310674Y52960D02*
X296386Y52960D01*
X296386Y55072D02*
X310674Y55072D01*
M02*
