G04 EAGLE Gerber RS-274X export*
G75*
%MOMM*%
%FSLAX34Y34*%
%LPD*%
%INSolderpaste Top*%
%IPPOS*%
%AMOC8*
5,1,8,0,0,1.08239X$1,22.5*%
G01*
%ADD10C,0.102000*%
%ADD11C,0.100000*%
%ADD12C,0.099059*%
%ADD13C,0.300000*%
%ADD14C,0.096000*%
%ADD15R,1.750000X0.300000*%
%ADD16R,1.375000X0.800000*%
%ADD17C,0.098000*%
%ADD18C,0.100800*%
%ADD19C,0.099000*%
%ADD20C,0.104000*%

G36*
X439329Y107111D02*
X439329Y107111D01*
X439374Y107112D01*
X439425Y107134D01*
X439480Y107147D01*
X439516Y107173D01*
X439556Y107191D01*
X439595Y107232D01*
X439640Y107265D01*
X439663Y107303D01*
X439693Y107335D01*
X439713Y107388D01*
X439742Y107436D01*
X439750Y107487D01*
X439763Y107521D01*
X439762Y107555D01*
X439769Y107600D01*
X439769Y118600D01*
X439759Y118653D01*
X439758Y118706D01*
X439739Y118749D01*
X439730Y118795D01*
X439699Y118839D01*
X439678Y118888D01*
X439644Y118920D01*
X439617Y118959D01*
X439572Y118988D01*
X439533Y119024D01*
X439482Y119045D01*
X439450Y119066D01*
X439418Y119071D01*
X439379Y119087D01*
X436644Y119698D01*
X434080Y120726D01*
X431716Y122153D01*
X429612Y123942D01*
X427823Y126046D01*
X426396Y128410D01*
X425368Y130974D01*
X424757Y133709D01*
X424735Y133758D01*
X424723Y133810D01*
X424695Y133848D01*
X424676Y133890D01*
X424637Y133927D01*
X424605Y133970D01*
X424565Y133994D01*
X424531Y134026D01*
X424480Y134044D01*
X424434Y134072D01*
X424380Y134081D01*
X424344Y134094D01*
X424312Y134092D01*
X424270Y134099D01*
X413270Y134099D01*
X413215Y134088D01*
X413159Y134087D01*
X413118Y134068D01*
X413075Y134060D01*
X413029Y134028D01*
X412978Y134005D01*
X412948Y133972D01*
X412911Y133947D01*
X412881Y133900D01*
X412843Y133858D01*
X412828Y133817D01*
X412804Y133780D01*
X412795Y133724D01*
X412776Y133671D01*
X412777Y133619D01*
X412771Y133583D01*
X412779Y133551D01*
X412779Y133546D01*
X412779Y133544D01*
X412779Y133543D01*
X412780Y133505D01*
X413619Y129184D01*
X413631Y129155D01*
X413639Y129113D01*
X415108Y124963D01*
X415124Y124936D01*
X415138Y124896D01*
X417204Y121009D01*
X417224Y120985D01*
X417243Y120947D01*
X419861Y117408D01*
X419885Y117387D01*
X419910Y117352D01*
X423022Y114240D01*
X423037Y114230D01*
X423045Y114219D01*
X423060Y114210D01*
X423078Y114191D01*
X426617Y111573D01*
X426645Y111560D01*
X426679Y111534D01*
X430566Y109468D01*
X430596Y109459D01*
X430633Y109438D01*
X434783Y107969D01*
X434814Y107964D01*
X434854Y107949D01*
X439175Y107110D01*
X439231Y107110D01*
X439287Y107101D01*
X439329Y107111D01*
G37*
G36*
X424323Y141111D02*
X424323Y141111D01*
X424376Y141112D01*
X424419Y141131D01*
X424465Y141140D01*
X424509Y141171D01*
X424558Y141192D01*
X424590Y141226D01*
X424629Y141253D01*
X424658Y141298D01*
X424694Y141337D01*
X424715Y141388D01*
X424736Y141420D01*
X424741Y141452D01*
X424757Y141491D01*
X425368Y144226D01*
X426396Y146790D01*
X427823Y149154D01*
X429612Y151258D01*
X431716Y153047D01*
X434080Y154474D01*
X436644Y155502D01*
X439379Y156113D01*
X439428Y156135D01*
X439480Y156147D01*
X439518Y156175D01*
X439560Y156194D01*
X439597Y156233D01*
X439640Y156265D01*
X439664Y156305D01*
X439696Y156339D01*
X439714Y156390D01*
X439742Y156436D01*
X439751Y156490D01*
X439764Y156526D01*
X439762Y156558D01*
X439769Y156600D01*
X439769Y167600D01*
X439758Y167655D01*
X439757Y167711D01*
X439738Y167752D01*
X439730Y167795D01*
X439698Y167841D01*
X439675Y167893D01*
X439642Y167922D01*
X439617Y167959D01*
X439570Y167989D01*
X439528Y168027D01*
X439487Y168042D01*
X439450Y168066D01*
X439394Y168075D01*
X439341Y168094D01*
X439289Y168093D01*
X439253Y168099D01*
X439221Y168091D01*
X439175Y168090D01*
X434854Y167251D01*
X434825Y167239D01*
X434783Y167231D01*
X430633Y165762D01*
X430606Y165746D01*
X430566Y165732D01*
X426679Y163666D01*
X426655Y163646D01*
X426617Y163627D01*
X423078Y161009D01*
X423057Y160985D01*
X423022Y160960D01*
X419910Y157848D01*
X419892Y157822D01*
X419861Y157792D01*
X417243Y154254D01*
X417230Y154225D01*
X417204Y154191D01*
X415138Y150304D01*
X415131Y150281D01*
X415122Y150267D01*
X415121Y150259D01*
X415108Y150237D01*
X413639Y146087D01*
X413634Y146056D01*
X413619Y146016D01*
X412780Y141695D01*
X412780Y141639D01*
X412771Y141583D01*
X412781Y141541D01*
X412782Y141496D01*
X412804Y141445D01*
X412817Y141390D01*
X412843Y141355D01*
X412861Y141314D01*
X412902Y141275D01*
X412935Y141230D01*
X412973Y141207D01*
X413005Y141177D01*
X413058Y141157D01*
X413106Y141128D01*
X413157Y141120D01*
X413191Y141107D01*
X413225Y141108D01*
X413270Y141101D01*
X424270Y141101D01*
X424323Y141111D01*
G37*
G36*
X473325Y141112D02*
X473325Y141112D01*
X473381Y141113D01*
X473422Y141132D01*
X473465Y141140D01*
X473511Y141172D01*
X473563Y141195D01*
X473592Y141228D01*
X473629Y141253D01*
X473659Y141300D01*
X473697Y141342D01*
X473712Y141383D01*
X473736Y141420D01*
X473745Y141476D01*
X473764Y141529D01*
X473763Y141581D01*
X473769Y141617D01*
X473761Y141649D01*
X473760Y141695D01*
X472921Y146016D01*
X472909Y146045D01*
X472901Y146087D01*
X471432Y150237D01*
X471416Y150264D01*
X471407Y150291D01*
X471405Y150297D01*
X471404Y150299D01*
X471402Y150304D01*
X469336Y154191D01*
X469316Y154215D01*
X469297Y154254D01*
X466679Y157792D01*
X466655Y157813D01*
X466630Y157848D01*
X463518Y160960D01*
X463492Y160978D01*
X463462Y161009D01*
X459924Y163627D01*
X459895Y163640D01*
X459861Y163666D01*
X455974Y165732D01*
X455944Y165741D01*
X455907Y165762D01*
X451757Y167231D01*
X451726Y167236D01*
X451686Y167251D01*
X447365Y168090D01*
X447309Y168090D01*
X447253Y168099D01*
X447211Y168089D01*
X447166Y168088D01*
X447115Y168066D01*
X447060Y168053D01*
X447025Y168027D01*
X446984Y168009D01*
X446945Y167968D01*
X446900Y167935D01*
X446877Y167897D01*
X446847Y167865D01*
X446827Y167812D01*
X446798Y167764D01*
X446790Y167713D01*
X446777Y167679D01*
X446778Y167645D01*
X446771Y167600D01*
X446771Y156600D01*
X446781Y156547D01*
X446782Y156494D01*
X446801Y156451D01*
X446810Y156405D01*
X446841Y156361D01*
X446862Y156312D01*
X446896Y156280D01*
X446923Y156241D01*
X446968Y156212D01*
X447007Y156176D01*
X447058Y156155D01*
X447090Y156134D01*
X447122Y156129D01*
X447161Y156113D01*
X449896Y155502D01*
X452460Y154474D01*
X454824Y153047D01*
X456928Y151258D01*
X458717Y149154D01*
X460144Y146790D01*
X461172Y144226D01*
X461783Y141491D01*
X461805Y141442D01*
X461817Y141390D01*
X461845Y141352D01*
X461864Y141310D01*
X461903Y141273D01*
X461935Y141230D01*
X461975Y141206D01*
X462009Y141174D01*
X462060Y141156D01*
X462106Y141128D01*
X462160Y141119D01*
X462196Y141106D01*
X462228Y141108D01*
X462270Y141101D01*
X473270Y141101D01*
X473325Y141112D01*
G37*
G36*
X447319Y107109D02*
X447319Y107109D01*
X447365Y107110D01*
X451686Y107949D01*
X451715Y107961D01*
X451757Y107969D01*
X455907Y109438D01*
X455934Y109454D01*
X455974Y109468D01*
X459861Y111534D01*
X459885Y111554D01*
X459924Y111573D01*
X463462Y114191D01*
X463483Y114215D01*
X463518Y114240D01*
X466630Y117352D01*
X466648Y117379D01*
X466679Y117408D01*
X469297Y120947D01*
X469310Y120975D01*
X469336Y121009D01*
X471402Y124896D01*
X471411Y124926D01*
X471432Y124963D01*
X472901Y129113D01*
X472906Y129144D01*
X472921Y129184D01*
X473760Y133505D01*
X473760Y133561D01*
X473769Y133617D01*
X473759Y133659D01*
X473758Y133704D01*
X473736Y133755D01*
X473723Y133810D01*
X473697Y133846D01*
X473679Y133886D01*
X473638Y133925D01*
X473605Y133970D01*
X473567Y133993D01*
X473535Y134023D01*
X473482Y134043D01*
X473434Y134072D01*
X473383Y134080D01*
X473349Y134093D01*
X473315Y134092D01*
X473270Y134099D01*
X462270Y134099D01*
X462217Y134089D01*
X462164Y134088D01*
X462121Y134069D01*
X462075Y134060D01*
X462031Y134029D01*
X461982Y134008D01*
X461950Y133974D01*
X461911Y133947D01*
X461882Y133902D01*
X461846Y133863D01*
X461825Y133812D01*
X461804Y133780D01*
X461799Y133748D01*
X461796Y133742D01*
X461795Y133741D01*
X461795Y133740D01*
X461783Y133709D01*
X461172Y130974D01*
X460144Y128410D01*
X458717Y126046D01*
X456928Y123942D01*
X454824Y122153D01*
X452460Y120726D01*
X449896Y119698D01*
X447161Y119087D01*
X447112Y119065D01*
X447060Y119053D01*
X447022Y119025D01*
X446980Y119006D01*
X446943Y118967D01*
X446900Y118935D01*
X446876Y118895D01*
X446844Y118861D01*
X446826Y118810D01*
X446798Y118764D01*
X446789Y118710D01*
X446776Y118674D01*
X446778Y118642D01*
X446771Y118600D01*
X446771Y107600D01*
X446782Y107545D01*
X446783Y107489D01*
X446802Y107448D01*
X446810Y107405D01*
X446842Y107359D01*
X446865Y107308D01*
X446898Y107278D01*
X446923Y107241D01*
X446970Y107211D01*
X447012Y107173D01*
X447053Y107158D01*
X447090Y107134D01*
X447146Y107125D01*
X447199Y107106D01*
X447251Y107107D01*
X447287Y107101D01*
X447319Y107109D01*
G37*
G36*
X59035Y58434D02*
X59035Y58434D01*
X59038Y58431D01*
X60133Y58611D01*
X60139Y58617D01*
X60144Y58614D01*
X61172Y59033D01*
X61176Y59040D01*
X61181Y59038D01*
X62090Y59676D01*
X62093Y59683D01*
X62098Y59683D01*
X62842Y60506D01*
X62843Y60514D01*
X62849Y60515D01*
X63391Y61483D01*
X63390Y61492D01*
X63396Y61494D01*
X63709Y62558D01*
X63706Y62566D01*
X63711Y62569D01*
X63779Y63677D01*
X63775Y63684D01*
X63779Y63687D01*
X63609Y64795D01*
X63603Y64801D01*
X63606Y64806D01*
X63194Y65848D01*
X63187Y65852D01*
X63189Y65857D01*
X62555Y66782D01*
X62547Y66784D01*
X62548Y66790D01*
X61725Y67550D01*
X61716Y67551D01*
X61716Y67557D01*
X60744Y68114D01*
X60736Y68113D01*
X60734Y68119D01*
X59662Y68446D01*
X59654Y68443D01*
X59651Y68448D01*
X58534Y68529D01*
X58531Y68528D01*
X58530Y68529D01*
X46530Y68529D01*
X46527Y68527D01*
X46520Y68527D01*
X46519Y68528D01*
X45575Y68309D01*
X45569Y68303D01*
X45564Y68305D01*
X44692Y67882D01*
X44689Y67874D01*
X44683Y67876D01*
X43927Y67269D01*
X43925Y67261D01*
X43919Y67261D01*
X43318Y66501D01*
X43318Y66492D01*
X43312Y66491D01*
X42894Y65616D01*
X42896Y65608D01*
X42891Y65606D01*
X42679Y64660D01*
X42682Y64653D01*
X42677Y64649D01*
X42681Y63680D01*
X42681Y63679D01*
X42700Y62611D01*
X42705Y62604D01*
X42701Y62600D01*
X42957Y61563D01*
X42964Y61558D01*
X42961Y61552D01*
X43442Y60598D01*
X43449Y60595D01*
X43448Y60589D01*
X44129Y59766D01*
X44137Y59764D01*
X44137Y59758D01*
X44984Y59107D01*
X44992Y59107D01*
X44993Y59101D01*
X45964Y58654D01*
X45972Y58656D01*
X45974Y58651D01*
X47020Y58432D01*
X47027Y58435D01*
X47030Y58431D01*
X59030Y58431D01*
X59035Y58434D01*
G37*
G36*
X59035Y144835D02*
X59035Y144835D01*
X59038Y144831D01*
X60144Y145024D01*
X60149Y145029D01*
X60149Y145030D01*
X60154Y145027D01*
X61189Y145460D01*
X61193Y145467D01*
X61198Y145465D01*
X62111Y146118D01*
X62113Y146126D01*
X62119Y146125D01*
X62863Y146964D01*
X62864Y146973D01*
X62869Y146973D01*
X63408Y147957D01*
X63407Y147965D01*
X63408Y147966D01*
X63412Y147967D01*
X63413Y147969D01*
X63595Y148610D01*
X63719Y149046D01*
X63717Y149051D01*
X63719Y149053D01*
X63717Y149055D01*
X63721Y149057D01*
X63779Y150177D01*
X63776Y150182D01*
X63779Y150186D01*
X63661Y151231D01*
X63655Y151237D01*
X63659Y151242D01*
X63311Y152236D01*
X63304Y152240D01*
X63306Y152245D01*
X62746Y153137D01*
X62739Y153140D01*
X62739Y153145D01*
X61995Y153889D01*
X61987Y153891D01*
X61987Y153896D01*
X61095Y154456D01*
X61087Y154456D01*
X61086Y154461D01*
X60092Y154809D01*
X60084Y154806D01*
X60081Y154811D01*
X59036Y154929D01*
X59032Y154927D01*
X59030Y154929D01*
X47030Y154929D01*
X47027Y154927D01*
X47024Y154927D01*
X47022Y154929D01*
X46026Y154771D01*
X46020Y154765D01*
X46015Y154768D01*
X45079Y154393D01*
X45075Y154386D01*
X45069Y154388D01*
X44240Y153814D01*
X44237Y153806D01*
X44232Y153807D01*
X43551Y153063D01*
X43550Y153054D01*
X43544Y153054D01*
X43046Y152177D01*
X43047Y152169D01*
X43042Y152166D01*
X42854Y151542D01*
X42751Y151201D01*
X42752Y151198D01*
X42751Y151197D01*
X42754Y151193D01*
X42749Y151190D01*
X42681Y150183D01*
X42682Y150181D01*
X42681Y150180D01*
X42690Y149099D01*
X42695Y149092D01*
X42691Y149088D01*
X42941Y148036D01*
X42947Y148031D01*
X42944Y148026D01*
X43421Y147056D01*
X43429Y147053D01*
X43427Y147047D01*
X44108Y146208D01*
X44116Y146206D01*
X44116Y146200D01*
X44967Y145534D01*
X44975Y145533D01*
X44976Y145528D01*
X45953Y145067D01*
X45961Y145069D01*
X45964Y145064D01*
X47019Y144832D01*
X47027Y144835D01*
X47030Y144831D01*
X59030Y144831D01*
X59035Y144835D01*
G37*
G36*
X14234Y58434D02*
X14234Y58434D01*
X14236Y58431D01*
X15369Y58581D01*
X15375Y58587D01*
X15380Y58584D01*
X16450Y58982D01*
X16454Y58989D01*
X16460Y58987D01*
X17415Y59614D01*
X17418Y59622D01*
X17423Y59621D01*
X18215Y60444D01*
X18216Y60452D01*
X18222Y60453D01*
X18811Y61432D01*
X18810Y61440D01*
X18815Y61442D01*
X19171Y62527D01*
X19169Y62535D01*
X19173Y62538D01*
X19279Y63675D01*
X19274Y63684D01*
X19278Y63689D01*
X19071Y64826D01*
X19065Y64832D01*
X19068Y64837D01*
X18613Y65899D01*
X18606Y65903D01*
X18608Y65909D01*
X17928Y66844D01*
X17920Y66846D01*
X17921Y66852D01*
X17050Y67612D01*
X17042Y67612D01*
X17041Y67618D01*
X16022Y68165D01*
X16014Y68164D01*
X16012Y68169D01*
X14898Y68476D01*
X14890Y68473D01*
X14887Y68478D01*
X13732Y68529D01*
X13731Y68528D01*
X13730Y68529D01*
X7730Y68529D01*
X7727Y68527D01*
X7722Y68527D01*
X7721Y68528D01*
X6640Y68316D01*
X6635Y68310D01*
X6630Y68313D01*
X5624Y67866D01*
X5620Y67859D01*
X5614Y67861D01*
X4733Y67201D01*
X4730Y67193D01*
X4725Y67193D01*
X4012Y66354D01*
X4012Y66346D01*
X4006Y66345D01*
X3498Y65368D01*
X3499Y65360D01*
X3494Y65358D01*
X3216Y64293D01*
X3219Y64285D01*
X3215Y64282D01*
X3181Y63182D01*
X3185Y63176D01*
X3181Y63173D01*
X3336Y62098D01*
X3342Y62092D01*
X3339Y62087D01*
X3729Y61073D01*
X3736Y61069D01*
X3735Y61063D01*
X4341Y60161D01*
X4349Y60159D01*
X4348Y60153D01*
X5140Y59409D01*
X5148Y59408D01*
X5148Y59402D01*
X6086Y58853D01*
X6094Y58854D01*
X6096Y58848D01*
X7132Y58521D01*
X7140Y58524D01*
X7143Y58519D01*
X8226Y58431D01*
X8229Y58433D01*
X8230Y58431D01*
X14230Y58431D01*
X14234Y58434D01*
G37*
G36*
X14233Y144833D02*
X14233Y144833D01*
X14235Y144831D01*
X15327Y144932D01*
X15333Y144937D01*
X15338Y144934D01*
X16381Y145275D01*
X16386Y145282D01*
X16391Y145280D01*
X17332Y145844D01*
X17335Y145852D01*
X17341Y145851D01*
X18133Y146611D01*
X18134Y146619D01*
X18140Y146620D01*
X18743Y147537D01*
X18742Y147545D01*
X18748Y147547D01*
X19131Y148575D01*
X19129Y148583D01*
X19134Y148586D01*
X19279Y149674D01*
X19275Y149681D01*
X19279Y149685D01*
X19173Y150822D01*
X19168Y150828D01*
X19171Y150833D01*
X18815Y151918D01*
X18808Y151923D01*
X18811Y151928D01*
X18222Y152907D01*
X18214Y152910D01*
X18215Y152916D01*
X17423Y153739D01*
X17415Y153740D01*
X17415Y153746D01*
X16460Y154373D01*
X16452Y154372D01*
X16450Y154378D01*
X15380Y154776D01*
X15372Y154774D01*
X15369Y154779D01*
X14236Y154929D01*
X14233Y154927D01*
X14232Y154927D01*
X14230Y154929D01*
X8230Y154929D01*
X8227Y154927D01*
X8225Y154927D01*
X8224Y154929D01*
X7091Y154779D01*
X7085Y154773D01*
X7080Y154776D01*
X6010Y154378D01*
X6006Y154371D01*
X6000Y154373D01*
X5045Y153746D01*
X5042Y153738D01*
X5037Y153739D01*
X4245Y152916D01*
X4244Y152908D01*
X4238Y152907D01*
X3649Y151928D01*
X3650Y151920D01*
X3645Y151918D01*
X3289Y150833D01*
X3292Y150825D01*
X3287Y150822D01*
X3181Y149685D01*
X3185Y149678D01*
X3181Y149674D01*
X3326Y148586D01*
X3332Y148580D01*
X3329Y148575D01*
X3713Y147547D01*
X3719Y147542D01*
X3718Y147537D01*
X4320Y146620D01*
X4328Y146617D01*
X4327Y146611D01*
X5119Y145851D01*
X5127Y145850D01*
X5128Y145844D01*
X6069Y145280D01*
X6077Y145281D01*
X6079Y145275D01*
X7122Y144934D01*
X7130Y144936D01*
X7133Y144932D01*
X8226Y144831D01*
X8228Y144833D01*
X8230Y144831D01*
X14230Y144831D01*
X14233Y144833D01*
G37*
D10*
X54340Y98190D02*
X54340Y100170D01*
X63320Y100170D01*
X63320Y98190D01*
X54340Y98190D01*
X54340Y99159D02*
X63320Y99159D01*
X63320Y100128D02*
X54340Y100128D01*
X54340Y103190D02*
X54340Y105170D01*
X63320Y105170D01*
X63320Y103190D01*
X54340Y103190D01*
X54340Y104159D02*
X63320Y104159D01*
X63320Y105128D02*
X54340Y105128D01*
X54340Y76920D02*
X54340Y71940D01*
X54340Y76920D02*
X63320Y76920D01*
X63320Y71940D01*
X54340Y71940D01*
X54340Y72909D02*
X63320Y72909D01*
X63320Y73878D02*
X54340Y73878D01*
X54340Y74847D02*
X63320Y74847D01*
X63320Y75816D02*
X54340Y75816D01*
X54340Y76785D02*
X63320Y76785D01*
X54340Y79690D02*
X54340Y84670D01*
X63320Y84670D01*
X63320Y79690D01*
X54340Y79690D01*
X54340Y80659D02*
X63320Y80659D01*
X63320Y81628D02*
X54340Y81628D01*
X54340Y82597D02*
X63320Y82597D01*
X63320Y83566D02*
X54340Y83566D01*
X54340Y84535D02*
X63320Y84535D01*
X54340Y88190D02*
X54340Y90170D01*
X63320Y90170D01*
X63320Y88190D01*
X54340Y88190D01*
X54340Y89159D02*
X63320Y89159D01*
X63320Y90128D02*
X54340Y90128D01*
X54340Y93190D02*
X54340Y95170D01*
X63320Y95170D01*
X63320Y93190D01*
X54340Y93190D01*
X54340Y94159D02*
X63320Y94159D01*
X63320Y95128D02*
X54340Y95128D01*
X63320Y113190D02*
X63320Y115170D01*
X63320Y113190D02*
X54340Y113190D01*
X54340Y115170D01*
X63320Y115170D01*
X63320Y114159D02*
X54340Y114159D01*
X54340Y115128D02*
X63320Y115128D01*
X63320Y110170D02*
X63320Y108190D01*
X54340Y108190D01*
X54340Y110170D01*
X63320Y110170D01*
X63320Y109159D02*
X54340Y109159D01*
X54340Y110128D02*
X63320Y110128D01*
X63320Y136440D02*
X63320Y141420D01*
X63320Y136440D02*
X54340Y136440D01*
X54340Y141420D01*
X63320Y141420D01*
X63320Y137409D02*
X54340Y137409D01*
X54340Y138378D02*
X63320Y138378D01*
X63320Y139347D02*
X54340Y139347D01*
X54340Y140316D02*
X63320Y140316D01*
X63320Y141285D02*
X54340Y141285D01*
X63320Y133670D02*
X63320Y128690D01*
X54340Y128690D01*
X54340Y133670D01*
X63320Y133670D01*
X63320Y129659D02*
X54340Y129659D01*
X54340Y130628D02*
X63320Y130628D01*
X63320Y131597D02*
X54340Y131597D01*
X54340Y132566D02*
X63320Y132566D01*
X63320Y133535D02*
X54340Y133535D01*
X63320Y125170D02*
X63320Y123190D01*
X54340Y123190D01*
X54340Y125170D01*
X63320Y125170D01*
X63320Y124159D02*
X54340Y124159D01*
X54340Y125128D02*
X63320Y125128D01*
X63320Y120170D02*
X63320Y118190D01*
X54340Y118190D01*
X54340Y120170D01*
X63320Y120170D01*
X63320Y119159D02*
X54340Y119159D01*
X54340Y120128D02*
X63320Y120128D01*
D11*
X70430Y135580D02*
X70430Y145580D01*
X79430Y145580D01*
X79430Y135580D01*
X70430Y135580D01*
X70430Y136530D02*
X79430Y136530D01*
X79430Y137480D02*
X70430Y137480D01*
X70430Y138430D02*
X79430Y138430D01*
X79430Y139380D02*
X70430Y139380D01*
X70430Y140330D02*
X79430Y140330D01*
X79430Y141280D02*
X70430Y141280D01*
X70430Y142230D02*
X79430Y142230D01*
X79430Y143180D02*
X70430Y143180D01*
X70430Y144130D02*
X79430Y144130D01*
X79430Y145080D02*
X70430Y145080D01*
X70430Y128580D02*
X70430Y118580D01*
X70430Y128580D02*
X79430Y128580D01*
X79430Y118580D01*
X70430Y118580D01*
X70430Y119530D02*
X79430Y119530D01*
X79430Y120480D02*
X70430Y120480D01*
X70430Y121430D02*
X79430Y121430D01*
X79430Y122380D02*
X70430Y122380D01*
X70430Y123330D02*
X79430Y123330D01*
X79430Y124280D02*
X70430Y124280D01*
X70430Y125230D02*
X79430Y125230D01*
X79430Y126180D02*
X70430Y126180D01*
X70430Y127130D02*
X79430Y127130D01*
X79430Y128080D02*
X70430Y128080D01*
X79430Y77780D02*
X79430Y67780D01*
X70430Y67780D01*
X70430Y77780D01*
X79430Y77780D01*
X79430Y68730D02*
X70430Y68730D01*
X70430Y69680D02*
X79430Y69680D01*
X79430Y70630D02*
X70430Y70630D01*
X70430Y71580D02*
X79430Y71580D01*
X79430Y72530D02*
X70430Y72530D01*
X70430Y73480D02*
X79430Y73480D01*
X79430Y74430D02*
X70430Y74430D01*
X70430Y75380D02*
X79430Y75380D01*
X79430Y76330D02*
X70430Y76330D01*
X70430Y77280D02*
X79430Y77280D01*
X79430Y84780D02*
X79430Y94780D01*
X79430Y84780D02*
X70430Y84780D01*
X70430Y94780D01*
X79430Y94780D01*
X79430Y85730D02*
X70430Y85730D01*
X70430Y86680D02*
X79430Y86680D01*
X79430Y87630D02*
X70430Y87630D01*
X70430Y88580D02*
X79430Y88580D01*
X79430Y89530D02*
X70430Y89530D01*
X70430Y90480D02*
X79430Y90480D01*
X79430Y91430D02*
X70430Y91430D01*
X70430Y92380D02*
X79430Y92380D01*
X79430Y93330D02*
X70430Y93330D01*
X70430Y94280D02*
X79430Y94280D01*
D12*
X169405Y17285D02*
X169405Y10655D01*
X169405Y17285D02*
X183655Y17285D01*
X183655Y10655D01*
X169405Y10655D01*
X169405Y11596D02*
X183655Y11596D01*
X183655Y12537D02*
X169405Y12537D01*
X169405Y13478D02*
X183655Y13478D01*
X183655Y14419D02*
X169405Y14419D01*
X169405Y15360D02*
X183655Y15360D01*
X183655Y16301D02*
X169405Y16301D01*
X169405Y17242D02*
X183655Y17242D01*
X113525Y17285D02*
X113525Y10655D01*
X113525Y17285D02*
X127775Y17285D01*
X127775Y10655D01*
X113525Y10655D01*
X113525Y11596D02*
X127775Y11596D01*
X127775Y12537D02*
X113525Y12537D01*
X113525Y13478D02*
X127775Y13478D01*
X127775Y14419D02*
X113525Y14419D01*
X113525Y15360D02*
X127775Y15360D01*
X127775Y16301D02*
X113525Y16301D01*
X113525Y17242D02*
X127775Y17242D01*
X169405Y48755D02*
X169405Y55385D01*
X183655Y55385D01*
X183655Y48755D01*
X169405Y48755D01*
X169405Y49696D02*
X183655Y49696D01*
X183655Y50637D02*
X169405Y50637D01*
X169405Y51578D02*
X183655Y51578D01*
X183655Y52519D02*
X169405Y52519D01*
X169405Y53460D02*
X183655Y53460D01*
X183655Y54401D02*
X169405Y54401D01*
X169405Y55342D02*
X183655Y55342D01*
X113525Y55385D02*
X113525Y48755D01*
X113525Y55385D02*
X127775Y55385D01*
X127775Y48755D01*
X113525Y48755D01*
X113525Y49696D02*
X127775Y49696D01*
X127775Y50637D02*
X113525Y50637D01*
X113525Y51578D02*
X127775Y51578D01*
X127775Y52519D02*
X113525Y52519D01*
X113525Y53460D02*
X127775Y53460D01*
X127775Y54401D02*
X113525Y54401D01*
X113525Y55342D02*
X127775Y55342D01*
X255765Y17285D02*
X255765Y10655D01*
X255765Y17285D02*
X270015Y17285D01*
X270015Y10655D01*
X255765Y10655D01*
X255765Y11596D02*
X270015Y11596D01*
X270015Y12537D02*
X255765Y12537D01*
X255765Y13478D02*
X270015Y13478D01*
X270015Y14419D02*
X255765Y14419D01*
X255765Y15360D02*
X270015Y15360D01*
X270015Y16301D02*
X255765Y16301D01*
X255765Y17242D02*
X270015Y17242D01*
X199885Y17285D02*
X199885Y10655D01*
X199885Y17285D02*
X214135Y17285D01*
X214135Y10655D01*
X199885Y10655D01*
X199885Y11596D02*
X214135Y11596D01*
X214135Y12537D02*
X199885Y12537D01*
X199885Y13478D02*
X214135Y13478D01*
X214135Y14419D02*
X199885Y14419D01*
X199885Y15360D02*
X214135Y15360D01*
X214135Y16301D02*
X199885Y16301D01*
X199885Y17242D02*
X214135Y17242D01*
X255765Y48755D02*
X255765Y55385D01*
X270015Y55385D01*
X270015Y48755D01*
X255765Y48755D01*
X255765Y49696D02*
X270015Y49696D01*
X270015Y50637D02*
X255765Y50637D01*
X255765Y51578D02*
X270015Y51578D01*
X270015Y52519D02*
X255765Y52519D01*
X255765Y53460D02*
X270015Y53460D01*
X270015Y54401D02*
X255765Y54401D01*
X255765Y55342D02*
X270015Y55342D01*
X199885Y55385D02*
X199885Y48755D01*
X199885Y55385D02*
X214135Y55385D01*
X214135Y48755D01*
X199885Y48755D01*
X199885Y49696D02*
X214135Y49696D01*
X214135Y50637D02*
X199885Y50637D01*
X199885Y51578D02*
X214135Y51578D01*
X214135Y52519D02*
X199885Y52519D01*
X199885Y53460D02*
X214135Y53460D01*
X214135Y54401D02*
X199885Y54401D01*
X199885Y55342D02*
X214135Y55342D01*
D11*
X148900Y332050D02*
X138900Y332050D01*
X138900Y341050D01*
X148900Y341050D01*
X148900Y332050D01*
X148900Y333000D02*
X138900Y333000D01*
X138900Y333950D02*
X148900Y333950D01*
X148900Y334900D02*
X138900Y334900D01*
X138900Y335850D02*
X148900Y335850D01*
X148900Y336800D02*
X138900Y336800D01*
X138900Y337750D02*
X148900Y337750D01*
X148900Y338700D02*
X138900Y338700D01*
X138900Y339650D02*
X148900Y339650D01*
X148900Y340600D02*
X138900Y340600D01*
X155900Y332050D02*
X165900Y332050D01*
X155900Y332050D02*
X155900Y341050D01*
X165900Y341050D01*
X165900Y332050D01*
X165900Y333000D02*
X155900Y333000D01*
X155900Y333950D02*
X165900Y333950D01*
X165900Y334900D02*
X155900Y334900D01*
X155900Y335850D02*
X165900Y335850D01*
X165900Y336800D02*
X155900Y336800D01*
X155900Y337750D02*
X165900Y337750D01*
X165900Y338700D02*
X155900Y338700D01*
X155900Y339650D02*
X165900Y339650D01*
X165900Y340600D02*
X155900Y340600D01*
D13*
X109030Y340050D02*
X109030Y333050D01*
X102030Y333050D01*
X102030Y340050D01*
X109030Y340050D01*
X109030Y335900D02*
X102030Y335900D01*
X102030Y338750D02*
X109030Y338750D01*
X126570Y340050D02*
X126570Y333050D01*
X119570Y333050D01*
X119570Y340050D01*
X126570Y340050D01*
X126570Y335900D02*
X119570Y335900D01*
X119570Y338750D02*
X126570Y338750D01*
D14*
X209570Y79820D02*
X209570Y68780D01*
X183030Y68780D01*
X183030Y79820D01*
X209570Y79820D01*
X209570Y69692D02*
X183030Y69692D01*
X183030Y70604D02*
X209570Y70604D01*
X209570Y71516D02*
X183030Y71516D01*
X183030Y72428D02*
X209570Y72428D01*
X209570Y73340D02*
X183030Y73340D01*
X183030Y74252D02*
X209570Y74252D01*
X209570Y75164D02*
X183030Y75164D01*
X183030Y76076D02*
X209570Y76076D01*
X209570Y76988D02*
X183030Y76988D01*
X183030Y77900D02*
X209570Y77900D01*
X209570Y78812D02*
X183030Y78812D01*
X183030Y79724D02*
X209570Y79724D01*
X209570Y275780D02*
X209570Y286820D01*
X209570Y275780D02*
X183030Y275780D01*
X183030Y286820D01*
X209570Y286820D01*
X209570Y276692D02*
X183030Y276692D01*
X183030Y277604D02*
X209570Y277604D01*
X209570Y278516D02*
X183030Y278516D01*
X183030Y279428D02*
X209570Y279428D01*
X209570Y280340D02*
X183030Y280340D01*
X183030Y281252D02*
X209570Y281252D01*
X209570Y282164D02*
X183030Y282164D01*
X183030Y283076D02*
X209570Y283076D01*
X209570Y283988D02*
X183030Y283988D01*
X183030Y284900D02*
X209570Y284900D01*
X209570Y285812D02*
X183030Y285812D01*
X183030Y286724D02*
X209570Y286724D01*
D15*
X264050Y267800D03*
X264050Y257800D03*
X264050Y252800D03*
X264050Y262800D03*
X264050Y247800D03*
X264050Y237800D03*
X264050Y232800D03*
X264050Y242800D03*
X264050Y227800D03*
X264050Y217800D03*
X264050Y212800D03*
X264050Y222800D03*
X264050Y207800D03*
X264050Y197800D03*
X264050Y192800D03*
X264050Y202800D03*
X264050Y187800D03*
X264050Y177800D03*
X264050Y172800D03*
X264050Y182800D03*
X264050Y167800D03*
X264050Y162800D03*
X264050Y137800D03*
X264050Y132800D03*
X264050Y127800D03*
X264050Y117800D03*
X264050Y112800D03*
X264050Y122800D03*
X264050Y107800D03*
X264050Y97800D03*
X264050Y92800D03*
X264050Y102800D03*
X264050Y87800D03*
X188550Y270300D03*
X188550Y260300D03*
X188550Y255300D03*
X188550Y265300D03*
X188550Y250300D03*
X188550Y240300D03*
X188550Y235300D03*
X188550Y245300D03*
X188550Y230300D03*
X188550Y220300D03*
X188550Y215300D03*
X188550Y225300D03*
X188550Y210300D03*
X188550Y200300D03*
X188550Y195300D03*
X188550Y205300D03*
X188550Y190300D03*
X188550Y180300D03*
X188550Y175300D03*
X188550Y185300D03*
X188550Y170300D03*
X188550Y165300D03*
X188550Y140300D03*
X188550Y135300D03*
X188550Y130300D03*
X188550Y120300D03*
X188550Y115300D03*
X188550Y125300D03*
X188550Y110300D03*
X188550Y100300D03*
X188550Y95300D03*
X188550Y105300D03*
X188550Y90300D03*
X188550Y85300D03*
D14*
X372880Y4530D02*
X383920Y4530D01*
X372880Y4530D02*
X372880Y23570D01*
X383920Y23570D01*
X383920Y4530D01*
X383920Y5442D02*
X372880Y5442D01*
X372880Y6354D02*
X383920Y6354D01*
X383920Y7266D02*
X372880Y7266D01*
X372880Y8178D02*
X383920Y8178D01*
X383920Y9090D02*
X372880Y9090D01*
X372880Y10002D02*
X383920Y10002D01*
X383920Y10914D02*
X372880Y10914D01*
X372880Y11826D02*
X383920Y11826D01*
X383920Y12738D02*
X372880Y12738D01*
X372880Y13650D02*
X383920Y13650D01*
X383920Y14562D02*
X372880Y14562D01*
X372880Y15474D02*
X383920Y15474D01*
X383920Y16386D02*
X372880Y16386D01*
X372880Y17298D02*
X383920Y17298D01*
X383920Y18210D02*
X372880Y18210D01*
X372880Y19122D02*
X383920Y19122D01*
X383920Y20034D02*
X372880Y20034D01*
X372880Y20946D02*
X383920Y20946D01*
X383920Y21858D02*
X372880Y21858D01*
X372880Y22770D02*
X383920Y22770D01*
X428880Y4530D02*
X439920Y4530D01*
X428880Y4530D02*
X428880Y23570D01*
X439920Y23570D01*
X439920Y4530D01*
X439920Y5442D02*
X428880Y5442D01*
X428880Y6354D02*
X439920Y6354D01*
X439920Y7266D02*
X428880Y7266D01*
X428880Y8178D02*
X439920Y8178D01*
X439920Y9090D02*
X428880Y9090D01*
X428880Y10002D02*
X439920Y10002D01*
X439920Y10914D02*
X428880Y10914D01*
X428880Y11826D02*
X439920Y11826D01*
X439920Y12738D02*
X428880Y12738D01*
X428880Y13650D02*
X439920Y13650D01*
X439920Y14562D02*
X428880Y14562D01*
X428880Y15474D02*
X439920Y15474D01*
X439920Y16386D02*
X428880Y16386D01*
X428880Y17298D02*
X439920Y17298D01*
X439920Y18210D02*
X428880Y18210D01*
X428880Y19122D02*
X439920Y19122D01*
X439920Y20034D02*
X428880Y20034D01*
X428880Y20946D02*
X439920Y20946D01*
X439920Y21858D02*
X428880Y21858D01*
X428880Y22770D02*
X439920Y22770D01*
D10*
X393890Y44560D02*
X388910Y44560D01*
X388910Y57040D01*
X393890Y57040D01*
X393890Y44560D01*
X393890Y45529D02*
X388910Y45529D01*
X388910Y46498D02*
X393890Y46498D01*
X393890Y47467D02*
X388910Y47467D01*
X388910Y48436D02*
X393890Y48436D01*
X393890Y49405D02*
X388910Y49405D01*
X388910Y50374D02*
X393890Y50374D01*
X393890Y51343D02*
X388910Y51343D01*
X388910Y52312D02*
X393890Y52312D01*
X393890Y53281D02*
X388910Y53281D01*
X388910Y54250D02*
X393890Y54250D01*
X393890Y55219D02*
X388910Y55219D01*
X388910Y56188D02*
X393890Y56188D01*
X398910Y44560D02*
X403890Y44560D01*
X398910Y44560D02*
X398910Y57040D01*
X403890Y57040D01*
X403890Y44560D01*
X403890Y45529D02*
X398910Y45529D01*
X398910Y46498D02*
X403890Y46498D01*
X403890Y47467D02*
X398910Y47467D01*
X398910Y48436D02*
X403890Y48436D01*
X403890Y49405D02*
X398910Y49405D01*
X398910Y50374D02*
X403890Y50374D01*
X403890Y51343D02*
X398910Y51343D01*
X398910Y52312D02*
X403890Y52312D01*
X403890Y53281D02*
X398910Y53281D01*
X398910Y54250D02*
X403890Y54250D01*
X403890Y55219D02*
X398910Y55219D01*
X398910Y56188D02*
X403890Y56188D01*
X408910Y44560D02*
X413890Y44560D01*
X408910Y44560D02*
X408910Y57040D01*
X413890Y57040D01*
X413890Y44560D01*
X413890Y45529D02*
X408910Y45529D01*
X408910Y46498D02*
X413890Y46498D01*
X413890Y47467D02*
X408910Y47467D01*
X408910Y48436D02*
X413890Y48436D01*
X413890Y49405D02*
X408910Y49405D01*
X408910Y50374D02*
X413890Y50374D01*
X413890Y51343D02*
X408910Y51343D01*
X408910Y52312D02*
X413890Y52312D01*
X413890Y53281D02*
X408910Y53281D01*
X408910Y54250D02*
X413890Y54250D01*
X413890Y55219D02*
X408910Y55219D01*
X408910Y56188D02*
X413890Y56188D01*
X418910Y44560D02*
X423890Y44560D01*
X418910Y44560D02*
X418910Y57040D01*
X423890Y57040D01*
X423890Y44560D01*
X423890Y45529D02*
X418910Y45529D01*
X418910Y46498D02*
X423890Y46498D01*
X423890Y47467D02*
X418910Y47467D01*
X418910Y48436D02*
X423890Y48436D01*
X423890Y49405D02*
X418910Y49405D01*
X418910Y50374D02*
X423890Y50374D01*
X423890Y51343D02*
X418910Y51343D01*
X418910Y52312D02*
X423890Y52312D01*
X423890Y53281D02*
X418910Y53281D01*
X418910Y54250D02*
X423890Y54250D01*
X423890Y55219D02*
X418910Y55219D01*
X418910Y56188D02*
X423890Y56188D01*
D11*
X97600Y239500D02*
X97600Y248500D01*
X97600Y239500D02*
X52600Y239500D01*
X52600Y248500D01*
X97600Y248500D01*
X97600Y240450D02*
X52600Y240450D01*
X52600Y241400D02*
X97600Y241400D01*
X97600Y242350D02*
X52600Y242350D01*
X52600Y243300D02*
X97600Y243300D01*
X97600Y244250D02*
X52600Y244250D01*
X52600Y245200D02*
X97600Y245200D01*
X97600Y246150D02*
X52600Y246150D01*
X52600Y247100D02*
X97600Y247100D01*
X97600Y248050D02*
X52600Y248050D01*
X97600Y259500D02*
X97600Y268500D01*
X97600Y259500D02*
X52600Y259500D01*
X52600Y268500D01*
X97600Y268500D01*
X97600Y260450D02*
X52600Y260450D01*
X52600Y261400D02*
X97600Y261400D01*
X97600Y262350D02*
X52600Y262350D01*
X52600Y263300D02*
X97600Y263300D01*
X97600Y264250D02*
X52600Y264250D01*
X52600Y265200D02*
X97600Y265200D01*
X97600Y266150D02*
X52600Y266150D01*
X52600Y267100D02*
X97600Y267100D01*
X97600Y268050D02*
X52600Y268050D01*
D14*
X39620Y227520D02*
X6580Y227520D01*
X39620Y227520D02*
X39620Y212480D01*
X6580Y212480D01*
X6580Y227520D01*
X6580Y213392D02*
X39620Y213392D01*
X39620Y214304D02*
X6580Y214304D01*
X6580Y215216D02*
X39620Y215216D01*
X39620Y216128D02*
X6580Y216128D01*
X6580Y217040D02*
X39620Y217040D01*
X39620Y217952D02*
X6580Y217952D01*
X6580Y218864D02*
X39620Y218864D01*
X39620Y219776D02*
X6580Y219776D01*
X6580Y220688D02*
X39620Y220688D01*
X39620Y221600D02*
X6580Y221600D01*
X6580Y222512D02*
X39620Y222512D01*
X39620Y223424D02*
X6580Y223424D01*
X6580Y224336D02*
X39620Y224336D01*
X39620Y225248D02*
X6580Y225248D01*
X6580Y226160D02*
X39620Y226160D01*
X39620Y227072D02*
X6580Y227072D01*
X6580Y295520D02*
X39620Y295520D01*
X39620Y280480D01*
X6580Y280480D01*
X6580Y295520D01*
X6580Y281392D02*
X39620Y281392D01*
X39620Y282304D02*
X6580Y282304D01*
X6580Y283216D02*
X39620Y283216D01*
X39620Y284128D02*
X6580Y284128D01*
X6580Y285040D02*
X39620Y285040D01*
X39620Y285952D02*
X6580Y285952D01*
X6580Y286864D02*
X39620Y286864D01*
X39620Y287776D02*
X6580Y287776D01*
X6580Y288688D02*
X39620Y288688D01*
X39620Y289600D02*
X6580Y289600D01*
X6580Y290512D02*
X39620Y290512D01*
X39620Y291424D02*
X6580Y291424D01*
X6580Y292336D02*
X39620Y292336D01*
X39620Y293248D02*
X6580Y293248D01*
X6580Y294160D02*
X39620Y294160D01*
X39620Y295072D02*
X6580Y295072D01*
D16*
X113030Y121920D03*
D10*
X104270Y105430D02*
X102290Y105430D01*
X102290Y110910D01*
X104270Y110910D01*
X104270Y105430D01*
X104270Y106399D02*
X102290Y106399D01*
X102290Y107368D02*
X104270Y107368D01*
X104270Y108337D02*
X102290Y108337D01*
X102290Y109306D02*
X104270Y109306D01*
X104270Y110275D02*
X102290Y110275D01*
X108790Y105430D02*
X110770Y105430D01*
X108790Y105430D02*
X108790Y110910D01*
X110770Y110910D01*
X110770Y105430D01*
X110770Y106399D02*
X108790Y106399D01*
X108790Y107368D02*
X110770Y107368D01*
X110770Y108337D02*
X108790Y108337D01*
X108790Y109306D02*
X110770Y109306D01*
X110770Y110275D02*
X108790Y110275D01*
X115290Y105430D02*
X117270Y105430D01*
X115290Y105430D02*
X115290Y110910D01*
X117270Y110910D01*
X117270Y105430D01*
X117270Y106399D02*
X115290Y106399D01*
X115290Y107368D02*
X117270Y107368D01*
X117270Y108337D02*
X115290Y108337D01*
X115290Y109306D02*
X117270Y109306D01*
X117270Y110275D02*
X115290Y110275D01*
X121790Y105430D02*
X123770Y105430D01*
X121790Y105430D02*
X121790Y110910D01*
X123770Y110910D01*
X123770Y105430D01*
X123770Y106399D02*
X121790Y106399D01*
X121790Y107368D02*
X123770Y107368D01*
X123770Y108337D02*
X121790Y108337D01*
X121790Y109306D02*
X123770Y109306D01*
X123770Y110275D02*
X121790Y110275D01*
X121790Y138410D02*
X123770Y138410D01*
X123770Y132930D01*
X121790Y132930D01*
X121790Y138410D01*
X121790Y133899D02*
X123770Y133899D01*
X123770Y134868D02*
X121790Y134868D01*
X121790Y135837D02*
X123770Y135837D01*
X123770Y136806D02*
X121790Y136806D01*
X121790Y137775D02*
X123770Y137775D01*
X117270Y138410D02*
X115290Y138410D01*
X117270Y138410D02*
X117270Y132930D01*
X115290Y132930D01*
X115290Y138410D01*
X115290Y133899D02*
X117270Y133899D01*
X117270Y134868D02*
X115290Y134868D01*
X115290Y135837D02*
X117270Y135837D01*
X117270Y136806D02*
X115290Y136806D01*
X115290Y137775D02*
X117270Y137775D01*
X110770Y138410D02*
X108790Y138410D01*
X110770Y138410D02*
X110770Y132930D01*
X108790Y132930D01*
X108790Y138410D01*
X108790Y133899D02*
X110770Y133899D01*
X110770Y134868D02*
X108790Y134868D01*
X108790Y135837D02*
X110770Y135837D01*
X110770Y136806D02*
X108790Y136806D01*
X108790Y137775D02*
X110770Y137775D01*
X104270Y138410D02*
X102290Y138410D01*
X104270Y138410D02*
X104270Y132930D01*
X102290Y132930D01*
X102290Y138410D01*
X102290Y133899D02*
X104270Y133899D01*
X104270Y134868D02*
X102290Y134868D01*
X102290Y135837D02*
X104270Y135837D01*
X104270Y136806D02*
X102290Y136806D01*
X102290Y137775D02*
X104270Y137775D01*
D11*
X107380Y151710D02*
X97380Y151710D01*
X97380Y160710D01*
X107380Y160710D01*
X107380Y151710D01*
X107380Y152660D02*
X97380Y152660D01*
X97380Y153610D02*
X107380Y153610D01*
X107380Y154560D02*
X97380Y154560D01*
X97380Y155510D02*
X107380Y155510D01*
X107380Y156460D02*
X97380Y156460D01*
X97380Y157410D02*
X107380Y157410D01*
X107380Y158360D02*
X97380Y158360D01*
X97380Y159310D02*
X107380Y159310D01*
X107380Y160260D02*
X97380Y160260D01*
X114380Y151710D02*
X124380Y151710D01*
X114380Y151710D02*
X114380Y160710D01*
X124380Y160710D01*
X124380Y151710D01*
X124380Y152660D02*
X114380Y152660D01*
X114380Y153610D02*
X124380Y153610D01*
X124380Y154560D02*
X114380Y154560D01*
X114380Y155510D02*
X124380Y155510D01*
X124380Y156460D02*
X114380Y156460D01*
X114380Y157410D02*
X124380Y157410D01*
X124380Y158360D02*
X114380Y158360D01*
X114380Y159310D02*
X124380Y159310D01*
X124380Y160260D02*
X114380Y160260D01*
X107380Y166950D02*
X97380Y166950D01*
X97380Y175950D01*
X107380Y175950D01*
X107380Y166950D01*
X107380Y167900D02*
X97380Y167900D01*
X97380Y168850D02*
X107380Y168850D01*
X107380Y169800D02*
X97380Y169800D01*
X97380Y170750D02*
X107380Y170750D01*
X107380Y171700D02*
X97380Y171700D01*
X97380Y172650D02*
X107380Y172650D01*
X107380Y173600D02*
X97380Y173600D01*
X97380Y174550D02*
X107380Y174550D01*
X107380Y175500D02*
X97380Y175500D01*
X114380Y166950D02*
X124380Y166950D01*
X114380Y166950D02*
X114380Y175950D01*
X124380Y175950D01*
X124380Y166950D01*
X124380Y167900D02*
X114380Y167900D01*
X114380Y168850D02*
X124380Y168850D01*
X124380Y169800D02*
X114380Y169800D01*
X114380Y170750D02*
X124380Y170750D01*
X124380Y171700D02*
X114380Y171700D01*
X114380Y172650D02*
X124380Y172650D01*
X124380Y173600D02*
X114380Y173600D01*
X114380Y174550D02*
X124380Y174550D01*
X124380Y175500D02*
X114380Y175500D01*
D17*
X121790Y182990D02*
X121790Y198010D01*
X134810Y198010D01*
X134810Y182990D01*
X121790Y182990D01*
X121790Y183921D02*
X134810Y183921D01*
X134810Y184852D02*
X121790Y184852D01*
X121790Y185783D02*
X134810Y185783D01*
X134810Y186714D02*
X121790Y186714D01*
X121790Y187645D02*
X134810Y187645D01*
X134810Y188576D02*
X121790Y188576D01*
X121790Y189507D02*
X134810Y189507D01*
X134810Y190438D02*
X121790Y190438D01*
X121790Y191369D02*
X134810Y191369D01*
X134810Y192300D02*
X121790Y192300D01*
X121790Y193231D02*
X134810Y193231D01*
X134810Y194162D02*
X121790Y194162D01*
X121790Y195093D02*
X134810Y195093D01*
X134810Y196024D02*
X121790Y196024D01*
X121790Y196955D02*
X134810Y196955D01*
X134810Y197886D02*
X121790Y197886D01*
X93790Y198010D02*
X93790Y182990D01*
X93790Y198010D02*
X106810Y198010D01*
X106810Y182990D01*
X93790Y182990D01*
X93790Y183921D02*
X106810Y183921D01*
X106810Y184852D02*
X93790Y184852D01*
X93790Y185783D02*
X106810Y185783D01*
X106810Y186714D02*
X93790Y186714D01*
X93790Y187645D02*
X106810Y187645D01*
X106810Y188576D02*
X93790Y188576D01*
X93790Y189507D02*
X106810Y189507D01*
X106810Y190438D02*
X93790Y190438D01*
X93790Y191369D02*
X106810Y191369D01*
X106810Y192300D02*
X93790Y192300D01*
X93790Y193231D02*
X106810Y193231D01*
X106810Y194162D02*
X93790Y194162D01*
X93790Y195093D02*
X106810Y195093D01*
X106810Y196024D02*
X93790Y196024D01*
X93790Y196955D02*
X106810Y196955D01*
X106810Y197886D02*
X93790Y197886D01*
D11*
X135200Y140500D02*
X135200Y130500D01*
X135200Y140500D02*
X144200Y140500D01*
X144200Y130500D01*
X135200Y130500D01*
X135200Y131450D02*
X144200Y131450D01*
X144200Y132400D02*
X135200Y132400D01*
X135200Y133350D02*
X144200Y133350D01*
X144200Y134300D02*
X135200Y134300D01*
X135200Y135250D02*
X144200Y135250D01*
X144200Y136200D02*
X135200Y136200D01*
X135200Y137150D02*
X144200Y137150D01*
X144200Y138100D02*
X135200Y138100D01*
X135200Y139050D02*
X144200Y139050D01*
X144200Y140000D02*
X135200Y140000D01*
X135200Y123500D02*
X135200Y113500D01*
X135200Y123500D02*
X144200Y123500D01*
X144200Y113500D01*
X135200Y113500D01*
X135200Y114450D02*
X144200Y114450D01*
X144200Y115400D02*
X135200Y115400D01*
X135200Y116350D02*
X144200Y116350D01*
X144200Y117300D02*
X135200Y117300D01*
X135200Y118250D02*
X144200Y118250D01*
X144200Y119200D02*
X135200Y119200D01*
X135200Y120150D02*
X144200Y120150D01*
X144200Y121100D02*
X135200Y121100D01*
X135200Y122050D02*
X144200Y122050D01*
X144200Y123000D02*
X135200Y123000D01*
D18*
X152564Y135854D02*
X152564Y141146D01*
X159856Y141146D01*
X159856Y135854D01*
X152564Y135854D01*
X152564Y136812D02*
X159856Y136812D01*
X159856Y137770D02*
X152564Y137770D01*
X152564Y138728D02*
X159856Y138728D01*
X159856Y139686D02*
X152564Y139686D01*
X152564Y140644D02*
X159856Y140644D01*
X152564Y118146D02*
X152564Y112854D01*
X152564Y118146D02*
X159856Y118146D01*
X159856Y112854D01*
X152564Y112854D01*
X152564Y113812D02*
X159856Y113812D01*
X159856Y114770D02*
X152564Y114770D01*
X152564Y115728D02*
X159856Y115728D01*
X159856Y116686D02*
X152564Y116686D01*
X152564Y117644D02*
X159856Y117644D01*
D11*
X118690Y98200D02*
X118690Y88200D01*
X118690Y98200D02*
X127690Y98200D01*
X127690Y88200D01*
X118690Y88200D01*
X118690Y89150D02*
X127690Y89150D01*
X127690Y90100D02*
X118690Y90100D01*
X118690Y91050D02*
X127690Y91050D01*
X127690Y92000D02*
X118690Y92000D01*
X118690Y92950D02*
X127690Y92950D01*
X127690Y93900D02*
X118690Y93900D01*
X118690Y94850D02*
X127690Y94850D01*
X127690Y95800D02*
X118690Y95800D01*
X118690Y96750D02*
X127690Y96750D01*
X127690Y97700D02*
X118690Y97700D01*
X118690Y81200D02*
X118690Y71200D01*
X118690Y81200D02*
X127690Y81200D01*
X127690Y71200D01*
X118690Y71200D01*
X118690Y72150D02*
X127690Y72150D01*
X127690Y73100D02*
X118690Y73100D01*
X118690Y74050D02*
X127690Y74050D01*
X127690Y75000D02*
X118690Y75000D01*
X118690Y75950D02*
X127690Y75950D01*
X127690Y76900D02*
X118690Y76900D01*
X118690Y77850D02*
X127690Y77850D01*
X127690Y78800D02*
X118690Y78800D01*
X118690Y79750D02*
X127690Y79750D01*
X127690Y80700D02*
X118690Y80700D01*
X133930Y88200D02*
X133930Y98200D01*
X142930Y98200D01*
X142930Y88200D01*
X133930Y88200D01*
X133930Y89150D02*
X142930Y89150D01*
X142930Y90100D02*
X133930Y90100D01*
X133930Y91050D02*
X142930Y91050D01*
X142930Y92000D02*
X133930Y92000D01*
X133930Y92950D02*
X142930Y92950D01*
X142930Y93900D02*
X133930Y93900D01*
X133930Y94850D02*
X142930Y94850D01*
X142930Y95800D02*
X133930Y95800D01*
X133930Y96750D02*
X142930Y96750D01*
X142930Y97700D02*
X133930Y97700D01*
X133930Y81200D02*
X133930Y71200D01*
X133930Y81200D02*
X142930Y81200D01*
X142930Y71200D01*
X133930Y71200D01*
X133930Y72150D02*
X142930Y72150D01*
X142930Y73100D02*
X133930Y73100D01*
X133930Y74050D02*
X142930Y74050D01*
X142930Y75000D02*
X133930Y75000D01*
X133930Y75950D02*
X142930Y75950D01*
X142930Y76900D02*
X133930Y76900D01*
X133930Y77850D02*
X142930Y77850D01*
X142930Y78800D02*
X133930Y78800D01*
X133930Y79750D02*
X142930Y79750D01*
X142930Y80700D02*
X133930Y80700D01*
X149170Y88200D02*
X149170Y98200D01*
X158170Y98200D01*
X158170Y88200D01*
X149170Y88200D01*
X149170Y89150D02*
X158170Y89150D01*
X158170Y90100D02*
X149170Y90100D01*
X149170Y91050D02*
X158170Y91050D01*
X158170Y92000D02*
X149170Y92000D01*
X149170Y92950D02*
X158170Y92950D01*
X158170Y93900D02*
X149170Y93900D01*
X149170Y94850D02*
X158170Y94850D01*
X158170Y95800D02*
X149170Y95800D01*
X149170Y96750D02*
X158170Y96750D01*
X158170Y97700D02*
X149170Y97700D01*
X149170Y81200D02*
X149170Y71200D01*
X149170Y81200D02*
X158170Y81200D01*
X158170Y71200D01*
X149170Y71200D01*
X149170Y72150D02*
X158170Y72150D01*
X158170Y73100D02*
X149170Y73100D01*
X149170Y74050D02*
X158170Y74050D01*
X158170Y75000D02*
X149170Y75000D01*
X149170Y75950D02*
X158170Y75950D01*
X158170Y76900D02*
X149170Y76900D01*
X149170Y77850D02*
X158170Y77850D01*
X158170Y78800D02*
X149170Y78800D01*
X149170Y79750D02*
X158170Y79750D01*
X158170Y80700D02*
X149170Y80700D01*
X53000Y177000D02*
X44000Y177000D01*
X44000Y204000D01*
X53000Y204000D01*
X53000Y177000D01*
X53000Y177950D02*
X44000Y177950D01*
X44000Y178900D02*
X53000Y178900D01*
X53000Y179850D02*
X44000Y179850D01*
X44000Y180800D02*
X53000Y180800D01*
X53000Y181750D02*
X44000Y181750D01*
X44000Y182700D02*
X53000Y182700D01*
X53000Y183650D02*
X44000Y183650D01*
X44000Y184600D02*
X53000Y184600D01*
X53000Y185550D02*
X44000Y185550D01*
X44000Y186500D02*
X53000Y186500D01*
X53000Y187450D02*
X44000Y187450D01*
X44000Y188400D02*
X53000Y188400D01*
X53000Y189350D02*
X44000Y189350D01*
X44000Y190300D02*
X53000Y190300D01*
X53000Y191250D02*
X44000Y191250D01*
X44000Y192200D02*
X53000Y192200D01*
X53000Y193150D02*
X44000Y193150D01*
X44000Y194100D02*
X53000Y194100D01*
X53000Y195050D02*
X44000Y195050D01*
X44000Y196000D02*
X53000Y196000D01*
X53000Y196950D02*
X44000Y196950D01*
X44000Y197900D02*
X53000Y197900D01*
X53000Y198850D02*
X44000Y198850D01*
X44000Y199800D02*
X53000Y199800D01*
X53000Y200750D02*
X44000Y200750D01*
X44000Y201700D02*
X53000Y201700D01*
X53000Y202650D02*
X44000Y202650D01*
X44000Y203600D02*
X53000Y203600D01*
X74000Y177000D02*
X83000Y177000D01*
X74000Y177000D02*
X74000Y204000D01*
X83000Y204000D01*
X83000Y177000D01*
X83000Y177950D02*
X74000Y177950D01*
X74000Y178900D02*
X83000Y178900D01*
X83000Y179850D02*
X74000Y179850D01*
X74000Y180800D02*
X83000Y180800D01*
X83000Y181750D02*
X74000Y181750D01*
X74000Y182700D02*
X83000Y182700D01*
X83000Y183650D02*
X74000Y183650D01*
X74000Y184600D02*
X83000Y184600D01*
X83000Y185550D02*
X74000Y185550D01*
X74000Y186500D02*
X83000Y186500D01*
X83000Y187450D02*
X74000Y187450D01*
X74000Y188400D02*
X83000Y188400D01*
X83000Y189350D02*
X74000Y189350D01*
X74000Y190300D02*
X83000Y190300D01*
X83000Y191250D02*
X74000Y191250D01*
X74000Y192200D02*
X83000Y192200D01*
X83000Y193150D02*
X74000Y193150D01*
X74000Y194100D02*
X83000Y194100D01*
X83000Y195050D02*
X74000Y195050D01*
X74000Y196000D02*
X83000Y196000D01*
X83000Y196950D02*
X74000Y196950D01*
X74000Y197900D02*
X83000Y197900D01*
X83000Y198850D02*
X74000Y198850D01*
X74000Y199800D02*
X83000Y199800D01*
X83000Y200750D02*
X74000Y200750D01*
X74000Y201700D02*
X83000Y201700D01*
X83000Y202650D02*
X74000Y202650D01*
X74000Y203600D02*
X83000Y203600D01*
D19*
X146945Y272506D02*
X151455Y272506D01*
X151455Y261496D01*
X146945Y261496D01*
X146945Y272506D01*
X146945Y262436D02*
X151455Y262436D01*
X151455Y263376D02*
X146945Y263376D01*
X146945Y264316D02*
X151455Y264316D01*
X151455Y265256D02*
X146945Y265256D01*
X146945Y266196D02*
X151455Y266196D01*
X151455Y267136D02*
X146945Y267136D01*
X146945Y268076D02*
X151455Y268076D01*
X151455Y269016D02*
X146945Y269016D01*
X146945Y269956D02*
X151455Y269956D01*
X151455Y270896D02*
X146945Y270896D01*
X146945Y271836D02*
X151455Y271836D01*
X141955Y272506D02*
X137445Y272506D01*
X141955Y272506D02*
X141955Y261496D01*
X137445Y261496D01*
X137445Y272506D01*
X137445Y262436D02*
X141955Y262436D01*
X141955Y263376D02*
X137445Y263376D01*
X137445Y264316D02*
X141955Y264316D01*
X141955Y265256D02*
X137445Y265256D01*
X137445Y266196D02*
X141955Y266196D01*
X141955Y267136D02*
X137445Y267136D01*
X137445Y268076D02*
X141955Y268076D01*
X141955Y269016D02*
X137445Y269016D01*
X137445Y269956D02*
X141955Y269956D01*
X141955Y270896D02*
X137445Y270896D01*
X137445Y271836D02*
X141955Y271836D01*
X132455Y272506D02*
X127945Y272506D01*
X132455Y272506D02*
X132455Y261496D01*
X127945Y261496D01*
X127945Y272506D01*
X127945Y262436D02*
X132455Y262436D01*
X132455Y263376D02*
X127945Y263376D01*
X127945Y264316D02*
X132455Y264316D01*
X132455Y265256D02*
X127945Y265256D01*
X127945Y266196D02*
X132455Y266196D01*
X132455Y267136D02*
X127945Y267136D01*
X127945Y268076D02*
X132455Y268076D01*
X132455Y269016D02*
X127945Y269016D01*
X127945Y269956D02*
X132455Y269956D01*
X132455Y270896D02*
X127945Y270896D01*
X127945Y271836D02*
X132455Y271836D01*
X132455Y246504D02*
X127945Y246504D01*
X132455Y246504D02*
X132455Y235494D01*
X127945Y235494D01*
X127945Y246504D01*
X127945Y236434D02*
X132455Y236434D01*
X132455Y237374D02*
X127945Y237374D01*
X127945Y238314D02*
X132455Y238314D01*
X132455Y239254D02*
X127945Y239254D01*
X127945Y240194D02*
X132455Y240194D01*
X132455Y241134D02*
X127945Y241134D01*
X127945Y242074D02*
X132455Y242074D01*
X132455Y243014D02*
X127945Y243014D01*
X127945Y243954D02*
X132455Y243954D01*
X132455Y244894D02*
X127945Y244894D01*
X127945Y245834D02*
X132455Y245834D01*
X146945Y246504D02*
X151455Y246504D01*
X151455Y235494D01*
X146945Y235494D01*
X146945Y246504D01*
X146945Y236434D02*
X151455Y236434D01*
X151455Y237374D02*
X146945Y237374D01*
X146945Y238314D02*
X151455Y238314D01*
X151455Y239254D02*
X146945Y239254D01*
X146945Y240194D02*
X151455Y240194D01*
X151455Y241134D02*
X146945Y241134D01*
X146945Y242074D02*
X151455Y242074D01*
X151455Y243014D02*
X146945Y243014D01*
X146945Y243954D02*
X151455Y243954D01*
X151455Y244894D02*
X146945Y244894D01*
X146945Y245834D02*
X151455Y245834D01*
D11*
X166950Y257500D02*
X166950Y267500D01*
X175950Y267500D01*
X175950Y257500D01*
X166950Y257500D01*
X166950Y258450D02*
X175950Y258450D01*
X175950Y259400D02*
X166950Y259400D01*
X166950Y260350D02*
X175950Y260350D01*
X175950Y261300D02*
X166950Y261300D01*
X166950Y262250D02*
X175950Y262250D01*
X175950Y263200D02*
X166950Y263200D01*
X166950Y264150D02*
X175950Y264150D01*
X175950Y265100D02*
X166950Y265100D01*
X166950Y266050D02*
X175950Y266050D01*
X175950Y267000D02*
X166950Y267000D01*
X166950Y250500D02*
X166950Y240500D01*
X166950Y250500D02*
X175950Y250500D01*
X175950Y240500D01*
X166950Y240500D01*
X166950Y241450D02*
X175950Y241450D01*
X175950Y242400D02*
X166950Y242400D01*
X166950Y243350D02*
X175950Y243350D01*
X175950Y244300D02*
X166950Y244300D01*
X166950Y245250D02*
X175950Y245250D01*
X175950Y246200D02*
X166950Y246200D01*
X166950Y247150D02*
X175950Y247150D01*
X175950Y248100D02*
X166950Y248100D01*
X166950Y249050D02*
X175950Y249050D01*
X175950Y250000D02*
X166950Y250000D01*
X134040Y278600D02*
X134040Y288600D01*
X134040Y278600D02*
X125040Y278600D01*
X125040Y288600D01*
X134040Y288600D01*
X134040Y279550D02*
X125040Y279550D01*
X125040Y280500D02*
X134040Y280500D01*
X134040Y281450D02*
X125040Y281450D01*
X125040Y282400D02*
X134040Y282400D01*
X134040Y283350D02*
X125040Y283350D01*
X125040Y284300D02*
X134040Y284300D01*
X134040Y285250D02*
X125040Y285250D01*
X125040Y286200D02*
X134040Y286200D01*
X134040Y287150D02*
X125040Y287150D01*
X125040Y288100D02*
X134040Y288100D01*
X134040Y295600D02*
X134040Y305600D01*
X134040Y295600D02*
X125040Y295600D01*
X125040Y305600D01*
X134040Y305600D01*
X134040Y296550D02*
X125040Y296550D01*
X125040Y297500D02*
X134040Y297500D01*
X134040Y298450D02*
X125040Y298450D01*
X125040Y299400D02*
X134040Y299400D01*
X134040Y300350D02*
X125040Y300350D01*
X125040Y301300D02*
X134040Y301300D01*
X134040Y302250D02*
X125040Y302250D01*
X125040Y303200D02*
X134040Y303200D01*
X134040Y304150D02*
X125040Y304150D01*
X125040Y305100D02*
X134040Y305100D01*
X136200Y219020D02*
X126200Y219020D01*
X126200Y228020D01*
X136200Y228020D01*
X136200Y219020D01*
X136200Y219970D02*
X126200Y219970D01*
X126200Y220920D02*
X136200Y220920D01*
X136200Y221870D02*
X126200Y221870D01*
X126200Y222820D02*
X136200Y222820D01*
X136200Y223770D02*
X126200Y223770D01*
X126200Y224720D02*
X136200Y224720D01*
X136200Y225670D02*
X126200Y225670D01*
X126200Y226620D02*
X136200Y226620D01*
X136200Y227570D02*
X126200Y227570D01*
X143200Y219020D02*
X153200Y219020D01*
X143200Y219020D02*
X143200Y228020D01*
X153200Y228020D01*
X153200Y219020D01*
X153200Y219970D02*
X143200Y219970D01*
X143200Y220920D02*
X153200Y220920D01*
X153200Y221870D02*
X143200Y221870D01*
X143200Y222820D02*
X153200Y222820D01*
X153200Y223770D02*
X143200Y223770D01*
X143200Y224720D02*
X153200Y224720D01*
X153200Y225670D02*
X143200Y225670D01*
X143200Y226620D02*
X153200Y226620D01*
X153200Y227570D02*
X143200Y227570D01*
D18*
X117946Y239854D02*
X117946Y245146D01*
X117946Y239854D02*
X110654Y239854D01*
X110654Y245146D01*
X117946Y245146D01*
X117946Y240812D02*
X110654Y240812D01*
X110654Y241770D02*
X117946Y241770D01*
X117946Y242728D02*
X110654Y242728D01*
X110654Y243686D02*
X117946Y243686D01*
X117946Y244644D02*
X110654Y244644D01*
X117946Y262854D02*
X117946Y268146D01*
X117946Y262854D02*
X110654Y262854D01*
X110654Y268146D01*
X117946Y268146D01*
X117946Y263812D02*
X110654Y263812D01*
X110654Y264770D02*
X117946Y264770D01*
X117946Y265728D02*
X110654Y265728D01*
X110654Y266686D02*
X117946Y266686D01*
X117946Y267644D02*
X110654Y267644D01*
D13*
X119570Y314000D02*
X119570Y321000D01*
X126570Y321000D01*
X126570Y314000D01*
X119570Y314000D01*
X119570Y316850D02*
X126570Y316850D01*
X126570Y319700D02*
X119570Y319700D01*
X102030Y321000D02*
X102030Y314000D01*
X102030Y321000D02*
X109030Y321000D01*
X109030Y314000D01*
X102030Y314000D01*
X102030Y316850D02*
X109030Y316850D01*
X109030Y319700D02*
X102030Y319700D01*
D11*
X145360Y305600D02*
X145360Y295600D01*
X145360Y305600D02*
X154360Y305600D01*
X154360Y295600D01*
X145360Y295600D01*
X145360Y296550D02*
X154360Y296550D01*
X154360Y297500D02*
X145360Y297500D01*
X145360Y298450D02*
X154360Y298450D01*
X154360Y299400D02*
X145360Y299400D01*
X145360Y300350D02*
X154360Y300350D01*
X154360Y301300D02*
X145360Y301300D01*
X145360Y302250D02*
X154360Y302250D01*
X154360Y303200D02*
X145360Y303200D01*
X145360Y304150D02*
X154360Y304150D01*
X154360Y305100D02*
X145360Y305100D01*
X145360Y288600D02*
X145360Y278600D01*
X145360Y288600D02*
X154360Y288600D01*
X154360Y278600D01*
X145360Y278600D01*
X145360Y279550D02*
X154360Y279550D01*
X154360Y280500D02*
X145360Y280500D01*
X145360Y281450D02*
X154360Y281450D01*
X154360Y282400D02*
X145360Y282400D01*
X145360Y283350D02*
X154360Y283350D01*
X154360Y284300D02*
X145360Y284300D01*
X145360Y285250D02*
X154360Y285250D01*
X154360Y286200D02*
X145360Y286200D01*
X145360Y287150D02*
X154360Y287150D01*
X154360Y288100D02*
X145360Y288100D01*
D18*
X77646Y168746D02*
X72354Y168746D01*
X77646Y168746D02*
X77646Y161454D01*
X72354Y161454D01*
X72354Y168746D01*
X72354Y162412D02*
X77646Y162412D01*
X77646Y163370D02*
X72354Y163370D01*
X72354Y164328D02*
X77646Y164328D01*
X77646Y165286D02*
X72354Y165286D01*
X72354Y166244D02*
X77646Y166244D01*
X77646Y167202D02*
X72354Y167202D01*
X72354Y168160D02*
X77646Y168160D01*
X54646Y168746D02*
X49354Y168746D01*
X54646Y168746D02*
X54646Y161454D01*
X49354Y161454D01*
X49354Y168746D01*
X49354Y162412D02*
X54646Y162412D01*
X54646Y163370D02*
X49354Y163370D01*
X49354Y164328D02*
X54646Y164328D01*
X54646Y165286D02*
X49354Y165286D01*
X49354Y166244D02*
X54646Y166244D01*
X54646Y167202D02*
X49354Y167202D01*
X49354Y168160D02*
X54646Y168160D01*
D10*
X499970Y45210D02*
X504950Y45210D01*
X504950Y30730D01*
X499970Y30730D01*
X499970Y45210D01*
X499970Y31699D02*
X504950Y31699D01*
X504950Y32668D02*
X499970Y32668D01*
X499970Y33637D02*
X504950Y33637D01*
X504950Y34606D02*
X499970Y34606D01*
X499970Y35575D02*
X504950Y35575D01*
X504950Y36544D02*
X499970Y36544D01*
X499970Y37513D02*
X504950Y37513D01*
X504950Y38482D02*
X499970Y38482D01*
X499970Y39451D02*
X504950Y39451D01*
X504950Y40420D02*
X499970Y40420D01*
X499970Y41389D02*
X504950Y41389D01*
X504950Y42358D02*
X499970Y42358D01*
X499970Y43327D02*
X504950Y43327D01*
X504950Y44296D02*
X499970Y44296D01*
X494950Y45210D02*
X489970Y45210D01*
X494950Y45210D02*
X494950Y30730D01*
X489970Y30730D01*
X489970Y45210D01*
X489970Y31699D02*
X494950Y31699D01*
X494950Y32668D02*
X489970Y32668D01*
X489970Y33637D02*
X494950Y33637D01*
X494950Y34606D02*
X489970Y34606D01*
X489970Y35575D02*
X494950Y35575D01*
X494950Y36544D02*
X489970Y36544D01*
X489970Y37513D02*
X494950Y37513D01*
X494950Y38482D02*
X489970Y38482D01*
X489970Y39451D02*
X494950Y39451D01*
X494950Y40420D02*
X489970Y40420D01*
X489970Y41389D02*
X494950Y41389D01*
X494950Y42358D02*
X489970Y42358D01*
X489970Y43327D02*
X494950Y43327D01*
X494950Y44296D02*
X489970Y44296D01*
X484950Y45210D02*
X479970Y45210D01*
X484950Y45210D02*
X484950Y30730D01*
X479970Y30730D01*
X479970Y45210D01*
X479970Y31699D02*
X484950Y31699D01*
X484950Y32668D02*
X479970Y32668D01*
X479970Y33637D02*
X484950Y33637D01*
X484950Y34606D02*
X479970Y34606D01*
X479970Y35575D02*
X484950Y35575D01*
X484950Y36544D02*
X479970Y36544D01*
X479970Y37513D02*
X484950Y37513D01*
X484950Y38482D02*
X479970Y38482D01*
X479970Y39451D02*
X484950Y39451D01*
X484950Y40420D02*
X479970Y40420D01*
X479970Y41389D02*
X484950Y41389D01*
X484950Y42358D02*
X479970Y42358D01*
X479970Y43327D02*
X484950Y43327D01*
X484950Y44296D02*
X479970Y44296D01*
X474950Y45210D02*
X469970Y45210D01*
X474950Y45210D02*
X474950Y30730D01*
X469970Y30730D01*
X469970Y45210D01*
X469970Y31699D02*
X474950Y31699D01*
X474950Y32668D02*
X469970Y32668D01*
X469970Y33637D02*
X474950Y33637D01*
X474950Y34606D02*
X469970Y34606D01*
X469970Y35575D02*
X474950Y35575D01*
X474950Y36544D02*
X469970Y36544D01*
X469970Y37513D02*
X474950Y37513D01*
X474950Y38482D02*
X469970Y38482D01*
X469970Y39451D02*
X474950Y39451D01*
X474950Y40420D02*
X469970Y40420D01*
X469970Y41389D02*
X474950Y41389D01*
X474950Y42358D02*
X469970Y42358D01*
X469970Y43327D02*
X474950Y43327D01*
X474950Y44296D02*
X469970Y44296D01*
D14*
X509940Y23240D02*
X520980Y23240D01*
X520980Y4200D01*
X509940Y4200D01*
X509940Y23240D01*
X509940Y5112D02*
X520980Y5112D01*
X520980Y6024D02*
X509940Y6024D01*
X509940Y6936D02*
X520980Y6936D01*
X520980Y7848D02*
X509940Y7848D01*
X509940Y8760D02*
X520980Y8760D01*
X520980Y9672D02*
X509940Y9672D01*
X509940Y10584D02*
X520980Y10584D01*
X520980Y11496D02*
X509940Y11496D01*
X509940Y12408D02*
X520980Y12408D01*
X520980Y13320D02*
X509940Y13320D01*
X509940Y14232D02*
X520980Y14232D01*
X520980Y15144D02*
X509940Y15144D01*
X509940Y16056D02*
X520980Y16056D01*
X520980Y16968D02*
X509940Y16968D01*
X509940Y17880D02*
X520980Y17880D01*
X520980Y18792D02*
X509940Y18792D01*
X509940Y19704D02*
X520980Y19704D01*
X520980Y20616D02*
X509940Y20616D01*
X509940Y21528D02*
X520980Y21528D01*
X520980Y22440D02*
X509940Y22440D01*
X464980Y23240D02*
X453940Y23240D01*
X464980Y23240D02*
X464980Y4200D01*
X453940Y4200D01*
X453940Y23240D01*
X453940Y5112D02*
X464980Y5112D01*
X464980Y6024D02*
X453940Y6024D01*
X453940Y6936D02*
X464980Y6936D01*
X464980Y7848D02*
X453940Y7848D01*
X453940Y8760D02*
X464980Y8760D01*
X464980Y9672D02*
X453940Y9672D01*
X453940Y10584D02*
X464980Y10584D01*
X464980Y11496D02*
X453940Y11496D01*
X453940Y12408D02*
X464980Y12408D01*
X464980Y13320D02*
X453940Y13320D01*
X453940Y14232D02*
X464980Y14232D01*
X464980Y15144D02*
X453940Y15144D01*
X453940Y16056D02*
X464980Y16056D01*
X464980Y16968D02*
X453940Y16968D01*
X453940Y17880D02*
X464980Y17880D01*
X464980Y18792D02*
X453940Y18792D01*
X453940Y19704D02*
X464980Y19704D01*
X464980Y20616D02*
X453940Y20616D01*
X453940Y21528D02*
X464980Y21528D01*
X464980Y22440D02*
X453940Y22440D01*
D20*
X755280Y291820D02*
X755280Y317780D01*
X755280Y291820D02*
X743320Y291820D01*
X743320Y317780D01*
X755280Y317780D01*
X755280Y292808D02*
X743320Y292808D01*
X743320Y293796D02*
X755280Y293796D01*
X755280Y294784D02*
X743320Y294784D01*
X743320Y295772D02*
X755280Y295772D01*
X755280Y296760D02*
X743320Y296760D01*
X743320Y297748D02*
X755280Y297748D01*
X755280Y298736D02*
X743320Y298736D01*
X743320Y299724D02*
X755280Y299724D01*
X755280Y300712D02*
X743320Y300712D01*
X743320Y301700D02*
X755280Y301700D01*
X755280Y302688D02*
X743320Y302688D01*
X743320Y303676D02*
X755280Y303676D01*
X755280Y304664D02*
X743320Y304664D01*
X743320Y305652D02*
X755280Y305652D01*
X755280Y306640D02*
X743320Y306640D01*
X743320Y307628D02*
X755280Y307628D01*
X755280Y308616D02*
X743320Y308616D01*
X743320Y309604D02*
X755280Y309604D01*
X755280Y310592D02*
X743320Y310592D01*
X743320Y311580D02*
X755280Y311580D01*
X755280Y312568D02*
X743320Y312568D01*
X743320Y313556D02*
X755280Y313556D01*
X755280Y314544D02*
X743320Y314544D01*
X743320Y315532D02*
X755280Y315532D01*
X755280Y316520D02*
X743320Y316520D01*
X743320Y317508D02*
X755280Y317508D01*
X729880Y317780D02*
X729880Y291820D01*
X717920Y291820D01*
X717920Y317780D01*
X729880Y317780D01*
X729880Y292808D02*
X717920Y292808D01*
X717920Y293796D02*
X729880Y293796D01*
X729880Y294784D02*
X717920Y294784D01*
X717920Y295772D02*
X729880Y295772D01*
X729880Y296760D02*
X717920Y296760D01*
X717920Y297748D02*
X729880Y297748D01*
X729880Y298736D02*
X717920Y298736D01*
X717920Y299724D02*
X729880Y299724D01*
X729880Y300712D02*
X717920Y300712D01*
X717920Y301700D02*
X729880Y301700D01*
X729880Y302688D02*
X717920Y302688D01*
X717920Y303676D02*
X729880Y303676D01*
X729880Y304664D02*
X717920Y304664D01*
X717920Y305652D02*
X729880Y305652D01*
X729880Y306640D02*
X717920Y306640D01*
X717920Y307628D02*
X729880Y307628D01*
X729880Y308616D02*
X717920Y308616D01*
X717920Y309604D02*
X729880Y309604D01*
X729880Y310592D02*
X717920Y310592D01*
X717920Y311580D02*
X729880Y311580D01*
X729880Y312568D02*
X717920Y312568D01*
X717920Y313556D02*
X729880Y313556D01*
X729880Y314544D02*
X717920Y314544D01*
X717920Y315532D02*
X729880Y315532D01*
X729880Y316520D02*
X717920Y316520D01*
X717920Y317508D02*
X729880Y317508D01*
X704480Y317780D02*
X704480Y291820D01*
X692520Y291820D01*
X692520Y317780D01*
X704480Y317780D01*
X704480Y292808D02*
X692520Y292808D01*
X692520Y293796D02*
X704480Y293796D01*
X704480Y294784D02*
X692520Y294784D01*
X692520Y295772D02*
X704480Y295772D01*
X704480Y296760D02*
X692520Y296760D01*
X692520Y297748D02*
X704480Y297748D01*
X704480Y298736D02*
X692520Y298736D01*
X692520Y299724D02*
X704480Y299724D01*
X704480Y300712D02*
X692520Y300712D01*
X692520Y301700D02*
X704480Y301700D01*
X704480Y302688D02*
X692520Y302688D01*
X692520Y303676D02*
X704480Y303676D01*
X704480Y304664D02*
X692520Y304664D01*
X692520Y305652D02*
X704480Y305652D01*
X704480Y306640D02*
X692520Y306640D01*
X692520Y307628D02*
X704480Y307628D01*
X704480Y308616D02*
X692520Y308616D01*
X692520Y309604D02*
X704480Y309604D01*
X704480Y310592D02*
X692520Y310592D01*
X692520Y311580D02*
X704480Y311580D01*
X704480Y312568D02*
X692520Y312568D01*
X692520Y313556D02*
X704480Y313556D01*
X704480Y314544D02*
X692520Y314544D01*
X692520Y315532D02*
X704480Y315532D01*
X704480Y316520D02*
X692520Y316520D01*
X692520Y317508D02*
X704480Y317508D01*
X679080Y317780D02*
X679080Y291820D01*
X667120Y291820D01*
X667120Y317780D01*
X679080Y317780D01*
X679080Y292808D02*
X667120Y292808D01*
X667120Y293796D02*
X679080Y293796D01*
X679080Y294784D02*
X667120Y294784D01*
X667120Y295772D02*
X679080Y295772D01*
X679080Y296760D02*
X667120Y296760D01*
X667120Y297748D02*
X679080Y297748D01*
X679080Y298736D02*
X667120Y298736D01*
X667120Y299724D02*
X679080Y299724D01*
X679080Y300712D02*
X667120Y300712D01*
X667120Y301700D02*
X679080Y301700D01*
X679080Y302688D02*
X667120Y302688D01*
X667120Y303676D02*
X679080Y303676D01*
X679080Y304664D02*
X667120Y304664D01*
X667120Y305652D02*
X679080Y305652D01*
X679080Y306640D02*
X667120Y306640D01*
X667120Y307628D02*
X679080Y307628D01*
X679080Y308616D02*
X667120Y308616D01*
X667120Y309604D02*
X679080Y309604D01*
X679080Y310592D02*
X667120Y310592D01*
X667120Y311580D02*
X679080Y311580D01*
X679080Y312568D02*
X667120Y312568D01*
X667120Y313556D02*
X679080Y313556D01*
X679080Y314544D02*
X667120Y314544D01*
X667120Y315532D02*
X679080Y315532D01*
X679080Y316520D02*
X667120Y316520D01*
X667120Y317508D02*
X679080Y317508D01*
X653680Y317780D02*
X653680Y291820D01*
X641720Y291820D01*
X641720Y317780D01*
X653680Y317780D01*
X653680Y292808D02*
X641720Y292808D01*
X641720Y293796D02*
X653680Y293796D01*
X653680Y294784D02*
X641720Y294784D01*
X641720Y295772D02*
X653680Y295772D01*
X653680Y296760D02*
X641720Y296760D01*
X641720Y297748D02*
X653680Y297748D01*
X653680Y298736D02*
X641720Y298736D01*
X641720Y299724D02*
X653680Y299724D01*
X653680Y300712D02*
X641720Y300712D01*
X641720Y301700D02*
X653680Y301700D01*
X653680Y302688D02*
X641720Y302688D01*
X641720Y303676D02*
X653680Y303676D01*
X653680Y304664D02*
X641720Y304664D01*
X641720Y305652D02*
X653680Y305652D01*
X653680Y306640D02*
X641720Y306640D01*
X641720Y307628D02*
X653680Y307628D01*
X653680Y308616D02*
X641720Y308616D01*
X641720Y309604D02*
X653680Y309604D01*
X653680Y310592D02*
X641720Y310592D01*
X641720Y311580D02*
X653680Y311580D01*
X653680Y312568D02*
X641720Y312568D01*
X641720Y313556D02*
X653680Y313556D01*
X653680Y314544D02*
X641720Y314544D01*
X641720Y315532D02*
X653680Y315532D01*
X653680Y316520D02*
X641720Y316520D01*
X641720Y317508D02*
X653680Y317508D01*
X628280Y317780D02*
X628280Y291820D01*
X616320Y291820D01*
X616320Y317780D01*
X628280Y317780D01*
X628280Y292808D02*
X616320Y292808D01*
X616320Y293796D02*
X628280Y293796D01*
X628280Y294784D02*
X616320Y294784D01*
X616320Y295772D02*
X628280Y295772D01*
X628280Y296760D02*
X616320Y296760D01*
X616320Y297748D02*
X628280Y297748D01*
X628280Y298736D02*
X616320Y298736D01*
X616320Y299724D02*
X628280Y299724D01*
X628280Y300712D02*
X616320Y300712D01*
X616320Y301700D02*
X628280Y301700D01*
X628280Y302688D02*
X616320Y302688D01*
X616320Y303676D02*
X628280Y303676D01*
X628280Y304664D02*
X616320Y304664D01*
X616320Y305652D02*
X628280Y305652D01*
X628280Y306640D02*
X616320Y306640D01*
X616320Y307628D02*
X628280Y307628D01*
X628280Y308616D02*
X616320Y308616D01*
X616320Y309604D02*
X628280Y309604D01*
X628280Y310592D02*
X616320Y310592D01*
X616320Y311580D02*
X628280Y311580D01*
X628280Y312568D02*
X616320Y312568D01*
X616320Y313556D02*
X628280Y313556D01*
X628280Y314544D02*
X616320Y314544D01*
X616320Y315532D02*
X628280Y315532D01*
X628280Y316520D02*
X616320Y316520D01*
X616320Y317508D02*
X628280Y317508D01*
X602880Y317780D02*
X602880Y291820D01*
X590920Y291820D01*
X590920Y317780D01*
X602880Y317780D01*
X602880Y292808D02*
X590920Y292808D01*
X590920Y293796D02*
X602880Y293796D01*
X602880Y294784D02*
X590920Y294784D01*
X590920Y295772D02*
X602880Y295772D01*
X602880Y296760D02*
X590920Y296760D01*
X590920Y297748D02*
X602880Y297748D01*
X602880Y298736D02*
X590920Y298736D01*
X590920Y299724D02*
X602880Y299724D01*
X602880Y300712D02*
X590920Y300712D01*
X590920Y301700D02*
X602880Y301700D01*
X602880Y302688D02*
X590920Y302688D01*
X590920Y303676D02*
X602880Y303676D01*
X602880Y304664D02*
X590920Y304664D01*
X590920Y305652D02*
X602880Y305652D01*
X602880Y306640D02*
X590920Y306640D01*
X590920Y307628D02*
X602880Y307628D01*
X602880Y308616D02*
X590920Y308616D01*
X590920Y309604D02*
X602880Y309604D01*
X602880Y310592D02*
X590920Y310592D01*
X590920Y311580D02*
X602880Y311580D01*
X602880Y312568D02*
X590920Y312568D01*
X590920Y313556D02*
X602880Y313556D01*
X602880Y314544D02*
X590920Y314544D01*
X590920Y315532D02*
X602880Y315532D01*
X602880Y316520D02*
X590920Y316520D01*
X590920Y317508D02*
X602880Y317508D01*
X577480Y317780D02*
X577480Y291820D01*
X565520Y291820D01*
X565520Y317780D01*
X577480Y317780D01*
X577480Y292808D02*
X565520Y292808D01*
X565520Y293796D02*
X577480Y293796D01*
X577480Y294784D02*
X565520Y294784D01*
X565520Y295772D02*
X577480Y295772D01*
X577480Y296760D02*
X565520Y296760D01*
X565520Y297748D02*
X577480Y297748D01*
X577480Y298736D02*
X565520Y298736D01*
X565520Y299724D02*
X577480Y299724D01*
X577480Y300712D02*
X565520Y300712D01*
X565520Y301700D02*
X577480Y301700D01*
X577480Y302688D02*
X565520Y302688D01*
X565520Y303676D02*
X577480Y303676D01*
X577480Y304664D02*
X565520Y304664D01*
X565520Y305652D02*
X577480Y305652D01*
X577480Y306640D02*
X565520Y306640D01*
X565520Y307628D02*
X577480Y307628D01*
X577480Y308616D02*
X565520Y308616D01*
X565520Y309604D02*
X577480Y309604D01*
X577480Y310592D02*
X565520Y310592D01*
X565520Y311580D02*
X577480Y311580D01*
X577480Y312568D02*
X565520Y312568D01*
X565520Y313556D02*
X577480Y313556D01*
X577480Y314544D02*
X565520Y314544D01*
X565520Y315532D02*
X577480Y315532D01*
X577480Y316520D02*
X565520Y316520D01*
X565520Y317508D02*
X577480Y317508D01*
X755280Y60580D02*
X755280Y34620D01*
X743320Y34620D01*
X743320Y60580D01*
X755280Y60580D01*
X755280Y35608D02*
X743320Y35608D01*
X743320Y36596D02*
X755280Y36596D01*
X755280Y37584D02*
X743320Y37584D01*
X743320Y38572D02*
X755280Y38572D01*
X755280Y39560D02*
X743320Y39560D01*
X743320Y40548D02*
X755280Y40548D01*
X755280Y41536D02*
X743320Y41536D01*
X743320Y42524D02*
X755280Y42524D01*
X755280Y43512D02*
X743320Y43512D01*
X743320Y44500D02*
X755280Y44500D01*
X755280Y45488D02*
X743320Y45488D01*
X743320Y46476D02*
X755280Y46476D01*
X755280Y47464D02*
X743320Y47464D01*
X743320Y48452D02*
X755280Y48452D01*
X755280Y49440D02*
X743320Y49440D01*
X743320Y50428D02*
X755280Y50428D01*
X755280Y51416D02*
X743320Y51416D01*
X743320Y52404D02*
X755280Y52404D01*
X755280Y53392D02*
X743320Y53392D01*
X743320Y54380D02*
X755280Y54380D01*
X755280Y55368D02*
X743320Y55368D01*
X743320Y56356D02*
X755280Y56356D01*
X755280Y57344D02*
X743320Y57344D01*
X743320Y58332D02*
X755280Y58332D01*
X755280Y59320D02*
X743320Y59320D01*
X743320Y60308D02*
X755280Y60308D01*
X729880Y60580D02*
X729880Y34620D01*
X717920Y34620D01*
X717920Y60580D01*
X729880Y60580D01*
X729880Y35608D02*
X717920Y35608D01*
X717920Y36596D02*
X729880Y36596D01*
X729880Y37584D02*
X717920Y37584D01*
X717920Y38572D02*
X729880Y38572D01*
X729880Y39560D02*
X717920Y39560D01*
X717920Y40548D02*
X729880Y40548D01*
X729880Y41536D02*
X717920Y41536D01*
X717920Y42524D02*
X729880Y42524D01*
X729880Y43512D02*
X717920Y43512D01*
X717920Y44500D02*
X729880Y44500D01*
X729880Y45488D02*
X717920Y45488D01*
X717920Y46476D02*
X729880Y46476D01*
X729880Y47464D02*
X717920Y47464D01*
X717920Y48452D02*
X729880Y48452D01*
X729880Y49440D02*
X717920Y49440D01*
X717920Y50428D02*
X729880Y50428D01*
X729880Y51416D02*
X717920Y51416D01*
X717920Y52404D02*
X729880Y52404D01*
X729880Y53392D02*
X717920Y53392D01*
X717920Y54380D02*
X729880Y54380D01*
X729880Y55368D02*
X717920Y55368D01*
X717920Y56356D02*
X729880Y56356D01*
X729880Y57344D02*
X717920Y57344D01*
X717920Y58332D02*
X729880Y58332D01*
X729880Y59320D02*
X717920Y59320D01*
X717920Y60308D02*
X729880Y60308D01*
X704480Y60580D02*
X704480Y34620D01*
X692520Y34620D01*
X692520Y60580D01*
X704480Y60580D01*
X704480Y35608D02*
X692520Y35608D01*
X692520Y36596D02*
X704480Y36596D01*
X704480Y37584D02*
X692520Y37584D01*
X692520Y38572D02*
X704480Y38572D01*
X704480Y39560D02*
X692520Y39560D01*
X692520Y40548D02*
X704480Y40548D01*
X704480Y41536D02*
X692520Y41536D01*
X692520Y42524D02*
X704480Y42524D01*
X704480Y43512D02*
X692520Y43512D01*
X692520Y44500D02*
X704480Y44500D01*
X704480Y45488D02*
X692520Y45488D01*
X692520Y46476D02*
X704480Y46476D01*
X704480Y47464D02*
X692520Y47464D01*
X692520Y48452D02*
X704480Y48452D01*
X704480Y49440D02*
X692520Y49440D01*
X692520Y50428D02*
X704480Y50428D01*
X704480Y51416D02*
X692520Y51416D01*
X692520Y52404D02*
X704480Y52404D01*
X704480Y53392D02*
X692520Y53392D01*
X692520Y54380D02*
X704480Y54380D01*
X704480Y55368D02*
X692520Y55368D01*
X692520Y56356D02*
X704480Y56356D01*
X704480Y57344D02*
X692520Y57344D01*
X692520Y58332D02*
X704480Y58332D01*
X704480Y59320D02*
X692520Y59320D01*
X692520Y60308D02*
X704480Y60308D01*
X679080Y60580D02*
X679080Y34620D01*
X667120Y34620D01*
X667120Y60580D01*
X679080Y60580D01*
X679080Y35608D02*
X667120Y35608D01*
X667120Y36596D02*
X679080Y36596D01*
X679080Y37584D02*
X667120Y37584D01*
X667120Y38572D02*
X679080Y38572D01*
X679080Y39560D02*
X667120Y39560D01*
X667120Y40548D02*
X679080Y40548D01*
X679080Y41536D02*
X667120Y41536D01*
X667120Y42524D02*
X679080Y42524D01*
X679080Y43512D02*
X667120Y43512D01*
X667120Y44500D02*
X679080Y44500D01*
X679080Y45488D02*
X667120Y45488D01*
X667120Y46476D02*
X679080Y46476D01*
X679080Y47464D02*
X667120Y47464D01*
X667120Y48452D02*
X679080Y48452D01*
X679080Y49440D02*
X667120Y49440D01*
X667120Y50428D02*
X679080Y50428D01*
X679080Y51416D02*
X667120Y51416D01*
X667120Y52404D02*
X679080Y52404D01*
X679080Y53392D02*
X667120Y53392D01*
X667120Y54380D02*
X679080Y54380D01*
X679080Y55368D02*
X667120Y55368D01*
X667120Y56356D02*
X679080Y56356D01*
X679080Y57344D02*
X667120Y57344D01*
X667120Y58332D02*
X679080Y58332D01*
X679080Y59320D02*
X667120Y59320D01*
X667120Y60308D02*
X679080Y60308D01*
X653680Y60580D02*
X653680Y34620D01*
X641720Y34620D01*
X641720Y60580D01*
X653680Y60580D01*
X653680Y35608D02*
X641720Y35608D01*
X641720Y36596D02*
X653680Y36596D01*
X653680Y37584D02*
X641720Y37584D01*
X641720Y38572D02*
X653680Y38572D01*
X653680Y39560D02*
X641720Y39560D01*
X641720Y40548D02*
X653680Y40548D01*
X653680Y41536D02*
X641720Y41536D01*
X641720Y42524D02*
X653680Y42524D01*
X653680Y43512D02*
X641720Y43512D01*
X641720Y44500D02*
X653680Y44500D01*
X653680Y45488D02*
X641720Y45488D01*
X641720Y46476D02*
X653680Y46476D01*
X653680Y47464D02*
X641720Y47464D01*
X641720Y48452D02*
X653680Y48452D01*
X653680Y49440D02*
X641720Y49440D01*
X641720Y50428D02*
X653680Y50428D01*
X653680Y51416D02*
X641720Y51416D01*
X641720Y52404D02*
X653680Y52404D01*
X653680Y53392D02*
X641720Y53392D01*
X641720Y54380D02*
X653680Y54380D01*
X653680Y55368D02*
X641720Y55368D01*
X641720Y56356D02*
X653680Y56356D01*
X653680Y57344D02*
X641720Y57344D01*
X641720Y58332D02*
X653680Y58332D01*
X653680Y59320D02*
X641720Y59320D01*
X641720Y60308D02*
X653680Y60308D01*
X628280Y60580D02*
X628280Y34620D01*
X616320Y34620D01*
X616320Y60580D01*
X628280Y60580D01*
X628280Y35608D02*
X616320Y35608D01*
X616320Y36596D02*
X628280Y36596D01*
X628280Y37584D02*
X616320Y37584D01*
X616320Y38572D02*
X628280Y38572D01*
X628280Y39560D02*
X616320Y39560D01*
X616320Y40548D02*
X628280Y40548D01*
X628280Y41536D02*
X616320Y41536D01*
X616320Y42524D02*
X628280Y42524D01*
X628280Y43512D02*
X616320Y43512D01*
X616320Y44500D02*
X628280Y44500D01*
X628280Y45488D02*
X616320Y45488D01*
X616320Y46476D02*
X628280Y46476D01*
X628280Y47464D02*
X616320Y47464D01*
X616320Y48452D02*
X628280Y48452D01*
X628280Y49440D02*
X616320Y49440D01*
X616320Y50428D02*
X628280Y50428D01*
X628280Y51416D02*
X616320Y51416D01*
X616320Y52404D02*
X628280Y52404D01*
X628280Y53392D02*
X616320Y53392D01*
X616320Y54380D02*
X628280Y54380D01*
X628280Y55368D02*
X616320Y55368D01*
X616320Y56356D02*
X628280Y56356D01*
X628280Y57344D02*
X616320Y57344D01*
X616320Y58332D02*
X628280Y58332D01*
X628280Y59320D02*
X616320Y59320D01*
X616320Y60308D02*
X628280Y60308D01*
X602880Y60580D02*
X602880Y34620D01*
X590920Y34620D01*
X590920Y60580D01*
X602880Y60580D01*
X602880Y35608D02*
X590920Y35608D01*
X590920Y36596D02*
X602880Y36596D01*
X602880Y37584D02*
X590920Y37584D01*
X590920Y38572D02*
X602880Y38572D01*
X602880Y39560D02*
X590920Y39560D01*
X590920Y40548D02*
X602880Y40548D01*
X602880Y41536D02*
X590920Y41536D01*
X590920Y42524D02*
X602880Y42524D01*
X602880Y43512D02*
X590920Y43512D01*
X590920Y44500D02*
X602880Y44500D01*
X602880Y45488D02*
X590920Y45488D01*
X590920Y46476D02*
X602880Y46476D01*
X602880Y47464D02*
X590920Y47464D01*
X590920Y48452D02*
X602880Y48452D01*
X602880Y49440D02*
X590920Y49440D01*
X590920Y50428D02*
X602880Y50428D01*
X602880Y51416D02*
X590920Y51416D01*
X590920Y52404D02*
X602880Y52404D01*
X602880Y53392D02*
X590920Y53392D01*
X590920Y54380D02*
X602880Y54380D01*
X602880Y55368D02*
X590920Y55368D01*
X590920Y56356D02*
X602880Y56356D01*
X602880Y57344D02*
X590920Y57344D01*
X590920Y58332D02*
X602880Y58332D01*
X602880Y59320D02*
X590920Y59320D01*
X590920Y60308D02*
X602880Y60308D01*
X577480Y60580D02*
X577480Y34620D01*
X565520Y34620D01*
X565520Y60580D01*
X577480Y60580D01*
X577480Y35608D02*
X565520Y35608D01*
X565520Y36596D02*
X577480Y36596D01*
X577480Y37584D02*
X565520Y37584D01*
X565520Y38572D02*
X577480Y38572D01*
X577480Y39560D02*
X565520Y39560D01*
X565520Y40548D02*
X577480Y40548D01*
X577480Y41536D02*
X565520Y41536D01*
X565520Y42524D02*
X577480Y42524D01*
X577480Y43512D02*
X565520Y43512D01*
X565520Y44500D02*
X577480Y44500D01*
X577480Y45488D02*
X565520Y45488D01*
X565520Y46476D02*
X577480Y46476D01*
X577480Y47464D02*
X565520Y47464D01*
X565520Y48452D02*
X577480Y48452D01*
X577480Y49440D02*
X565520Y49440D01*
X565520Y50428D02*
X577480Y50428D01*
X577480Y51416D02*
X565520Y51416D01*
X565520Y52404D02*
X577480Y52404D01*
X577480Y53392D02*
X565520Y53392D01*
X565520Y54380D02*
X577480Y54380D01*
X577480Y55368D02*
X565520Y55368D01*
X565520Y56356D02*
X577480Y56356D01*
X577480Y57344D02*
X565520Y57344D01*
X565520Y58332D02*
X577480Y58332D01*
X577480Y59320D02*
X565520Y59320D01*
X565520Y60308D02*
X577480Y60308D01*
D12*
X352285Y17285D02*
X352285Y10655D01*
X352285Y17285D02*
X366535Y17285D01*
X366535Y10655D01*
X352285Y10655D01*
X352285Y11596D02*
X366535Y11596D01*
X366535Y12537D02*
X352285Y12537D01*
X352285Y13478D02*
X366535Y13478D01*
X366535Y14419D02*
X352285Y14419D01*
X352285Y15360D02*
X366535Y15360D01*
X366535Y16301D02*
X352285Y16301D01*
X352285Y17242D02*
X366535Y17242D01*
X296405Y17285D02*
X296405Y10655D01*
X296405Y17285D02*
X310655Y17285D01*
X310655Y10655D01*
X296405Y10655D01*
X296405Y11596D02*
X310655Y11596D01*
X310655Y12537D02*
X296405Y12537D01*
X296405Y13478D02*
X310655Y13478D01*
X310655Y14419D02*
X296405Y14419D01*
X296405Y15360D02*
X310655Y15360D01*
X310655Y16301D02*
X296405Y16301D01*
X296405Y17242D02*
X310655Y17242D01*
X352285Y48755D02*
X352285Y55385D01*
X366535Y55385D01*
X366535Y48755D01*
X352285Y48755D01*
X352285Y49696D02*
X366535Y49696D01*
X366535Y50637D02*
X352285Y50637D01*
X352285Y51578D02*
X366535Y51578D01*
X366535Y52519D02*
X352285Y52519D01*
X352285Y53460D02*
X366535Y53460D01*
X366535Y54401D02*
X352285Y54401D01*
X352285Y55342D02*
X366535Y55342D01*
X296405Y55385D02*
X296405Y48755D01*
X296405Y55385D02*
X310655Y55385D01*
X310655Y48755D01*
X296405Y48755D01*
X296405Y49696D02*
X310655Y49696D01*
X310655Y50637D02*
X296405Y50637D01*
X296405Y51578D02*
X310655Y51578D01*
X310655Y52519D02*
X296405Y52519D01*
X296405Y53460D02*
X310655Y53460D01*
X310655Y54401D02*
X296405Y54401D01*
X296405Y55342D02*
X310655Y55342D01*
M02*
