G04 EAGLE Gerber RS-274X export*
G75*
%MOMM*%
%FSLAX34Y34*%
%LPD*%
%INSoldermask Bottom*%
%IPPOS*%
%AMOC8*
5,1,8,0,0,1.08239X$1,22.5*%
G01*
%ADD10C,0.777000*%
%ADD11C,0.762000*%
%ADD12C,3.429000*%
%ADD13C,6.127000*%
%ADD14C,0.228344*%
%ADD15C,1.227000*%
%ADD16C,1.727000*%
%ADD17C,0.228600*%
%ADD18C,2.006600*%
%ADD19C,1.526997*%

G36*
X110809Y76212D02*
X110809Y76212D01*
X110875Y76214D01*
X110918Y76232D01*
X110965Y76240D01*
X111022Y76274D01*
X111082Y76299D01*
X111117Y76330D01*
X111158Y76355D01*
X111200Y76406D01*
X111248Y76450D01*
X111270Y76492D01*
X111299Y76529D01*
X111320Y76591D01*
X111351Y76650D01*
X111359Y76704D01*
X111371Y76741D01*
X111370Y76781D01*
X111378Y76835D01*
X111378Y80645D01*
X111367Y80710D01*
X111365Y80776D01*
X111347Y80819D01*
X111339Y80866D01*
X111305Y80923D01*
X111280Y80983D01*
X111249Y81018D01*
X111224Y81059D01*
X111173Y81101D01*
X111129Y81149D01*
X111087Y81171D01*
X111050Y81200D01*
X110988Y81221D01*
X110929Y81252D01*
X110875Y81260D01*
X110838Y81272D01*
X110798Y81271D01*
X110744Y81279D01*
X97536Y81279D01*
X97471Y81268D01*
X97405Y81266D01*
X97362Y81248D01*
X97315Y81240D01*
X97258Y81206D01*
X97198Y81181D01*
X97163Y81150D01*
X97122Y81125D01*
X97081Y81074D01*
X97032Y81030D01*
X97010Y80988D01*
X96981Y80951D01*
X96960Y80889D01*
X96929Y80830D01*
X96921Y80776D01*
X96909Y80739D01*
X96909Y80735D01*
X96909Y80734D01*
X96910Y80699D01*
X96902Y80645D01*
X96902Y76835D01*
X96913Y76770D01*
X96915Y76704D01*
X96933Y76661D01*
X96941Y76614D01*
X96975Y76557D01*
X97000Y76497D01*
X97031Y76462D01*
X97056Y76421D01*
X97107Y76380D01*
X97151Y76331D01*
X97193Y76309D01*
X97230Y76280D01*
X97292Y76259D01*
X97351Y76228D01*
X97405Y76220D01*
X97442Y76208D01*
X97482Y76209D01*
X97536Y76201D01*
X110744Y76201D01*
X110809Y76212D01*
G37*
G36*
X154370Y334657D02*
X154370Y334657D01*
X154436Y334659D01*
X154479Y334677D01*
X154526Y334685D01*
X154583Y334719D01*
X154643Y334744D01*
X154678Y334775D01*
X154719Y334800D01*
X154761Y334851D01*
X154809Y334895D01*
X154831Y334937D01*
X154860Y334974D01*
X154881Y335036D01*
X154912Y335095D01*
X154920Y335149D01*
X154932Y335186D01*
X154931Y335226D01*
X154939Y335280D01*
X154939Y337820D01*
X154928Y337885D01*
X154926Y337951D01*
X154908Y337994D01*
X154900Y338041D01*
X154866Y338098D01*
X154841Y338158D01*
X154810Y338193D01*
X154785Y338234D01*
X154734Y338276D01*
X154690Y338324D01*
X154648Y338346D01*
X154611Y338375D01*
X154549Y338396D01*
X154490Y338427D01*
X154436Y338435D01*
X154399Y338447D01*
X154359Y338446D01*
X154305Y338454D01*
X150495Y338454D01*
X150430Y338443D01*
X150364Y338441D01*
X150321Y338423D01*
X150274Y338415D01*
X150217Y338381D01*
X150157Y338356D01*
X150122Y338325D01*
X150081Y338300D01*
X150040Y338249D01*
X149991Y338205D01*
X149969Y338163D01*
X149940Y338126D01*
X149919Y338064D01*
X149888Y338005D01*
X149880Y337951D01*
X149868Y337914D01*
X149868Y337911D01*
X149869Y337874D01*
X149861Y337820D01*
X149861Y335280D01*
X149872Y335215D01*
X149874Y335149D01*
X149892Y335106D01*
X149900Y335059D01*
X149934Y335002D01*
X149959Y334942D01*
X149990Y334907D01*
X150015Y334866D01*
X150066Y334825D01*
X150110Y334776D01*
X150152Y334754D01*
X150189Y334725D01*
X150251Y334704D01*
X150310Y334673D01*
X150364Y334665D01*
X150401Y334653D01*
X150441Y334654D01*
X150495Y334646D01*
X154305Y334646D01*
X154370Y334657D01*
G37*
D10*
X47780Y135580D03*
X47780Y77780D03*
D11*
X7620Y7620D03*
X843280Y349250D03*
D12*
X825500Y330200D03*
X25400Y330200D03*
X825500Y25400D03*
X25400Y25400D03*
D13*
X443270Y137600D03*
D14*
X160403Y342394D02*
X154811Y342394D01*
X160403Y342394D02*
X160403Y330706D01*
X154811Y330706D01*
X154811Y342394D01*
X154811Y332875D02*
X160403Y332875D01*
X160403Y335044D02*
X154811Y335044D01*
X154811Y337213D02*
X160403Y337213D01*
X160403Y339382D02*
X154811Y339382D01*
X154811Y341551D02*
X160403Y341551D01*
X149989Y342394D02*
X144397Y342394D01*
X149989Y342394D02*
X149989Y330706D01*
X144397Y330706D01*
X144397Y342394D01*
X144397Y332875D02*
X149989Y332875D01*
X149989Y335044D02*
X144397Y335044D01*
X144397Y337213D02*
X149989Y337213D01*
X149989Y339382D02*
X144397Y339382D01*
X144397Y341551D02*
X149989Y341551D01*
D15*
X241300Y77800D03*
D16*
X241300Y277800D03*
D17*
X98298Y86487D02*
X98298Y81153D01*
X98298Y86487D02*
X109982Y86487D01*
X109982Y81153D01*
X98298Y81153D01*
X98298Y83325D02*
X109982Y83325D01*
X109982Y85497D02*
X98298Y85497D01*
X98298Y76327D02*
X98298Y70993D01*
X98298Y76327D02*
X109982Y76327D01*
X109982Y70993D01*
X98298Y70993D01*
X98298Y73165D02*
X109982Y73165D01*
X109982Y75337D02*
X98298Y75337D01*
D18*
X104140Y91440D03*
X104140Y66040D03*
D17*
X166497Y170942D02*
X171831Y170942D01*
X171831Y159258D01*
X166497Y159258D01*
X166497Y170942D01*
X166497Y161430D02*
X171831Y161430D01*
X171831Y163602D02*
X166497Y163602D01*
X166497Y165774D02*
X171831Y165774D01*
X171831Y167946D02*
X166497Y167946D01*
X166497Y170118D02*
X171831Y170118D01*
X163703Y170942D02*
X158369Y170942D01*
X163703Y170942D02*
X163703Y159258D01*
X158369Y159258D01*
X158369Y170942D01*
X158369Y161430D02*
X163703Y161430D01*
X163703Y163602D02*
X158369Y163602D01*
X158369Y165774D02*
X163703Y165774D01*
X163703Y167946D02*
X158369Y167946D01*
X158369Y170118D02*
X163703Y170118D01*
X63373Y210058D02*
X58039Y210058D01*
X58039Y221742D01*
X63373Y221742D01*
X63373Y210058D01*
X63373Y212230D02*
X58039Y212230D01*
X58039Y214402D02*
X63373Y214402D01*
X63373Y216574D02*
X58039Y216574D01*
X58039Y218746D02*
X63373Y218746D01*
X63373Y220918D02*
X58039Y220918D01*
X66167Y210058D02*
X71501Y210058D01*
X66167Y210058D02*
X66167Y221742D01*
X71501Y221742D01*
X71501Y210058D01*
X71501Y212230D02*
X66167Y212230D01*
X66167Y214402D02*
X71501Y214402D01*
X71501Y216574D02*
X66167Y216574D01*
X66167Y218746D02*
X71501Y218746D01*
X71501Y220918D02*
X66167Y220918D01*
D18*
X12700Y196850D03*
X12700Y171450D03*
X228600Y342900D03*
X254000Y342900D03*
X279400Y342900D03*
X304800Y342900D03*
X330200Y342900D03*
X355600Y342900D03*
X381000Y342900D03*
X406400Y342900D03*
X431800Y342900D03*
D19*
X554990Y296944D03*
X554990Y64944D03*
M02*
