M48
;GenerationSoftware,Autodesk,EAGLE,9.4.2*%
;CreationDate,2021-09-23T17:40:27Z*%
FMAT,2
ICI,OFF
METRIC,TZ,000.000
T9C0.305
T8C0.400
T7C0.650
T6C1.016
T5C1.100
T4C1.400
T3C1.600
T2C3.302
T1C3.800
%
G90
M71
T1
X44327Y13760
T2
X82550Y33020
X2540Y33020
X82550Y2540
X2540Y2540
T3
X24130Y27780
T4
X55499Y29694
X55499Y6494
T5
X24130Y7780
T6
X43180Y34290
X10414Y9144
X10414Y6604
X1270Y19685
X1270Y17145
X22860Y34290
X25400Y34290
X27940Y34290
X30480Y34290
X33020Y34290
X35560Y34290
X38100Y34290
X40640Y34290
T7
X4778Y13558
X4778Y7778
T8
X1128Y14986
X1128Y6350
X5308Y6350
X5308Y14986
T9
X7620Y11173
X16510Y9779
X17018Y9017
X6891Y10414
X3429Y19050
X11938Y22352
X10795Y29845
X24892Y10287
X21463Y10668
X17653Y32385
X7747Y21082
X13970Y10668
X10297Y14487
X20447Y10668
X59690Y1524
X24257Y16510
X15748Y15240
X1270Y26416
X41267Y8890
X48373Y8890
X62230Y8890
X28067Y11280
X38377Y11407
X47246Y8128
X64770Y8115
X28829Y12055
X39473Y12065
X57150Y6858
X40627Y22619
X67310Y22619
X20193Y21971
X69850Y22098
X43180Y21971
X20252Y23228
X38100Y23368
X62230Y23266
X21082Y23838
X35560Y24003
X64897Y24003
X5207Y21336
X40767Y17907
X72390Y17907
X30480Y12780
X40386Y12954
X27940Y17145
X76200Y17145
X29083Y20447
X74930Y20320
X29337Y10632
X72390Y10414
X33020Y10632
X22225Y12573
X69850Y9677
X20320Y13335
X67310Y9030
X17526Y27940
X3810Y24130
X16510Y21590
X14859Y19050
X8890Y15240
X8890Y7239
X15240Y1270
X17145Y7620
X20193Y9271
X39116Y3556
X18796Y15748
X24638Y17272
X57150Y28321
X33020Y1270
X20828Y22619
X50292Y2286
X24130Y1270
X13081Y15494
X16891Y11430
X20320Y17780
X34290Y25400
X46990Y25400
X23000Y8877
X23508Y26048
X40132Y3302
X49276Y2286
X38083Y8145
X28080Y8242
M30