M48
;GenerationSoftware,Autodesk,EAGLE,9.4.2*%
;CreationDate,2022-01-21T19:08:27Z*%
FMAT,2
ICI,OFF
METRIC,TZ,000.000
T11C0.305
T10C0.381
T9C0.400
T8C0.508
T7C0.650
T6C1.016
T5C1.100
T4C1.400
T3C1.600
T2C3.302
T1C3.800
%
G90
M71
T1
X129925Y13760
X129925Y49828
X44327Y13760
X44327Y85896
X129925Y85896
X44327Y49828
T2
X88138Y74676
X88138Y105156
X168148Y74676
X82550Y33020
X2540Y33020
X82550Y2540
X2540Y2540
X82550Y105156
X2540Y105156
X82550Y74676
X2540Y74676
X168148Y33020
X88138Y33020
X168148Y2540
X88138Y2540
X88138Y38608
X168148Y69088
X82550Y69088
X2540Y69088
X82550Y38608
X2540Y38608
X168148Y105156
X88138Y69088
X168148Y38608
T3
X24130Y27780
X24130Y63848
X109728Y27780
X109728Y63848
X109728Y99916
X24130Y99916
T4
X55499Y29694
X55499Y6494
X55499Y65762
X141097Y65762
X141097Y42562
X141097Y29694
X141097Y78630
X141097Y101830
X141097Y6494
X55499Y101830
X55499Y78630
X55499Y42562
T5
X24130Y7780
X109728Y43848
X109728Y7780
X24130Y43848
X109728Y79916
X24130Y79916
T6
X113538Y106426
X116078Y106426
X118618Y106426
X121158Y106426
X123698Y106426
X126238Y106426
X128778Y106426
X96012Y6604
X30480Y70358
X27940Y70358
X25400Y70358
X22860Y70358
X10414Y9144
X10414Y6604
X1270Y19685
X1270Y17145
X22860Y34290
X25400Y34290
X27940Y34290
X30480Y34290
X33020Y34290
X35560Y34290
X38100Y34290
X40640Y34290
X43180Y34290
X86868Y19685
X86868Y17145
X108458Y34290
X110998Y34290
X113538Y34290
X116078Y34290
X118618Y34290
X121158Y34290
X123698Y34290
X126238Y34290
X128778Y34290
X1270Y53213
X1270Y55753
X10414Y42672
X10414Y45212
X96012Y9144
X33020Y70358
X35560Y70358
X38100Y70358
X40640Y70358
X43180Y70358
X96012Y45212
X96012Y42672
X86868Y55753
X86868Y53213
X108458Y70358
X110998Y70358
X113538Y70358
X116078Y70358
X118618Y70358
X121158Y70358
X123698Y70358
X126238Y70358
X128778Y70358
X10414Y81280
X10414Y78740
X1270Y91821
X1270Y89281
X22860Y106426
X25400Y106426
X27940Y106426
X30480Y106426
X33020Y106426
X35560Y106426
X38100Y106426
X40640Y106426
X43180Y106426
X96012Y81280
X96012Y78740
X86868Y91821
X86868Y89281
X108458Y106426
X110998Y106426
T7
X4778Y13558
X4778Y7778
X90376Y13558
X90376Y7778
X4778Y49626
X4778Y43846
X90376Y49626
X90376Y85694
X90376Y43846
X4778Y79914
X90376Y79914
X4778Y85694
T8
X118618Y2413
X117348Y2413
X118618Y39751
X117348Y39751
X116078Y39751
X114808Y39751
X119888Y39751
X118618Y38481
X117348Y38481
X116078Y38481
X114808Y38481
X119888Y38481
X116078Y2413
X114808Y2413
X29210Y39751
X33020Y3683
X31750Y3683
X30480Y3683
X29210Y3683
X33020Y39751
X31750Y39751
X30480Y39751
X34290Y39751
X33020Y38481
X31750Y38481
X30480Y38481
X33020Y75819
X31750Y75819
X30480Y75819
X29210Y75819
X34290Y75819
X33020Y74549
X31750Y74549
X30480Y74549
X29210Y74549
X34290Y74549
X29210Y38481
X34290Y38481
X34290Y3683
X33020Y2413
X31750Y2413
X30480Y2413
X29210Y2413
X34290Y2413
X119888Y2413
X118618Y3683
X117348Y3683
X116078Y3683
X114808Y3683
X119888Y3683
X118618Y75819
X117348Y75819
X116078Y75819
X114808Y75819
X119888Y75819
X118618Y74549
X117348Y74549
X116078Y74549
X114808Y74549
X119888Y74549
T9
X1128Y51054
X86726Y42418
X90906Y42418
X90906Y51054
X1128Y42418
X5308Y42418
X5308Y51054
X90906Y14986
X90906Y6350
X86726Y6350
X86726Y14986
X86726Y51054
X1128Y87122
X1128Y78486
X5308Y78486
X5308Y87122
X5308Y14986
X5308Y6350
X1128Y6350
X1128Y14986
X86726Y87122
X86726Y78486
X90906Y78486
X90906Y87122
T10
X33020Y78486
X30480Y78486
X118618Y6350
X30480Y6350
X118618Y42418
X116078Y42418
X33020Y42418
X30480Y42418
X116078Y6350
X33020Y6350
X118618Y78486
X116078Y78486
T11
X39473Y48133
X20828Y58687
X40627Y58687
X67310Y58687
X20193Y58039
X69850Y58166
X43180Y58039
X20252Y59296
X38100Y59436
X62230Y59334
X21082Y59906
X35560Y60071
X64897Y60071
X5207Y57404
X40767Y53975
X72390Y53975
X30480Y48848
X40386Y49022
X27940Y53213
X76200Y53213
X29083Y56515
X74930Y56388
X29337Y46700
X72390Y46482
X33020Y46700
X22225Y48641
X69850Y45745
X20447Y48387
X67310Y45098
X21590Y50419
X31369Y50419
X20955Y49784
X32093Y49657
X103124Y64008
X89408Y60198
X102108Y57658
X100457Y55118
X94488Y51308
X94488Y43307
X100838Y37338
X102743Y43688
X105791Y45339
X124714Y39624
X104394Y51816
X110236Y53340
X142748Y64389
X143637Y38989
X121793Y37211
X135890Y38354
X109728Y37338
X98679Y51562
X102489Y47498
X105918Y53848
X119888Y61468
X132588Y61468
X117348Y61468
X115316Y51435
X114808Y42164
X108598Y44945
X109106Y62116
X125730Y39370
X134874Y38354
X123681Y44213
X113678Y44310
X93218Y47241
X102108Y45847
X102616Y45085
X92489Y46482
X89027Y55118
X97536Y58420
X96393Y65913
X110490Y46355
X107061Y46736
X102108Y40513
X103251Y68453
X93345Y57150
X99568Y46736
X95894Y50555
X106045Y46736
X145288Y38354
X109855Y52578
X101346Y51308
X86868Y62484
X126865Y44958
X133971Y44958
X147828Y44958
X113665Y47348
X123975Y47475
X132844Y44196
X150368Y44183
X114427Y48123
X125071Y48133
X106426Y58687
X126225Y58687
X152908Y58687
X105791Y58039
X155448Y58166
X128778Y58039
X105850Y59296
X123698Y59436
X147828Y59334
X106680Y59906
X121158Y60071
X150495Y60071
X90805Y57404
X126365Y53975
X157988Y53975
X116078Y48848
X125984Y49022
X113538Y53213
X161798Y53213
X114681Y56515
X160528Y56388
X114935Y46700
X157988Y46482
X118618Y46700
X107823Y48641
X155448Y45745
X106045Y48387
X152908Y45098
X107188Y50419
X116967Y50419
X106553Y49784
X117691Y49657
X17526Y100076
X3810Y96266
X16510Y93726
X14859Y91186
X8890Y87376
X8890Y79375
X15240Y73406
X17145Y79756
X20193Y81407
X39116Y75692
X18796Y87884
X24638Y89408
X57150Y100457
X58039Y75057
X36195Y73279
X50292Y74422
X24130Y73406
X13081Y87630
X16891Y83566
X20320Y89916
X34290Y97536
X46990Y97536
X31750Y97536
X29718Y87503
X29210Y78232
X23000Y81013
X23508Y98184
X40132Y75438
X49276Y74422
X102743Y7620
X28080Y80378
X7620Y83309
X16510Y81915
X17018Y81153
X6891Y82550
X3429Y91186
X11938Y94488
X10795Y101981
X24892Y82423
X21463Y82804
X16510Y76581
X17653Y104521
X7747Y93218
X13970Y82804
X10297Y86624
X20447Y82804
X59690Y74422
X24257Y88646
X15748Y87376
X1270Y98552
X41267Y81026
X48373Y81026
X62230Y81026
X28067Y83416
X38377Y83543
X47246Y80264
X64770Y80251
X28829Y84191
X39473Y84201
X20828Y94755
X40627Y94755
X67310Y94755
X20193Y94107
X69850Y94234
X43180Y94107
X20252Y95364
X38100Y95504
X62230Y95402
X21082Y95974
X35560Y96139
X64897Y96139
X5207Y93472
X40767Y90043
X72390Y90043
X30480Y84916
X40386Y85090
X27940Y89281
X76200Y89281
X29083Y92583
X74930Y92456
X29337Y82768
X72390Y82550
X33020Y82768
X22225Y84709
X69850Y81813
X20447Y84455
X67310Y81166
X21590Y86487
X31369Y86487
X20955Y85852
X32093Y85725
X103124Y100076
X89408Y96266
X102108Y93726
X100457Y91186
X94488Y87376
X94488Y79375
X100838Y73406
X102743Y79756
X105791Y81407
X124714Y75692
X104394Y87884
X110236Y89408
X142748Y100457
X143637Y75057
X121793Y73279
X135890Y74422
X109728Y73406
X98679Y87630
X102489Y83566
X105918Y89916
X119888Y97536
X132588Y97536
X117348Y97536
X115316Y87503
X114808Y78232
X108598Y81013
X109106Y98184
X125730Y75438
X134874Y74422
X123681Y80281
X113678Y80378
X93218Y83309
X102108Y81915
X102616Y81153
X92489Y82550
X89027Y91186
X97536Y94488
X96393Y101981
X110490Y82423
X107061Y82804
X102108Y76581
X103251Y104521
X93345Y93218
X99568Y82804
X95894Y86624
X106045Y82804
X145288Y74422
X109855Y88646
X101346Y87376
X86868Y98552
X126865Y81026
X133971Y81026
X147828Y81026
X113665Y83416
X123975Y83543
X132844Y80264
X150368Y80251
X114427Y84191
X125071Y84201
X106426Y94755
X126225Y94755
X152908Y94755
X105791Y94107
X155448Y94234
X128778Y94107
X105850Y95364
X123698Y95504
X147828Y95402
X106680Y95974
X121158Y96139
X150495Y96139
X90805Y93472
X126365Y90043
X157988Y90043
X116078Y84916
X125984Y85090
X113538Y89281
X161798Y89281
X114681Y92583
X160528Y92456
X114935Y82768
X157988Y82550
X118618Y82768
X107823Y84709
X155448Y81813
X106045Y84455
X152908Y81166
X107188Y86487
X116967Y86487
X106553Y85852
X117691Y85725
X17526Y27940
X3810Y24130
X16510Y21590
X14859Y19050
X8890Y15240
X8890Y7239
X15240Y1270
X17145Y7620
X20193Y9271
X39116Y3556
X18796Y15748
X24638Y17272
X57150Y28321
X58039Y2921
X36195Y1143
X50292Y2286
X24130Y1270
X13081Y15494
X16891Y11430
X20320Y17780
X34290Y25400
X46990Y25400
X31750Y25400
X29718Y15367
X29210Y6096
X23000Y8877
X23508Y26048
X40132Y3302
X49276Y2286
X38083Y8145
X28080Y8242
X7620Y11173
X16510Y9779
X17018Y9017
X6891Y10414
X3429Y19050
X11938Y22352
X10795Y29845
X24892Y10287
X21463Y10668
X16510Y4445
X17653Y32385
X7747Y21082
X13970Y10668
X10297Y14487
X20447Y10668
X59690Y2286
X24257Y16510
X15748Y15240
X1270Y26416
X41267Y8890
X48373Y8890
X62230Y8890
X28067Y11280
X38377Y11407
X47246Y8128
X64770Y8115
X28829Y12055
X39473Y12065
X20828Y22619
X40627Y22619
X67310Y22619
X20193Y21971
X69850Y22098
X43180Y21971
X20252Y23228
X38100Y23368
X62230Y23266
X21082Y23838
X35560Y24003
X64897Y24003
X5207Y21336
X40767Y17907
X72390Y17907
X30480Y12780
X40386Y12954
X27940Y17145
X76200Y17145
X29083Y20447
X74930Y20320
X29337Y10632
X72390Y10414
X33020Y10632
X22225Y12573
X69850Y9677
X20447Y12319
X67310Y9030
X21590Y14351
X31369Y14351
X20955Y13716
X32093Y13589
X103124Y27940
X89408Y24130
X102108Y21590
X100457Y19050
X94488Y15240
X94488Y7239
X100838Y1270
X105791Y9271
X124714Y3556
X104394Y15748
X110236Y17272
X142748Y28321
X143637Y2921
X121793Y1143
X135890Y2286
X109728Y1270
X98679Y15494
X102489Y11430
X105918Y17780
X119888Y25400
X132588Y25400
X117348Y25400
X115316Y15367
X114808Y6096
X108598Y8877
X109106Y26048
X125730Y3302
X134874Y2286
X123681Y8145
X113678Y8242
X93218Y11173
X102108Y9779
X102616Y9017
X92489Y10414
X89027Y19050
X97536Y22352
X96393Y29845
X110490Y10287
X107061Y10668
X102108Y4445
X103251Y32385
X93345Y21082
X99568Y10668
X95894Y14487
X106045Y10668
X145288Y2286
X109855Y16510
X101346Y15240
X86868Y26416
X126865Y8890
X38083Y80281
X133971Y8890
X147828Y8890
X113665Y11280
X123975Y11407
X132844Y8128
X150368Y8115
X114427Y12055
X125071Y12065
X106426Y22619
X126225Y22619
X152908Y22619
X105791Y21971
X155448Y22098
X128778Y21971
X105850Y23228
X123698Y23368
X147828Y23266
X106680Y23838
X121158Y24003
X150495Y24003
X90805Y21336
X126365Y17907
X157988Y17907
X116078Y12780
X125984Y12954
X113538Y17145
X161798Y17145
X114681Y20447
X160528Y20320
X114935Y10632
X157988Y10414
X118618Y10632
X107823Y12573
X155448Y9677
X106045Y12319
X152908Y9030
X107188Y14351
X116967Y14351
X106553Y13716
X117691Y13589
X17526Y64008
X3810Y60198
X16510Y57658
X14859Y55118
X8890Y51308
X8890Y43307
X15240Y37338
X17145Y43688
X20193Y45339
X39116Y39624
X18796Y51816
X24638Y53340
X57150Y64389
X58039Y38989
X36195Y37211
X50292Y38354
X24130Y37338
X13081Y51562
X16891Y47498
X20320Y53848
X34290Y61468
X46990Y61468
X31750Y61468
X29718Y51435
X29210Y42164
X23000Y44945
X23508Y62116
X40132Y39370
X49276Y38354
X38083Y44213
X28080Y44310
X7620Y47241
X16510Y45847
X17018Y45085
X6891Y46482
X3429Y55118
X11938Y58420
X10795Y65913
X24892Y46355
X21463Y46736
X16510Y40513
X17653Y68453
X7747Y57150
X13970Y46736
X10297Y50555
X20447Y46736
X59690Y38354
X24257Y52578
X15748Y51308
X1270Y62484
X41267Y44958
X48373Y44958
X62230Y44958
X28067Y47348
X38377Y47475
X47246Y44196
X64770Y44183
X28829Y48123
M30